<svg width="116" height="116" viewBox="0 0 116 116" fill="none" xmlns="http://www.w3.org/2000/svg">
<g clip-path="url(#clip0)">
<mask id="path-1-inside-1" fill="white">
<path d="M114.924 15.7093C114.264 15.384 113.477 15.4608 112.892 15.9076L81.4624 39.94C79.9136 41.1355 79.5003 43.2985 80.4988 44.981L75.5396 46.3329L68.3027 43.2516C68.1765 43.1975 68.0449 43.1569 67.9101 43.1309C60.9673 41.8043 57.3677 43.0837 55.5078 44.509H35.7493C36.4267 42.8871 35.9287 41.0123 34.5358 39.94L3.10776 15.9073C2.52368 15.4601 1.73638 15.3831 1.07685 15.7089C0.417102 16.0347 -0.000226459 16.7066 1.03489e-07 17.4423V63.8423C-0.000226459 64.5363 0.371563 65.177 0.974219 65.5207L12.9406 72.3572C13.5222 72.6907 14.181 72.8658 14.8512 72.8651C15.8347 72.8624 16.7804 72.4863 17.497 71.813L19.7397 73.6049C18.4349 75.271 18.1499 77.5192 18.9975 79.4583C19.8453 81.3975 21.6891 82.7149 23.7984 82.8885C23.9626 82.9037 24.1251 82.9093 24.2873 82.9093C24.5845 82.9066 24.8813 82.881 25.1747 82.8325C25.2955 84.2125 25.8401 85.5214 26.7341 86.5796L26.7362 86.5817C27.8932 87.9547 29.5512 88.8079 31.3411 88.9511C31.5318 88.9681 31.7224 88.9755 31.9131 88.9755C31.9424 88.9755 31.9705 88.9685 31.9995 88.9681C32.0534 90.2248 32.5215 91.4283 33.331 92.391C34.4321 93.6889 36.0488 94.4364 37.7507 94.4339C38.4273 94.4328 39.0981 94.3111 39.7318 94.0748C40.3771 96.3805 42.3928 98.0387 44.7799 98.227C44.9441 98.2422 45.1066 98.2478 45.2688 98.2478C46.5989 98.2558 47.889 97.7915 48.909 96.9376L51.9408 94.5952L59.0798 99.3657C60.1847 100.1 61.482 100.491 62.8086 100.491C63.2637 100.491 63.7178 100.446 64.1641 100.357C67.0725 99.7776 69.2595 97.3638 69.5504 94.4128C71.4855 95.0032 73.5841 94.6831 75.255 93.5424C76.9259 92.4016 77.9885 90.5637 78.1434 88.5464C80.3828 89.2864 82.846 88.8002 84.636 87.2645C86.4261 85.7289 87.2814 83.3683 86.8908 81.0427C88.8281 80.8211 90.5709 79.7617 91.6595 78.144C92.7386 76.5176 93.0646 74.5045 92.5535 72.6207L96.3659 68.8097L97.9221 71.1433C99.0506 72.8334 101.294 73.3634 103.059 72.3572L115.026 65.5207C115.628 65.1767 116 64.536 116 63.8423V17.4423C116 16.7071 115.583 16.0353 114.924 15.7093ZM3.86674 62.7208V21.3544L25.4516 37.8594L7.74708 64.9377L3.86674 62.7208ZM14.8586 69.0004L11.1097 66.8587L28.5308 40.2143L32.1871 43.0099L14.8586 69.0004ZM25.4958 78.5954C25.1169 78.9261 24.6181 79.0854 24.1176 79.0353C23.3708 78.9724 22.7315 78.4751 22.4863 77.7668C22.2412 77.0586 22.4367 76.2726 22.9848 75.7615L27.8201 72.0232C28.1601 71.7335 28.5929 71.5746 29.0396 71.5758C29.0924 71.5758 29.1452 71.5776 29.1982 71.5814C29.9452 71.6447 30.585 72.1424 30.8299 72.8509C31.0751 73.5596 30.8793 74.346 30.3311 74.8571L25.4958 78.5954ZM31.6603 85.0977C30.5064 85.0023 29.5195 84.23 29.1498 83.1327C28.78 82.0355 29.0981 80.8234 29.9593 80.0492L36.0481 75.3406C36.9433 74.582 38.207 74.4377 39.2504 74.9744C40.2935 75.5114 40.9106 76.6238 40.8136 77.7931C40.7586 78.5088 40.436 79.1776 39.9101 79.6665L38.2533 80.9593L33.7732 84.4219C33.188 84.9214 32.4268 85.165 31.6603 85.0977ZM41.5346 88.094L41.5303 88.0985L38.9499 90.1122C38.5673 90.4371 38.0713 90.5964 37.5711 90.5549C37.0708 90.5135 36.6077 90.2747 36.284 89.8913C35.9575 89.5098 35.7985 89.0132 35.8422 88.5131C35.8753 88.038 36.0912 87.594 36.4444 87.2745L40.9639 83.7472L42.2972 82.7168C42.3119 82.7043 42.3219 82.6884 42.3366 82.6758L43.7019 81.6105C44.0413 81.3202 44.4731 81.1607 44.9196 81.1612C44.9733 81.1609 45.0268 81.1634 45.08 81.1687C45.8284 81.2319 46.4686 81.7308 46.7127 82.441C46.9567 83.1511 46.7584 83.9384 46.2072 84.4481L41.6848 87.9778L41.5346 88.094ZM51.3126 90.1954L46.4773 93.9336C46.0998 94.2669 45.5998 94.4264 45.0991 94.3736C44.3528 94.3106 43.7136 93.8138 43.4685 93.1062C43.2231 92.3987 43.4178 91.613 43.9649 91.1016L44.0533 91.0327L48.8016 87.3617C49.5873 86.6984 50.7586 86.7833 51.4406 87.5527C52.1223 88.3221 52.0656 89.4953 51.3126 90.1954ZM88.4405 76.003C87.5558 77.3128 85.7892 77.681 84.4548 76.8338L84.4396 76.8243L71.7426 68.0489C71.1746 67.654 70.4392 67.5928 69.8137 67.8885C69.1883 68.1839 68.7685 68.7913 68.713 69.4808C68.6575 70.1702 68.9747 70.8367 69.5447 71.2285L81.8314 79.7223L81.8375 79.7284C82.8118 80.375 83.2998 81.5454 83.073 82.6925C82.8462 83.8396 81.9499 84.7366 80.8028 84.9638C80.0597 85.1183 79.2858 84.9701 78.6523 84.5521L65.946 75.7842C65.0669 75.1795 63.8643 75.4008 63.2583 76.2788C62.6522 77.1567 62.8713 78.3597 63.7483 78.9674L73.0286 85.37L73.0317 85.3734C74.3719 86.3146 74.7389 88.1413 73.8662 89.527C72.9948 90.8479 71.2233 91.2224 69.8918 90.3671L66.4723 87.9404L66.4707 87.9392H66.4703L62.9855 85.4659C62.4223 85.0658 61.6884 84.9967 61.0604 85.2846C60.4324 85.5723 60.0055 86.1734 59.9407 86.861C59.8759 87.5487 60.1829 88.2188 60.7462 88.6189L64.3308 91.1621C64.5037 91.3019 64.6677 91.4519 64.8225 91.6114C65.9161 92.6483 66.0359 94.3489 65.0987 95.5289C64.1614 96.7088 62.4776 96.9768 61.2201 96.1462L54.8521 91.8905C55.9331 90.2214 56.0701 88.111 55.2144 86.3162C54.3587 84.5213 52.633 83.299 50.6558 83.0879C50.7004 80.0782 48.3994 77.5514 45.3986 77.3153C45.1505 77.3006 44.9015 77.3026 44.6537 77.3214C44.5918 74.9416 43.2746 72.7725 41.1918 71.62C39.109 70.4674 36.5715 70.5035 34.5222 71.7149C33.9436 69.8965 32.5004 68.4834 30.67 67.9435C28.8398 67.4034 26.8608 67.8065 25.3875 69.0195L22.7471 71.0599L19.7361 68.654L33.256 48.3758H50.226C48.7583 49.664 48.0734 51.6274 48.4214 53.5489C48.8258 55.8811 50.6752 57.6941 53.0149 58.0518C56.5912 58.5579 60.2375 58.0326 63.5256 56.5377L68.4552 59.6738C68.5655 59.7372 68.6822 59.7895 68.803 59.8301L87.6507 71.9686C88.0229 72.2247 88.3358 72.5575 88.5683 72.9447C88.5778 72.9673 88.5891 72.9882 88.6004 73.0108C89.1007 73.9619 89.0391 75.1106 88.4405 76.003ZM90.4191 69.2879C90.2138 69.0893 89.9963 68.9037 89.7679 68.7324L70.6479 56.4169C70.56 56.3743 70.4686 56.339 70.3751 56.3109L64.6874 52.6936C64.0814 52.3082 63.3115 52.2899 62.688 52.6465C59.9079 54.0895 56.7521 54.645 53.6464 54.2381C52.9218 54.1524 52.3425 53.5956 52.2285 52.8749C52.0858 52.1202 52.4538 51.361 53.1348 51.0057C54.5828 50.2515 55.9433 49.3405 57.1921 48.289C57.326 48.1762 57.4359 48.0375 57.5149 47.8812C57.5761 47.8048 57.6443 47.7348 57.7188 47.6716C58.2852 47.1863 60.6209 45.7157 66.9814 46.8918L74.6431 50.1543C75.0423 50.3278 75.489 50.3584 75.908 50.2411L82.7409 48.3778L94.1786 65.5295L90.4191 69.2879ZM101.141 69.0004L83.8111 43.0119L87.4694 40.2143L104.89 66.8587L101.141 69.0004ZM112.133 62.7208L108.253 64.9375L90.5486 37.8597L112.133 21.3541V62.7208Z"/>
</mask>
<path d="M114.924 15.7093C114.264 15.384 113.477 15.4608 112.892 15.9076L81.4624 39.94C79.9136 41.1355 79.5003 43.2985 80.4988 44.981L75.5396 46.3329L68.3027 43.2516C68.1765 43.1975 68.0449 43.1569 67.9101 43.1309C60.9673 41.8043 57.3677 43.0837 55.5078 44.509H35.7493C36.4267 42.8871 35.9287 41.0123 34.5358 39.94L3.10776 15.9073C2.52368 15.4601 1.73638 15.3831 1.07685 15.7089C0.417102 16.0347 -0.000226459 16.7066 1.03489e-07 17.4423V63.8423C-0.000226459 64.5363 0.371563 65.177 0.974219 65.5207L12.9406 72.3572C13.5222 72.6907 14.181 72.8658 14.8512 72.8651C15.8347 72.8624 16.7804 72.4863 17.497 71.813L19.7397 73.6049C18.4349 75.271 18.1499 77.5192 18.9975 79.4583C19.8453 81.3975 21.6891 82.7149 23.7984 82.8885C23.9626 82.9037 24.1251 82.9093 24.2873 82.9093C24.5845 82.9066 24.8813 82.881 25.1747 82.8325C25.2955 84.2125 25.8401 85.5214 26.7341 86.5796L26.7362 86.5817C27.8932 87.9547 29.5512 88.8079 31.3411 88.9511C31.5318 88.9681 31.7224 88.9755 31.9131 88.9755C31.9424 88.9755 31.9705 88.9685 31.9995 88.9681C32.0534 90.2248 32.5215 91.4283 33.331 92.391C34.4321 93.6889 36.0488 94.4364 37.7507 94.4339C38.4273 94.4328 39.0981 94.3111 39.7318 94.0748C40.3771 96.3805 42.3928 98.0387 44.7799 98.227C44.9441 98.2422 45.1066 98.2478 45.2688 98.2478C46.5989 98.2558 47.889 97.7915 48.909 96.9376L51.9408 94.5952L59.0798 99.3657C60.1847 100.1 61.482 100.491 62.8086 100.491C63.2637 100.491 63.7178 100.446 64.1641 100.357C67.0725 99.7776 69.2595 97.3638 69.5504 94.4128C71.4855 95.0032 73.5841 94.6831 75.255 93.5424C76.9259 92.4016 77.9885 90.5637 78.1434 88.5464C80.3828 89.2864 82.846 88.8002 84.636 87.2645C86.4261 85.7289 87.2814 83.3683 86.8908 81.0427C88.8281 80.8211 90.5709 79.7617 91.6595 78.144C92.7386 76.5176 93.0646 74.5045 92.5535 72.6207L96.3659 68.8097L97.9221 71.1433C99.0506 72.8334 101.294 73.3634 103.059 72.3572L115.026 65.5207C115.628 65.1767 116 64.536 116 63.8423V17.4423C116 16.7071 115.583 16.0353 114.924 15.7093ZM3.86674 62.7208V21.3544L25.4516 37.8594L7.74708 64.9377L3.86674 62.7208ZM14.8586 69.0004L11.1097 66.8587L28.5308 40.2143L32.1871 43.0099L14.8586 69.0004ZM25.4958 78.5954C25.1169 78.9261 24.6181 79.0854 24.1176 79.0353C23.3708 78.9724 22.7315 78.4751 22.4863 77.7668C22.2412 77.0586 22.4367 76.2726 22.9848 75.7615L27.8201 72.0232C28.1601 71.7335 28.5929 71.5746 29.0396 71.5758C29.0924 71.5758 29.1452 71.5776 29.1982 71.5814C29.9452 71.6447 30.585 72.1424 30.8299 72.8509C31.0751 73.5596 30.8793 74.346 30.3311 74.8571L25.4958 78.5954ZM31.6603 85.0977C30.5064 85.0023 29.5195 84.23 29.1498 83.1327C28.78 82.0355 29.0981 80.8234 29.9593 80.0492L36.0481 75.3406C36.9433 74.582 38.207 74.4377 39.2504 74.9744C40.2935 75.5114 40.9106 76.6238 40.8136 77.7931C40.7586 78.5088 40.436 79.1776 39.9101 79.6665L38.2533 80.9593L33.7732 84.4219C33.188 84.9214 32.4268 85.165 31.6603 85.0977ZM41.5346 88.094L41.5303 88.0985L38.9499 90.1122C38.5673 90.4371 38.0713 90.5964 37.5711 90.5549C37.0708 90.5135 36.6077 90.2747 36.284 89.8913C35.9575 89.5098 35.7985 89.0132 35.8422 88.5131C35.8753 88.038 36.0912 87.594 36.4444 87.2745L40.9639 83.7472L42.2972 82.7168C42.3119 82.7043 42.3219 82.6884 42.3366 82.6758L43.7019 81.6105C44.0413 81.3202 44.4731 81.1607 44.9196 81.1612C44.9733 81.1609 45.0268 81.1634 45.08 81.1687C45.8284 81.2319 46.4686 81.7308 46.7127 82.441C46.9567 83.1511 46.7584 83.9384 46.2072 84.4481L41.6848 87.9778L41.5346 88.094ZM51.3126 90.1954L46.4773 93.9336C46.0998 94.2669 45.5998 94.4264 45.0991 94.3736C44.3528 94.3106 43.7136 93.8138 43.4685 93.1062C43.2231 92.3987 43.4178 91.613 43.9649 91.1016L44.0533 91.0327L48.8016 87.3617C49.5873 86.6984 50.7586 86.7833 51.4406 87.5527C52.1223 88.3221 52.0656 89.4953 51.3126 90.1954ZM88.4405 76.003C87.5558 77.3128 85.7892 77.681 84.4548 76.8338L84.4396 76.8243L71.7426 68.0489C71.1746 67.654 70.4392 67.5928 69.8137 67.8885C69.1883 68.1839 68.7685 68.7913 68.713 69.4808C68.6575 70.1702 68.9747 70.8367 69.5447 71.2285L81.8314 79.7223L81.8375 79.7284C82.8118 80.375 83.2998 81.5454 83.073 82.6925C82.8462 83.8396 81.9499 84.7366 80.8028 84.9638C80.0597 85.1183 79.2858 84.9701 78.6523 84.5521L65.946 75.7842C65.0669 75.1795 63.8643 75.4008 63.2583 76.2788C62.6522 77.1567 62.8713 78.3597 63.7483 78.9674L73.0286 85.37L73.0317 85.3734C74.3719 86.3146 74.7389 88.1413 73.8662 89.527C72.9948 90.8479 71.2233 91.2224 69.8918 90.3671L66.4723 87.9404L66.4707 87.9392H66.4703L62.9855 85.4659C62.4223 85.0658 61.6884 84.9967 61.0604 85.2846C60.4324 85.5723 60.0055 86.1734 59.9407 86.861C59.8759 87.5487 60.1829 88.2188 60.7462 88.6189L64.3308 91.1621C64.5037 91.3019 64.6677 91.4519 64.8225 91.6114C65.9161 92.6483 66.0359 94.3489 65.0987 95.5289C64.1614 96.7088 62.4776 96.9768 61.2201 96.1462L54.8521 91.8905C55.9331 90.2214 56.0701 88.111 55.2144 86.3162C54.3587 84.5213 52.633 83.299 50.6558 83.0879C50.7004 80.0782 48.3994 77.5514 45.3986 77.3153C45.1505 77.3006 44.9015 77.3026 44.6537 77.3214C44.5918 74.9416 43.2746 72.7725 41.1918 71.62C39.109 70.4674 36.5715 70.5035 34.5222 71.7149C33.9436 69.8965 32.5004 68.4834 30.67 67.9435C28.8398 67.4034 26.8608 67.8065 25.3875 69.0195L22.7471 71.0599L19.7361 68.654L33.256 48.3758H50.226C48.7583 49.664 48.0734 51.6274 48.4214 53.5489C48.8258 55.8811 50.6752 57.6941 53.0149 58.0518C56.5912 58.5579 60.2375 58.0326 63.5256 56.5377L68.4552 59.6738C68.5655 59.7372 68.6822 59.7895 68.803 59.8301L87.6507 71.9686C88.0229 72.2247 88.3358 72.5575 88.5683 72.9447C88.5778 72.9673 88.5891 72.9882 88.6004 73.0108C89.1007 73.9619 89.0391 75.1106 88.4405 76.003ZM90.4191 69.2879C90.2138 69.0893 89.9963 68.9037 89.7679 68.7324L70.6479 56.4169C70.56 56.3743 70.4686 56.339 70.3751 56.3109L64.6874 52.6936C64.0814 52.3082 63.3115 52.2899 62.688 52.6465C59.9079 54.0895 56.7521 54.645 53.6464 54.2381C52.9218 54.1524 52.3425 53.5956 52.2285 52.8749C52.0858 52.1202 52.4538 51.361 53.1348 51.0057C54.5828 50.2515 55.9433 49.3405 57.1921 48.289C57.326 48.1762 57.4359 48.0375 57.5149 47.8812C57.5761 47.8048 57.6443 47.7348 57.7188 47.6716C58.2852 47.1863 60.6209 45.7157 66.9814 46.8918L74.6431 50.1543C75.0423 50.3278 75.489 50.3584 75.908 50.2411L82.7409 48.3778L94.1786 65.5295L90.4191 69.2879ZM101.141 69.0004L83.8111 43.0119L87.4694 40.2143L104.89 66.8587L101.141 69.0004ZM112.133 62.7208L108.253 64.9375L90.5486 37.8597L112.133 21.3541V62.7208Z" fill="#66BD36" stroke="white" stroke-width="0.8" mask="url(#path-1-inside-1)"/>
</g>
<defs>
<clipPath id="clip0">
<rect width="116" height="116" fill="white"/>
</clipPath>
</defs>
</svg>
