<svg width="89" height="89" viewBox="0 0 89 89" fill="none" xmlns="http://www.w3.org/2000/svg">
<path d="M89 52.8438C89 50.6151 88.1136 48.5384 86.5859 47.0068C88.3177 45.1119 89.2003 42.5716 88.9592 39.9277C88.5253 35.2143 84.2792 31.5208 79.2879 31.5208H56.3815C57.5162 28.0757 59.3333 21.7605 59.3333 16.6875C59.3333 8.64415 52.4989 1.85425 48.2083 1.85425C44.359 1.85425 41.6037 4.02362 41.4888 4.11262C41.0474 4.46497 40.7915 4.99897 40.7915 5.56252V18.1374L30.1079 41.2738L29.6666 41.4999V40.7916C29.6666 39.7681 28.8358 38.9374 27.8123 38.9374H9.27078C4.1571 38.9375 0 43.0946 0 48.2083V77.875C0 82.9889 4.1571 87.1458 9.27078 87.1458H20.3958C24.4044 87.1458 27.8309 84.5871 29.1214 81.0159C32.2069 82.6032 36.3601 83.4375 38.9375 83.4375H72.9763C77.0147 83.4375 80.5488 80.7156 81.3794 76.9628C81.8058 75.027 81.5574 73.0802 80.7119 71.3892C83.4486 70.0133 85.2917 67.1839 85.2917 63.9688C85.2917 62.656 84.9913 61.3989 84.424 60.2642C87.1607 58.8847 89 56.0589 89 52.8438ZM81.1791 57.4198C80.4635 57.5052 79.8589 57.9908 79.6291 58.6769C79.4029 59.363 79.5921 60.1157 80.1186 60.6127C81.0606 61.499 81.5835 62.6931 81.5835 63.9688C81.5835 66.3087 79.8146 68.2742 77.4747 68.5448C76.759 68.6302 76.1544 69.1158 75.9246 69.8019C75.6985 70.488 75.8876 71.2407 76.4141 71.7377C77.6342 72.8872 78.1237 74.5003 77.7566 76.1618C77.3005 78.231 75.2905 79.7293 72.9765 79.7293H38.9375C35.9263 79.7293 30.8755 78.3164 29.1252 76.5623C28.5949 76.0358 27.7939 75.88 27.1042 76.1618C26.4108 76.4474 25.9583 77.126 25.9583 77.875C25.9583 80.9419 23.4626 83.4375 20.3958 83.4375H9.27078C6.20393 83.4375 3.70828 80.9419 3.70828 77.875V48.2083C3.70828 45.1415 6.20393 42.6458 9.27078 42.6458H25.9583V44.5C25.9583 45.1416 26.292 45.7386 26.8408 46.0798C27.3823 46.4061 28.0646 46.4394 28.6431 46.1577L32.3513 44.3034C32.7259 44.118 33.0263 43.8065 33.2043 43.4246L44.3293 19.3203C44.4406 19.0756 44.4998 18.8086 44.4998 18.5416V6.56742C45.2713 6.14102 46.6101 5.56252 48.2083 5.56252C50.2405 5.56252 55.625 10.6133 55.625 16.6875C55.625 23.2143 52.0725 32.6222 52.0391 32.715C51.8241 33.2824 51.8981 33.924 52.243 34.4283C52.5915 34.9289 53.1627 35.2293 53.7708 35.2293H79.2879C82.3806 35.2293 85.0061 37.4431 85.2656 40.2689C85.4622 42.3826 84.4461 44.3926 82.6254 45.5162C82.058 45.8648 81.7206 46.4952 81.7465 47.1664C81.7724 47.8375 82.1581 48.4383 82.7514 48.7461C84.32 49.5435 85.2915 51.1158 85.2915 52.8438C85.2917 55.1837 83.5229 57.1492 81.1791 57.4198Z" fill="#66BD36"/>
<path d="M27.8132 42.6458C26.7897 42.6458 25.959 43.4765 25.959 44.5V77.875C25.959 78.8985 26.7897 79.7292 27.8132 79.7292C28.8367 79.7292 29.6674 78.8985 29.6674 77.875V44.5C29.6674 43.4765 28.8367 42.6458 27.8132 42.6458Z" fill="#66BD36"/>
</svg>
