<svg width="93" height="93" viewBox="0 0 93 93" fill="none" xmlns="http://www.w3.org/2000/svg">
<path d="M86.7984 1.5498H6.20157C2.78219 1.5498 0 4.33218 0 7.75138V58.8997C0 59.7553 0.694412 60.4497 1.54994 60.4497H91.4499C92.3054 60.4497 92.9998 59.7553 92.9998 58.8997V7.75138C93 4.33218 90.2178 1.5498 86.7984 1.5498ZM89.8999 57.3498H3.10006V7.75138C3.10006 6.04014 4.49197 4.64987 6.20157 4.64987H86.7984C88.508 4.64987 89.8999 6.04014 89.8999 7.75138V57.3498Z" fill="#66BD36"/>
<path d="M91.4501 57.3499H1.54994C0.694412 57.3499 0 58.0443 0 58.8998V66.6482C0 70.0676 2.78219 72.8498 6.20157 72.8498H86.7984C90.2178 72.8498 93 70.0676 93 66.6482V58.8998C93 58.0443 92.3056 57.3499 91.4501 57.3499ZM89.8999 66.6484C89.8999 68.3596 88.508 69.7499 86.7984 69.7499H6.20157C4.49197 69.7499 3.10006 68.3596 3.10006 66.6484V60.4499H89.9001V66.6484H89.8999Z" fill="#66BD36"/>
<path d="M51.1502 63.55H41.8502C40.9947 63.55 40.3003 64.2445 40.3003 65.1C40.3003 65.9555 40.9947 66.6499 41.8502 66.6499H51.1502C52.0058 66.6499 52.7002 65.9555 52.7002 65.1C52.7002 64.2445 52.0058 63.55 51.1502 63.55Z" fill="#66BD36"/>
<path d="M85.249 7.75H7.74916C6.89363 7.75 6.19922 8.44441 6.19922 9.29994V58.9C6.19922 59.7555 6.89363 60.4499 7.74916 60.4499H85.2492C86.1048 60.4499 86.7992 59.7555 86.7992 58.9V9.29994C86.7992 8.44441 86.1047 7.75 85.249 7.75ZM83.6991 57.3499H9.2991V10.8499H83.6991V57.3499Z" fill="#66BD36"/>
<path d="M66.6506 82.1501H26.3507C23.787 82.1501 21.7007 84.2365 21.7007 86.8001C21.7007 89.3638 23.787 91.4501 26.3507 91.4501H66.6507C69.2144 91.4501 71.3007 89.3638 71.3007 86.8001C71.3007 84.2365 69.2142 82.1501 66.6506 82.1501ZM66.6506 88.3501H26.3507C25.4952 88.3501 24.8007 87.6542 24.8007 86.8001C24.8007 85.9461 25.4952 85.2502 26.3507 85.2502H66.6507C67.5063 85.2502 68.2007 85.9461 68.2007 86.8001C68.2007 87.6542 67.5063 88.3501 66.6506 88.3501Z" fill="#66BD36"/>
<path d="M63.5503 82.1501C58.4073 82.1501 55.8002 78.4999 55.8002 71.3002C55.8002 70.4447 55.1058 69.7502 54.2503 69.7502H38.7503C37.8948 69.7502 37.2004 70.4447 37.2004 71.3002C37.2004 78.4999 34.5933 82.1501 29.4503 82.1501C28.5948 82.1501 27.9004 82.8445 27.9004 83.7C27.9004 84.5556 28.5948 85.25 29.4503 85.25H63.5503C64.4058 85.25 65.1002 84.5556 65.1002 83.7C65.1002 82.8445 64.4058 82.1501 63.5503 82.1501ZM37.0002 82.1501C38.9084 80.036 40.032 76.8878 40.2583 72.8501H52.7436C52.9683 76.8878 54.0921 80.036 56.0016 82.1501H37.0002Z" fill="#66BD36"/>
<path d="M74.0647 47.2191L70.3231 43.4775L72.4047 41.3959C72.7907 41.0099 72.9456 40.4488 72.8123 39.9202C72.679 39.3917 72.2775 38.9732 71.7551 38.8151L56.2552 34.1651C55.7081 34.0008 55.1176 34.1512 54.7145 34.5542C54.31 34.9573 54.1612 35.5492 54.3255 36.0949L58.9755 51.5948C59.132 52.1187 59.552 52.5201 60.0806 52.6534C60.6075 52.7837 61.1702 52.6316 61.5562 52.2458L63.7479 50.0525L67.4895 53.7958C67.7794 54.0871 68.1746 54.2499 68.5853 54.2499C68.996 54.2499 69.3913 54.0871 69.6812 53.7958L74.0645 49.4108C74.6707 48.8048 74.6707 47.8253 74.0647 47.2191ZM68.5853 50.5083L65.1785 47.0998C64.7832 46.7045 64.2656 46.5076 63.7479 46.5076C63.2286 46.5076 62.7109 46.706 62.3173 47.0981L61.1982 48.2172L58.1214 37.9609L68.3777 41.0377L67.178 42.2374C66.8478 42.5691 66.6665 43.0094 66.6665 43.4775C66.6665 43.9472 66.8494 44.3904 67.1811 44.719L70.777 48.315L68.5853 50.5083Z" fill="#66BD36"/>
<path d="M65.0998 13.95H21.6998C20.8443 13.95 20.1499 14.6444 20.1499 15.4999V23.2499C20.1499 24.1055 20.8443 24.7999 21.6998 24.7999H65.0998C65.9553 24.7999 66.6497 24.1055 66.6497 23.2499V15.4999C66.6497 14.6444 65.9553 13.95 65.0998 13.95ZM63.5498 21.7H23.2498V17.05H63.5498V21.7Z" fill="#66BD36"/>
<path d="M40.2996 31H27.8996C27.044 31 26.3496 31.6944 26.3496 32.5499V38.7499C26.3496 39.6054 27.044 40.2998 27.8996 40.2998H40.2996C41.1551 40.2998 41.8496 39.6054 41.8496 38.7499V32.5499C41.8496 31.6944 41.1551 31 40.2996 31ZM38.7495 37.1999H29.4495V34.0999H38.7495V37.1999Z" fill="#66BD36"/>
<path d="M65.0998 13.95H21.6998C20.8443 13.95 20.1499 14.6444 20.1499 15.4999V44.9498C20.1499 45.8054 20.8443 46.4998 21.6998 46.4998H58.5992C59.0906 46.4998 59.5508 46.2689 59.8424 45.8751C60.1354 45.4815 60.2253 44.9731 60.0841 44.5034L58.1219 37.9608L64.6551 39.9216C65.1249 40.0628 65.6333 39.9729 66.0252 39.6799C66.4189 39.3885 66.6499 38.9266 66.6499 38.4367V15.4999C66.6497 14.6444 65.9553 13.95 65.0998 13.95ZM63.5499 36.3537L56.2539 34.1651C55.7068 34.0007 55.1163 34.1511 54.7132 34.5542C54.3087 34.9587 54.1599 35.5492 54.3241 36.0965L56.5158 43.4001H23.2498V17.05H63.5499V36.3537Z" fill="#66BD36"/>
</svg>
