<svg width="163" height="162" viewBox="0 0 163 162" fill="none" xmlns="http://www.w3.org/2000/svg">
<g opacity="0.25">
<path d="M155.621 60.3412C155.641 60.575 155.434 60.6667 155.322 60.7332C155.189 60.7998 155.054 60.8537 154.921 60.8969C154.655 60.9832 154.389 61.0426 154.124 61.0929C153.599 61.1883 153.081 61.2422 152.565 61.2692C151.533 61.3232 150.504 61.2818 149.403 61.1793C143.856 60.6145 138.132 60.1811 132.671 58.7243C131.711 58.4545 130.757 58.1541 129.811 57.7782C128.882 57.3969 127.984 57.0012 127.078 56.5804C125.405 55.7746 123.734 54.9311 122.261 53.6109C121.896 53.2764 121.547 52.8951 121.263 52.4185C121.123 52.1829 120.997 51.9149 120.93 51.6056C120.846 51.2135 120.864 50.7656 121.051 50.4473C121.241 50.1074 121.617 49.9401 122.051 49.8933C122.382 49.843 122.59 49.8466 122.846 49.8466C123.335 49.8466 123.804 49.8825 124.27 49.9239C127.972 50.3196 131.545 51.0876 135.123 51.9149C137.831 52.5678 140.211 53.2045 142.56 54.0714C144.835 54.9131 147.175 55.6289 149.856 56.4994C150.955 56.861 152.092 57.298 153.11 57.7962C154.121 58.307 155.051 58.834 155.594 59.602C155.838 59.8951 155.788 60.2764 155.739 60.3106C155.677 60.3789 155.547 60.2728 155.405 60.084C155.105 59.8304 154.757 59.6811 154.326 59.4994C152.455 58.7314 150.407 58.111 148.214 57.3825C146.15 56.7189 144.371 56.0606 142.308 55.3286C138.574 54.0012 134.644 53.1253 130.731 52.352C129.349 52.0876 127.961 51.8556 126.579 51.6343C125.732 51.503 124.883 51.3843 124.044 51.307C123.626 51.2728 123.205 51.2369 122.81 51.2405C122.63 51.2333 122.373 51.2513 122.297 51.2602C122.31 51.2548 122.286 51.2584 122.284 51.2638C122.281 51.2728 122.276 51.2764 122.281 51.2926C122.29 51.3592 122.351 51.5318 122.425 51.6613C122.569 51.9455 122.829 52.2332 123.099 52.5048C123.664 53.0462 124.346 53.5264 125.06 53.9617C126.27 54.6955 127.574 55.316 128.898 55.8933C130.236 56.4815 131.542 56.9473 132.948 57.3232C134.752 57.8448 138.644 58.6937 142.428 59.253C146.205 59.8412 149.851 60.1649 151.083 60.2386C151.946 60.298 152.68 60.3915 153.405 60.4833C153.768 60.53 154.13 60.575 154.504 60.6037C154.691 60.6163 154.883 60.6271 155.078 60.6163C155.252 60.5786 155.525 60.6487 155.621 60.3412Z" fill="#3F0F01"/>
<path d="M144.801 55.6292C144.646 53.773 144.869 52.2137 145.244 50.4277C145.74 48.1723 146.274 45.8899 146.731 43.586C147.396 41.3252 147.941 39.0392 148.794 36.8378C149.45 35.282 150.324 33.8288 151.351 32.4997C152.556 30.9062 154.001 29.4907 155.664 28.3612C156.488 27.7857 157.384 27.3019 158.35 26.9314C158.83 26.7443 159.339 26.6004 159.882 26.5231C160.161 26.4979 160.425 26.4475 160.735 26.4925C161.051 26.4997 161.28 26.5555 161.751 26.7533C162.166 27.0051 162.393 27.4763 162.339 27.9781C162.317 28.2677 162.27 28.3882 162.215 28.5537C162.166 28.7173 162.101 28.8558 162.038 28.9943C161.783 29.5447 161.488 30.0321 161.182 30.5051C160.574 31.4493 159.925 32.3378 159.283 33.2281C156.589 36.9493 154.456 39.7281 152.253 43.7389C151.377 45.318 150.425 47.0356 149.76 48.2335C149.503 48.6831 149.254 48.7335 149.269 48.2892C149.283 47.9529 149.285 47.5878 149.387 47.1939C149.798 45.4547 150.634 43.8324 151.596 42.1489C152.504 40.568 153.445 39.2982 154.449 37.7892C156.289 35.0015 158.387 32.3432 160.132 29.604C160.391 29.1813 160.637 28.7497 160.803 28.3468C160.853 28.2407 160.877 28.1526 160.905 28.0627C160.947 27.9529 160.94 27.9008 160.94 27.9349C160.938 27.9367 160.936 27.9367 160.936 27.9367C160.938 27.9385 160.947 27.9457 160.94 27.9457C160.902 27.9367 160.877 27.9152 160.833 27.9044C160.373 27.8037 159.702 27.9565 159.102 28.1436C158.483 28.3522 157.866 28.6346 157.281 28.9835C156.1 29.6652 155.01 30.5375 154.028 31.5159C152.373 33.167 151.049 35.1526 150.141 37.3108C149.798 37.9835 149.49 39.1831 149.033 40.5123C148.816 41.1831 148.58 41.9007 148.341 42.6399C148.093 43.3756 147.844 44.1327 147.675 44.9079C147.292 46.4457 146.918 47.9493 146.609 49.1921C146.308 50.4403 146.137 51.4421 146.019 51.9439C145.713 53.3522 145.28 54.309 144.801 55.6292Z" fill="#3F0F01"/>
<path d="M154.522 38.5716C154.853 38.0105 155.241 37.5536 155.698 37.1652C156.168 36.7893 156.669 36.4439 157.416 36.2821C157.65 36.2335 157.923 36.2065 158.225 36.2695C158.529 36.3288 158.871 36.5572 159.015 36.827C159.198 37.0932 159.259 37.4601 159.225 37.7335C159.191 37.9925 159.126 38.2155 159.056 38.4277C158.756 39.2461 158.365 39.9475 157.968 40.6526C157.166 42.0482 156.299 43.3774 155.369 44.6292C154.714 45.5105 154.038 46.3702 153.412 47.2605C152.644 48.3846 151.784 49.5716 151.347 50.6885L150.279 50.0212C151.29 49.0698 152.315 48.1849 153.47 47.3791C154.054 46.9871 154.641 46.5968 155.436 46.3522C155.635 46.2928 155.871 46.2551 156.135 46.2604C156.41 46.2748 156.752 46.3792 157.004 46.622C157.466 47.0914 157.508 47.7461 157.374 48.1903C157.051 49.2047 156.488 49.7371 155.995 50.3018C155.484 50.8414 154.966 51.3162 154.446 51.7802C153.4 52.6759 152.353 53.5752 151.155 54.6004C150.189 55.4367 149.065 56.2137 148.36 56.6705C148.069 56.8576 147.842 56.7838 147.934 56.4799C148.002 56.2479 148.083 56.0032 148.234 55.7658C148.907 54.7335 149.847 53.9439 150.835 53.0986C151.765 52.3072 152.637 51.7065 153.529 50.8971C154.337 50.1471 155.164 49.3737 155.738 48.55C156.027 48.1561 156.168 47.6777 156.085 47.613C156.07 47.604 156.065 47.586 156.063 47.5806C156.04 47.6148 156.162 47.4889 156.123 47.5284C156.121 47.532 156.126 47.5266 156.124 47.5302C156.106 47.559 156.096 47.5878 156.088 47.6148C156.103 47.6094 156.069 47.622 156.063 47.6148C155.981 47.6112 155.766 47.6615 155.561 47.7551C154.964 48.0194 154.333 48.4763 153.729 48.9241C152.873 49.5626 152.031 50.2802 151.25 51.0122L148.918 53.1957L150.031 50.2497C150.385 49.3144 150.855 48.6256 151.319 47.8954C152.241 46.4961 153.214 45.1687 154.182 43.8414C154.802 42.9763 156.178 41.1921 157.29 39.4151C157.56 38.9727 157.811 38.5231 157.986 38.1094C158.072 37.9062 158.135 37.6993 158.146 37.5716C158.168 37.4601 158.128 37.4385 158.09 37.3648C158.065 37.2964 157.797 37.2731 157.538 37.3468C157.283 37.4188 157.063 37.5159 156.919 37.5806C156.11 37.9799 155.414 38.1849 154.522 38.5716Z" fill="#3F0F01"/>
<path d="M138.767 13.9568C138.431 12.8669 138.434 11.9388 138.609 10.8849C139.083 8.22842 139.154 5.41188 140.234 2.7662C140.431 2.30217 140.664 1.84714 140.968 1.4011C141.276 0.96405 141.632 0.494625 142.263 0.185272C142.857 -0.129475 143.657 -0.00358391 144.127 0.268C144.684 0.539581 145.11 1.12771 145.252 1.66728C145.535 2.75901 145.36 3.68526 145.225 4.58814C144.9 6.3813 144.425 8.07553 144.04 9.79135C143.447 12.3921 143.031 14.3741 142.722 17.0287C142.6 18.1169 142.301 19.2824 142.029 19.9856C141.913 20.277 141.688 20.3327 141.574 20.0755C141.49 19.8813 141.396 19.6744 141.357 19.4352C141.198 18.3957 141.317 17.3489 141.463 16.2284C141.601 15.1762 141.839 14.2806 142.011 13.2374C142.332 11.3039 142.761 9.3885 143.177 7.49461L143.61 5.5072C143.788 4.70684 143.956 3.90109 144.004 3.14749C144.06 2.37951 143.941 1.72304 143.562 1.53059C143.103 1.28419 142.934 1.30936 142.515 1.67986C142.139 2.05396 141.83 2.66189 141.569 3.2644C141.209 4.05037 140.652 5.86151 140.279 7.65827C139.895 9.44963 139.643 11.1978 139.549 11.7896C139.42 12.6169 139.105 13.1798 138.767 13.9568Z" fill="#3F0F01"/>
<path d="M142.546 13.181C143.965 10.9112 145.485 8.91658 147.244 7.10903C148.131 6.21335 149.078 5.35722 150.202 4.64319C150.767 4.29068 151.375 3.96873 152.078 3.7691C152.769 3.58564 153.623 3.49933 154.4 3.92019C154.632 4.0317 154.927 4.26731 155.093 4.58745C155.276 4.8968 155.231 5.31767 155.149 5.58206C154.965 6.13242 154.681 6.49751 154.402 6.85183C153.836 7.55326 153.228 8.15218 152.625 8.76189C151.418 9.97232 150.217 11.1666 149.093 12.4292C146.848 14.9471 144.877 17.7475 143.69 20.868C143.098 22.4237 142.702 24.0478 142.539 25.6917C142.388 27.3518 142.321 29.0838 142.258 30.7708C142.147 34.1755 142.24 37.5442 142.336 40.9471C142.354 41.7816 142.357 42.6287 142.3 43.5064C142.262 43.9507 142.192 44.4093 142.055 44.8913C141.938 45.1395 141.881 45.3895 141.697 45.6305C141.623 45.7402 141.494 45.8805 141.364 46.0244C141.217 46.1503 141.051 46.2618 140.897 46.3805C140.6 46.537 140.215 46.4938 139.908 46.3374C139.76 46.2313 139.593 46.1413 139.463 46.0226C139.345 45.9129 139.276 45.8554 139.197 45.7726C138.888 45.4597 138.634 45.1431 138.381 44.8212C137.884 44.1791 137.435 43.5208 137.003 42.8554C136.141 41.5208 135.357 40.1521 134.613 38.7618C132.233 34.2295 130.224 29.5191 128.99 24.4885C128.427 21.9633 128.179 19.3482 128.399 16.7439C128.515 15.4453 128.74 14.1468 129.143 12.8824C129.346 12.2511 129.589 11.6252 129.924 11.0191L130.057 10.7907C130.113 10.6954 130.213 10.5623 130.289 10.4507C130.452 10.2259 130.64 10.0065 130.836 9.86801C131.03 9.70434 131.235 9.63239 131.447 9.59103C131.654 9.55865 131.915 9.64499 132.068 9.7565C132.167 9.86801 132.256 9.99392 132.345 10.1198C132.42 10.2673 132.476 10.4543 132.533 10.6288L132.649 11.2151L132.702 11.5946L132.85 12.9417L133.104 15.6C133.28 17.3644 133.496 19.118 133.794 20.8518C134.093 22.5856 134.476 24.3014 134.978 25.9741C135.111 26.3896 135.237 26.8086 135.386 27.2169L135.609 27.8302L135.791 28.3032C135.85 28.4417 135.916 28.591 135.981 28.6917L136.01 28.4129C136.053 27.8824 136.096 27.359 136.136 26.8428C136.199 26.0335 136.235 25.2313 136.265 24.4399C136.33 22.8536 136.301 21.3068 136.22 19.796C135.985 16.8176 135.622 13.7691 133.791 11.6828C131.938 9.41837 129.674 7.51369 127.476 5.20614C126.938 4.59823 126.373 4.00112 125.978 3.05507C125.864 2.84464 125.837 2.50292 125.809 2.20616C125.854 1.89141 125.913 1.48493 126.136 1.25291C126.237 1.12162 126.33 0.99033 126.458 0.873425C126.609 0.770905 126.782 0.63781 126.938 0.601841C127.267 0.477737 127.566 0.46516 127.83 0.477749C128.895 0.555088 129.672 0.97234 130.463 1.38601C131.239 1.81946 131.96 2.33025 132.652 2.895C134.918 4.74752 136.796 7.20794 137.987 9.72412C139.184 12.2439 139.652 14.7925 139.622 16.6701C139.584 18.2457 139.327 18.5694 139.204 17.3248C139.078 16.3788 138.879 15.4058 138.58 14.2925C137.918 11.8662 136.755 9.58205 135.204 7.51371C133.65 5.47414 131.701 3.52629 129.323 2.30507C128.773 2.03888 128.186 1.83205 127.71 1.81226C127.469 1.82126 127.354 1.85003 127.285 1.94356C127.255 2.0101 127.152 2.05327 127.174 2.12341C127.152 2.17737 127.125 2.24213 127.159 2.34105C127.212 2.70975 127.523 3.23313 127.893 3.67917C128.255 4.1378 128.672 4.58026 129.093 5.01911C130.809 6.76191 132.668 8.44176 134.44 10.4759C134.722 10.823 135.015 11.1432 135.283 11.5173C135.524 11.9202 135.83 12.3051 136.01 12.7295C136.413 13.5677 136.681 14.4382 136.906 15.3123C137.327 17.064 137.478 18.8338 137.566 20.5964C137.649 22.3608 137.62 24.1198 137.524 25.8752L137.442 27.1881L137.325 28.6198C137.253 29.4327 137.147 30.2133 137.055 31.0101L136.738 33.314L135.879 31.6521C135.602 31.109 135.319 30.6 135.053 29.9723C134.39 28.537 134.289 28.1324 134.014 27.3896C133.537 26.0083 133.165 24.6 132.85 23.1845C132.087 19.7619 131.74 16.2565 131.429 12.8374L131.296 11.6612L131.273 11.5029L131.274 11.5011L131.273 11.4975C131.271 11.4921 131.267 11.4957 131.264 11.4993L131.193 11.6216C131.138 11.7097 131.089 11.8068 131.041 11.9022C130.944 12.0946 130.85 12.2943 130.769 12.5011C130.431 13.3248 130.192 14.2133 130.024 15.1144C129.692 16.9238 129.638 18.7978 129.794 20.654C130.084 24.3752 131.341 27.9849 132.744 31.5191C133.78 34.0748 134.963 36.5748 136.3 38.9849C136.967 40.1899 137.674 41.3733 138.433 42.5064C138.814 43.073 139.208 43.6305 139.625 44.1449C139.832 44.4057 140.05 44.6467 140.264 44.8572C140.413 44.9921 140.341 44.9291 140.382 44.9615C140.399 44.9741 140.42 44.9777 140.433 44.9615C140.463 44.9399 140.442 44.9615 140.512 44.8625C140.6 44.796 140.623 44.6179 140.692 44.5046C140.783 44.2097 140.843 43.8698 140.875 43.5046C140.934 42.7708 140.934 41.9957 140.916 41.2133C140.868 38.9057 140.713 35.2618 140.877 31.0442C140.929 29.9885 140.963 28.8968 141.051 27.7816C141.129 26.6791 141.19 25.5101 141.417 24.3302C141.827 21.9795 142.717 19.6666 143.904 17.5856C146.262 13.377 149.715 10.1468 152.368 7.4993C153.015 6.83384 153.647 6.17736 154.005 5.56585L154.109 5.35004L154.156 5.18456C154.163 5.11802 154.152 5.05506 154.107 5.0029C154.042 4.91118 153.71 4.74752 153.456 4.71694C152.916 4.62162 152.35 4.76909 151.884 4.95614C151.413 5.14679 151.019 5.36263 150.711 5.55687C148.988 6.6486 147.665 7.90758 146.372 9.12341C145.091 10.3626 143.861 11.6324 142.546 13.181Z" fill="#3F0F01"/>
<path d="M99.1255 86.2708C99.2136 85.7402 99.5194 85.528 99.8917 85.5064C100.358 85.4741 100.872 85.4273 101.392 85.5981C101.924 85.7402 102.363 86.1071 102.629 86.528C102.777 86.8302 102.902 87.1449 103.001 87.4381C103.397 88.5496 103.379 89.6251 103.482 90.6881C103.507 91.4884 103.536 92.1053 103.521 92.9111C103.521 93.2438 103.316 93.5891 103.075 93.778C102.976 93.8571 102.755 93.8535 102.629 93.769C102.536 93.7024 102.429 93.6359 102.377 93.564C102.152 93.2492 102.176 92.9578 102.178 92.6377C102.174 92.3391 102.289 92.0819 102.25 91.7852C102.176 91.2366 102.176 90.6809 102.064 90.1557C102.034 89.9704 102 89.7852 101.992 89.5963C101.947 89.1521 101.924 88.6881 101.811 88.2798C101.737 87.9147 101.591 87.6125 101.447 87.3212C101.331 87.1665 101.124 86.7906 100.787 86.6683C100.465 86.5082 100.032 86.5568 99.8917 86.573C99.6885 86.5909 99.4726 86.4021 99.1255 86.2708Z" fill="#3F0F01"/>
<path d="M101.646 100.571C101.495 97.557 101.72 94.9455 102.604 91.9977C102.91 91.0697 103.236 90.1326 103.851 89.2495C104.162 88.825 104.586 88.3556 105.27 88.1794C105.621 88.1254 105.944 88.1182 106.284 88.2585C106.622 88.379 106.934 88.665 107.081 88.9599C107.407 89.5571 107.408 90.1128 107.417 90.6326C107.416 91.1578 107.353 91.6542 107.281 92.1488C107.131 93.1326 106.908 94.0822 106.673 95.0265C106.194 96.9114 105.64 98.7567 105.137 100.593C104.885 101.51 104.644 102.426 104.442 103.332C104.216 104.267 104.025 105.212 103.741 106.14C103.362 107.456 102.959 108.762 102.169 110.057C101.916 110.377 101.712 110.715 101.245 110.992C101.076 111.151 100.703 111.194 100.43 111.24C100.146 111.199 99.8508 111.188 99.6026 111.003C99.0613 110.676 98.9084 110.214 98.7447 109.845C98.6296 109.472 98.5379 109.107 98.4821 108.758C98.1026 106.179 98.0468 103.744 97.7393 101.271C97.4713 98.8088 97.0684 96.3736 96.5648 93.9419C95.5792 89.0714 94.2177 84.2909 93.1889 79.3556C93.0091 78.4078 92.8382 77.4959 92.8184 76.4977C92.8166 76.3808 92.813 76.2513 92.849 76.0175C92.8616 75.8089 92.9084 75.6182 92.9821 75.442C93.108 75.0823 93.3868 74.8341 93.7321 74.7298C94.0828 74.6686 94.4497 74.701 94.7824 74.9402C94.9479 75.0103 95.1314 75.1938 95.2537 75.2855C95.3544 75.3754 95.4317 75.4672 95.5199 75.5571C96.7735 77.0355 97.4191 78.6146 98.072 80.2046C99.2968 83.4006 100.108 86.7243 100.739 90.5481C101.264 93.6883 101.345 97.1578 101.211 99.2243C101.155 100.089 100.946 100.291 100.781 99.5984C100.655 99.0696 100.525 98.5157 100.421 97.8664C99.9947 95.0301 99.6854 92.1416 99.1116 89.0535C98.5595 86.1704 98.0253 83.6524 96.9875 80.9222C96.4983 79.6668 95.9371 78.4312 95.2357 77.3341C95.0576 77.0643 94.8742 76.7963 94.6746 76.5697C94.5793 76.4474 94.4731 76.3502 94.3724 76.2495C94.3059 76.1902 94.322 76.2082 94.2806 76.183C94.2303 76.1506 94.1548 76.1686 94.144 76.2351C94.1368 76.2639 94.1368 76.2909 94.1368 76.3179C94.1404 76.361 94.1332 76.5823 94.144 76.7172C94.3886 79.2945 95.1728 82.0031 95.8113 84.6488C96.2861 86.5229 96.7735 88.4042 97.2051 90.2981C98.2969 94.9347 99.0936 99.7171 99.43 104.482C99.5145 105.48 99.5828 106.485 99.689 107.456C99.7429 107.942 99.8094 108.419 99.9011 108.868C99.9947 109.285 100.164 109.733 100.286 109.805C100.394 109.856 100.455 109.884 100.705 109.672C100.946 109.406 101.171 109.016 101.374 108.607C101.754 107.751 102.077 106.832 102.333 105.881C102.723 104.678 103.077 102.676 103.768 100.386C104.426 98.1146 105.304 95.5732 105.899 93.0678C106.043 92.4437 106.167 91.8197 106.236 91.2171C106.297 90.629 106.317 90.0067 106.164 89.6128C106.086 89.4186 106.004 89.3305 105.883 89.2801C105.748 89.2261 105.556 89.2099 105.416 89.2729C105.095 89.3682 104.766 89.7783 104.525 90.174C103.576 91.8916 103.281 93.611 103.074 94.4006C102.577 96.6973 102.117 98.334 101.646 100.571Z" fill="#3F0F01"/>
<path d="M138.804 62.7281C138.94 61.9673 139.142 61.2155 139.354 60.4709C139.455 60.1705 139.602 59.8845 139.775 59.6184C139.829 59.5356 139.993 59.5068 140.097 59.5194C140.142 59.5266 140.171 59.6885 140.203 59.7784C140.21 59.8 140.199 59.8306 140.194 59.8558C140.072 60.5734 140.048 61.3126 139.903 62.0212C139.744 62.7856 139.653 63.5662 139.514 64.3342C139.419 65.1111 139.316 65.8863 139.165 66.6597C139.025 67.5338 139.016 68.4313 138.955 69.318C138.896 70.0752 138.971 70.836 138.946 71.5914C138.942 71.9295 138.897 72.2748 138.818 72.6039C138.678 73.1237 138.723 73.6435 138.753 74.1705C138.807 74.9834 138.834 75.8 138.859 76.6147C138.861 76.6975 138.786 76.8323 138.721 76.8557C138.654 76.8773 138.518 76.818 138.482 76.7478C138.379 76.5446 138.268 76.327 138.235 76.0985C138.113 75.2029 138.016 74.3 137.917 73.3971C137.86 72.8378 137.886 72.2748 137.845 71.7155C137.806 71.0878 137.789 70.4583 137.791 69.8306C137.822 69.2047 137.89 68.577 137.964 67.9511C138.072 66.8342 138.221 65.7191 138.378 64.6076C138.46 63.9709 138.622 63.345 138.741 62.7137L138.804 62.7281Z" fill="#3F0F01"/>
<path d="M143.036 76.3412C143.018 76.1308 142.985 75.9204 142.989 75.7063C142.989 75.62 143.048 75.5229 143.122 75.4312C143.143 75.4024 143.287 75.3592 143.388 75.3394C143.431 75.3304 143.514 75.361 143.575 75.3754C143.589 75.3772 143.589 75.3862 143.593 75.3934C143.708 75.5822 143.888 75.7621 143.929 75.9635C144.019 76.3934 144.149 76.8179 144.109 77.2675C144.088 77.5211 144.156 77.7639 144.194 78.0103C144.228 78.2189 144.289 78.4258 144.311 78.6362C144.32 78.7315 144.291 78.8322 144.226 78.933C144.124 79.093 144.134 79.2369 144.154 79.3826C144.187 79.6074 144.19 79.8376 144.192 80.0661C144.192 80.0876 144.113 80.1344 144.048 80.147C143.982 80.1614 143.847 80.1596 143.814 80.1434C143.717 80.0966 143.613 80.0481 143.589 79.9887C143.491 79.7513 143.42 79.5103 143.347 79.2675C143.302 79.12 143.282 78.9671 143.224 78.8196C143.097 78.4905 143.053 78.1506 143.073 77.7999C143.091 77.4887 143.03 77.1847 143.005 76.8772C142.992 76.7045 142.981 76.5265 142.971 76.352L143.036 76.3412Z" fill="#3F0F01"/>
<path d="M160.895 45.4744C160.897 44.0841 160.889 42.6903 160.922 41.3C160.934 40.7334 161.006 40.1633 161.089 39.6183C161.116 39.4529 161.263 39.3054 161.366 39.264C161.411 39.246 161.488 39.514 161.546 39.6579C161.56 39.6921 161.558 39.7514 161.562 39.7982C161.654 41.1327 161.805 42.4655 161.821 43.8036C161.866 46.6849 161.95 49.5662 161.864 52.4528C161.817 54.0787 161.88 55.7172 161.904 57.3503L161.986 61.5266C161.99 62.1453 161.956 62.7784 161.886 63.3809C161.783 64.3287 161.821 65.2748 161.853 66.237L161.965 70.6956C161.967 70.8449 161.891 71.0859 161.826 71.1183C161.76 71.1525 161.621 71.0283 161.587 70.9006C161.483 70.5211 161.371 70.1165 161.339 69.7028C161.231 68.0625 161.123 66.4312 161.015 64.7981C160.94 63.7874 160.94 62.7765 160.888 61.7694C160.778 59.5122 160.754 57.2568 160.792 54.9942C160.798 52.9672 160.801 50.9528 160.807 48.9349L160.828 45.4744H160.895Z" fill="#3F0F01"/>
<path d="M161.538 76.2748C161.506 75.8575 161.457 75.442 161.445 75.023C161.439 74.8521 161.493 74.6758 161.56 74.5032C161.58 74.451 161.722 74.3917 161.824 74.3683C161.867 74.3575 161.952 74.4312 162.015 74.4672C162.029 74.4762 162.029 74.4942 162.035 74.5068C162.168 74.8971 162.36 75.2784 162.416 75.6758C162.54 76.5338 162.702 77.3863 162.693 78.2604C162.689 78.7514 162.777 79.237 162.833 79.7244C162.882 80.1399 162.959 80.5535 162.995 80.969C163.013 81.1542 162.99 81.3485 162.932 81.5355C162.84 81.8323 162.862 82.1165 162.893 82.4042C162.939 82.8485 162.961 83.2981 162.979 83.746C162.981 83.7891 162.903 83.8683 162.839 83.8845C162.772 83.9006 162.635 83.8737 162.601 83.8395C162.5 83.7316 162.389 83.6201 162.36 83.4978C162.245 83.0176 162.157 82.5337 162.065 82.0499C162.008 81.7514 161.977 81.4492 161.907 81.1542C161.754 80.487 161.687 79.8143 161.682 79.1309C161.677 78.5247 161.592 77.9222 161.545 77.3179L161.473 76.2802L161.538 76.2748Z" fill="#3F0F01"/>
<path d="M41.4712 155.126C42.4856 155.786 43.1151 156.43 43.7698 157.266C44.5971 158.305 45.714 159.172 46.8705 159.536C47.4496 159.705 48.0107 159.721 48.5269 159.615C48.7931 159.53 49 159.456 49.3057 159.329L50.25 158.895L52.9838 157.701C53.8741 157.34 54.8273 156.942 55.9873 156.937L56.8363 157.054C57.1151 157.102 57.3579 157.232 57.6168 157.322C57.8992 157.428 58.0899 157.516 58.2643 157.6C58.4514 157.681 58.6456 157.753 58.8398 157.822C60.4064 158.349 62.1888 158.295 63.5054 157.437C64.5054 156.804 65.1511 155.856 65.5809 154.876C65.9658 153.874 66.1276 152.773 65.9172 151.527C65.7733 150.512 65.5881 149.358 65.5179 148.593C65.4928 148.287 65.687 148.081 65.9568 148.228C66.16 148.345 66.374 148.48 66.5431 148.685C67.2553 149.586 67.579 150.742 67.6636 152.01C67.7391 153.208 67.4891 154.262 67.0773 155.395C66.678 156.444 66.0719 157.408 65.2194 158.21C64.3686 159.005 63.2572 159.539 62.1115 159.771C61.3039 159.929 60.4748 159.949 59.6798 159.822C59.187 159.751 58.7104 159.618 58.2427 159.465C58.0125 159.376 57.7805 159.296 57.5557 159.19L57.2194 159.03L56.9657 158.931C56.3309 158.602 55.723 158.618 54.9856 158.807C53.75 159.149 52.4046 159.89 51.0521 160.487C50.5845 160.674 50.0017 161.023 48.9028 161.293C47.8327 161.492 46.6115 161.201 45.6744 160.667C43.7698 159.59 42.6403 157.985 42.2464 157.476C41.7158 156.733 41.6025 156.014 41.4712 155.126Z" fill="#3F0F01"/>
<path d="M52.1237 136.769C54.0122 138.748 55.4852 140.487 57.2442 142.476C58.3683 143.717 59.6093 144.882 61.0014 145.785C62.3719 146.699 63.9384 147.348 65.451 147.33C66.9671 147.312 68.3071 146.514 69.3539 145.346C70.4222 144.145 71.2226 142.775 71.3988 141.321C71.6938 139.266 70.6183 137.14 69.1165 135.429C68.3305 134.539 67.442 133.715 66.4942 132.953C66.0211 132.573 65.5355 132.203 65.0373 131.846L64.2801 131.314L63.8916 131.044C63.7711 130.958 63.638 130.873 63.3773 130.665C63.2442 130.539 63.192 130.348 63.0715 130.212C62.9797 130.055 62.978 129.859 62.9276 129.685C62.8934 129.305 62.933 129.043 62.9726 128.83C63.0517 128.368 63.1561 127.987 63.2406 127.593C63.4151 126.823 63.5391 126.087 63.4816 125.417C63.415 124.082 62.3593 123.165 60.9312 122.762C59.5409 122.368 57.8772 122.276 56.2585 122.096C54.6291 121.931 52.9762 121.717 51.3413 121.345C47.9079 120.577 44.9366 119.174 42.5661 117.034C40.219 114.89 38.3701 112.152 37.1705 108.769C36.6453 107.393 36.3881 105.873 36.0895 104.514C35.9654 103.124 35.9007 101.859 35.8989 100.915C35.8989 100.125 36.1453 99.9275 36.4042 100.534C36.6003 100.996 36.8143 101.476 36.9726 102.046C37.1471 102.668 37.3 103.294 37.4403 103.927C37.5823 104.561 37.8288 105.168 38.0014 105.803C38.1831 106.435 38.3683 107.073 38.5554 107.722C38.8144 108.341 39.0769 108.969 39.3449 109.609C39.773 110.85 40.4978 111.825 41.0554 112.9C41.3737 113.411 41.7856 113.854 42.1561 114.341C42.3486 114.58 42.541 114.82 42.737 115.064C42.9709 115.271 43.2064 115.48 43.4474 115.692C43.9097 116.062 44.3018 116.521 44.8179 116.82L46.3107 117.784C47.3791 118.302 48.4438 118.825 49.5967 119.158C51.8773 119.882 54.2801 120.204 56.7351 120.424L59.3719 120.677C59.8305 120.748 60.2819 120.803 60.7441 120.891C61.2226 121.037 61.719 121.116 62.1758 121.338C62.9725 121.667 63.7694 122.201 64.3773 122.969C64.9888 123.76 65.2279 124.775 65.2333 125.659C65.2441 126.555 65.0697 127.379 64.8971 128.131C64.8107 128.51 64.7208 128.87 64.6686 129.179C64.6273 129.559 64.6362 129.397 64.6488 129.462L66.0499 130.451C66.5733 130.828 67.0895 131.222 67.5949 131.631C69.0409 132.809 70.4186 134.125 71.5157 135.728C72.6021 137.303 73.4024 139.31 73.1794 141.39C73.1075 142.737 72.2837 144.742 70.7208 146.384C69.942 147.215 68.9366 148.048 67.674 148.501C66.4204 148.963 64.9762 148.99 63.7262 148.632C61.1974 147.918 59.2909 146.328 57.8539 145.005C56.4222 143.647 55.4402 142.449 54.9474 141.841C53.5877 140.125 52.9277 138.676 52.1237 136.769Z" fill="#3F0F01"/>
<path d="M34.4103 96.3231C36.101 99.3177 37.4894 102.39 38.9732 105.271C40.3041 108.208 42.2736 110.753 44.6243 112.751C46.9966 114.744 49.9175 116.03 53.0362 116.426C54.5866 116.663 56.1926 116.616 57.7772 116.366C59.3473 116.093 60.9516 115.622 62.2484 114.739C63.0721 114.194 63.6674 113.422 63.725 112.616C63.7987 111.805 63.2825 110.904 62.6153 110.197C61.93 109.463 61.0415 108.854 60.1531 108.208C59.7052 107.886 59.2466 107.55 58.7969 107.165C58.3563 106.778 57.8887 106.321 57.5973 105.638C57.4426 105.309 57.4102 104.859 57.4408 104.517C57.4786 104.19 57.5434 103.893 57.6189 103.611C57.77 103.048 57.9462 102.521 58.0991 102.005C58.4103 100.974 58.6513 99.9526 58.6621 98.9437C58.7412 96.9077 57.5973 95.0911 56.0002 93.7602C54.4355 92.3969 52.4157 91.6667 50.3096 91.3645C49.2538 91.2045 48.1728 91.1415 47.0667 91.0839C46.5128 91.0534 45.9516 91.0264 45.3689 90.9617C44.7826 90.8825 44.1747 90.8196 43.4984 90.4635C43.1675 90.2926 42.8095 89.9688 42.6261 89.5606C42.529 89.3645 42.4733 89.1469 42.4481 88.9527L42.4193 88.6613L42.4103 88.4653C42.3941 87.9455 42.3276 87.4257 42.2377 86.9149C42.0506 85.8987 41.7304 84.9023 41.1944 84.0876C40.1603 82.4059 38.1405 81.8627 36.1351 82.4077C36.0092 82.4221 35.3528 82.6163 34.9121 82.744L33.5703 83.1343L32.8977 83.3304C32.8527 83.3376 32.7629 83.3879 32.7539 83.3556L32.8042 83.1847L32.9013 82.8502L33.3168 81.5049C33.4463 81.0588 33.6639 80.575 33.8348 80.1092C33.9445 79.825 34.056 79.5768 34.1729 79.3142C34.3977 78.7908 34.6459 78.28 34.9013 77.7746C35.9175 75.7476 37.1153 73.825 38.4139 71.9797C41.0542 68.3196 44.1459 65.0067 47.5577 62.0894C54.4174 56.2962 62.3221 51.8592 70.7016 48.9348C74.6009 47.5589 78.6369 46.5858 82.653 45.7855C83.653 45.5822 84.6602 45.3916 85.626 45.1704C86.1206 45.0661 86.5757 44.9366 87.0217 44.8035C87.234 44.7333 87.3868 44.6452 87.5775 44.5751C87.7537 44.4653 87.9246 44.3286 88.1009 44.2099C88.7735 43.7045 89.2484 43.0427 89.2663 42.3287L89.2178 41.7945L89.0325 41.2711C88.921 41.111 88.8185 40.9492 88.7196 40.7819L88.5056 40.5715L88.3994 40.4654L88.3671 40.4258C88.4858 40.406 87.7771 40.361 87.3274 40.3754C86.8274 40.3772 86.3185 40.4078 85.8095 40.4366C84.7897 40.5139 83.7645 40.62 82.743 40.7693C80.7016 41.0589 78.6674 41.4582 76.6584 41.9564C66.5631 44.4779 57.0236 49.3214 49.2088 56.1973C45.3221 59.6524 41.8617 63.5822 38.9282 67.879C38.1926 68.9527 37.529 70.0732 36.824 71.1667L34.9211 74.575L33.2161 78.0912L31.3797 82.4203L30.3366 81.9689C29.9247 81.8376 29.8294 81.8178 29.6585 81.7854C29.3312 81.7279 28.9984 81.6865 28.6747 81.7081C28.0254 81.7261 27.4121 81.9113 26.8905 82.2728C26.3492 82.6307 25.9553 83.1163 25.556 83.7674C25.1423 84.3987 24.7718 85.057 24.369 85.7458C23.9787 86.4203 23.493 87.2225 22.6387 87.8106C22.1891 88.0228 21.7179 88.2638 21.2736 88.2944L20.5992 88.4041L19.9679 88.4059C19.056 88.4077 18.4895 88.3825 17.7557 88.5084C17.0578 88.6253 16.378 88.8609 15.7233 89.1415C14.4409 89.7548 13.2647 90.6595 12.5776 91.8412C11.8348 92.9976 11.7287 94.4131 12.0614 95.7458C12.2341 96.5282 12.4823 97.3573 12.4068 98.3106C12.3834 99.2638 11.8276 100.312 11.1064 100.875C9.69094 101.99 8.30602 102.548 7.02724 103.393C6.39055 103.803 5.77184 104.231 5.17832 104.694C4.5776 105.183 4.01648 105.615 3.59382 106.158C2.71613 107.249 2.17294 108.622 1.90495 110.052C1.63517 111.485 1.64239 112.987 1.88699 114.429C2.1334 115.834 2.65137 117.338 3.53806 118.141C3.75568 118.318 3.97332 118.427 4.17655 118.458C4.27727 118.48 4.37979 118.462 4.4859 118.453L4.65135 118.402L4.9571 118.316C5.87976 117.996 6.74668 118.062 7.58121 118.087C9.22509 118.231 10.7467 118.571 12.2593 118.778C13.7665 118.992 15.2628 119.098 16.6963 118.897C18.1279 118.704 19.4751 118.183 20.628 117.339C21.0416 116.974 21.4517 116.661 21.8599 116.248L23.0722 115.005C23.484 114.596 23.8564 114.172 24.2251 113.748C24.5848 113.32 24.9966 112.917 25.2952 112.467C26.6909 110.748 27.4301 108.841 27.6333 106.733C27.752 105.685 27.8006 104.616 27.8294 103.552C27.8905 102.481 27.9067 101.373 28.0434 100.302C28.1639 99.2242 28.3455 98.1577 28.6495 97.1127L29.1117 95.816L29.6927 94.7656C29.8905 94.4347 30.1045 94.2548 30.3168 93.9868L30.6621 93.6002L30.9445 93.3447L31.5722 95.2584L32.1549 97.1721C32.3545 97.8897 32.5542 98.6037 32.7539 99.3159C33.1352 100.746 33.4876 102.174 33.7951 103.609C34.4085 106.478 34.8923 109.359 35.0613 112.291C35.2106 115.183 34.9517 118.354 33.6082 121.061C32.3708 123.802 30.5326 126.114 28.7772 128.375C27.0362 130.636 25.2071 132.872 24.3186 135.42C24.1118 136.064 23.9445 136.677 23.8636 137.399C23.7826 138.096 23.6153 138.801 23.6279 139.496L23.5902 140.539C23.5776 140.89 23.6459 141.219 23.6675 141.559C23.6909 142.251 23.9085 142.87 24.1028 143.485C24.2503 143.758 24.3725 144.053 24.529 144.321C24.7341 144.55 24.9031 144.809 25.1171 145.026C25.3725 145.203 25.5794 145.433 25.8599 145.584L26.7808 146.064C27.5596 146.427 28.3617 146.971 28.9247 147.794C29.4427 148.616 29.7287 149.604 29.7035 150.478C29.7376 151.372 29.5956 152.201 29.4373 153.01C29.3869 153.244 29.3869 153.357 29.3689 153.489C29.3365 153.62 29.3581 153.757 29.3707 153.893C29.3887 154.161 29.4696 154.44 29.6009 154.708C30.1153 155.798 31.333 156.708 32.6226 157.042C33.5308 157.251 34.4229 157.213 35.207 156.778C36.2556 156.221 37.3096 155.663 38.3672 155.102L38.7861 155.037L39.0362 154.985C39.2052 154.953 39.3761 154.897 39.5452 154.855C39.8815 154.756 40.216 154.641 40.5416 154.505C41.1819 154.224 41.8131 153.904 42.3491 153.476C43.466 152.665 44.2664 151.524 44.7016 150.239C44.93 149.596 45.0307 148.915 45.1261 148.233C45.1369 147.535 45.1891 146.857 45.1045 146.111C45.002 144.649 44.8995 143.212 44.8006 141.81C44.6729 140.411 44.3563 139.082 44.1567 137.771C44.0308 137.122 43.9678 136.469 43.7951 135.852C43.6189 135.235 43.448 134.629 43.2772 134.035C42.9391 132.846 42.6135 131.708 42.3077 130.627C41.9228 129.566 41.5596 128.562 41.2196 127.623C39.8923 123.918 39.8095 122.96 41.1423 125.904C42.1495 128.156 43.3113 130.485 44.1962 133.417C45.6836 137.521 46.2484 141.94 46.6064 146.364C46.7053 147.481 46.6531 148.681 46.4283 149.843C46.1603 151.005 45.6801 152.14 44.9589 153.131C43.5272 155.1 41.0775 156.328 38.8977 156.706C37.8671 157.255 36.8275 157.807 35.7808 158.364C35.1315 158.695 34.4085 158.828 33.6999 158.859C32.9948 158.843 32.2952 158.737 31.6441 158.497C30.351 158.021 29.1567 157.201 28.3761 155.963C27.9876 155.355 27.6927 154.627 27.6801 153.839C27.6405 153.472 27.7413 153.012 27.7808 152.719L27.9463 151.832C28.1837 150.233 27.9715 148.757 26.7898 147.996C26.5326 147.771 26.1639 147.65 25.8528 147.465C25.4499 147.237 25.0146 147.068 24.6441 146.78C24.2862 146.476 23.8779 146.224 23.6099 145.828C23.3078 145.467 23.0129 145.104 22.8402 144.674C22.0308 143.026 21.851 141.231 21.9823 139.578C21.9787 138.731 22.1441 137.924 22.2539 137.105C22.3042 136.699 22.3725 136.289 22.4966 135.87C22.5992 135.453 22.7071 135.035 22.8762 134.647C24.1046 131.451 26.3222 128.987 28.279 126.424C30.2592 123.882 32.1909 121.194 33.0218 118.023C33.9265 114.44 33.3941 110.51 32.7754 106.746C32.439 104.852 32.0146 102.967 31.5434 101.095C31.306 100.159 31.0524 99.2242 30.788 98.2962L30.5344 97.4293L30.4481 97.1631C30.4373 97.1469 30.4355 97.0983 30.4193 97.1091L30.3725 97.1757C30.3491 97.2242 30.3204 97.2692 30.3024 97.3196C30.2844 97.3663 30.2592 97.4149 30.2484 97.4598L30.1405 97.8142C30.0236 98.3214 29.9139 98.8357 29.8168 99.3501L29.6135 100.929C29.4409 103.037 29.5002 105.271 29.1963 107.552C29.0758 108.122 28.993 108.699 28.8366 109.266C28.6279 109.821 28.4714 110.404 28.2089 110.933C27.9211 111.445 27.6675 111.99 27.3419 112.471L26.3222 113.868C25.5776 114.712 24.8527 115.591 24.065 116.366L22.9031 117.562C22.4733 117.951 22.02 118.357 21.5542 118.722C19.6046 120.136 17.119 120.775 14.8132 120.677C12.4895 120.649 10.2809 120.116 8.18555 119.846C7.14418 119.708 6.11181 119.681 5.34922 119.96C4.70893 120.257 3.66757 120.23 3.01109 119.823C2.32584 119.442 1.8816 118.902 1.53088 118.37C0.208942 116.188 -0.0680692 113.811 0.0128659 111.472C0.151355 109.116 0.834817 106.638 2.54165 104.739C2.96611 104.251 3.44992 103.863 3.88877 103.508C4.33301 103.131 4.81683 102.805 5.28625 102.462C6.24128 101.8 7.25208 101.222 8.21971 100.676C9.18733 100.138 10.11 99.5821 10.4535 98.9832C10.7683 98.3969 10.7071 97.4347 10.4175 96.4311C10.1064 95.2764 9.98946 93.8807 10.351 92.6235C10.6945 91.3537 11.4265 90.2332 12.3276 89.3609C13.7916 87.9401 15.6567 87.084 17.6333 86.7494C18.1351 86.6811 18.6405 86.6379 19.1585 86.6559H20.4157C21.1927 86.566 21.7449 86.4221 22.1567 85.9257C22.5938 85.4077 23.0254 84.5516 23.4912 83.7764L24.2341 82.5858C24.5039 82.1883 24.8348 81.7404 25.2304 81.3771C26.0038 80.6181 27.083 80.1056 28.1747 79.9959C28.7179 79.9347 29.261 79.9455 29.7808 80.0354C29.9121 80.0516 30.0398 80.0858 30.1675 80.111C30.2934 80.1326 30.4661 80.1847 30.4229 80.1721L30.4409 80.1793L30.4445 80.1739L30.6154 79.771L31.1603 78.4815C31.5074 77.6146 31.8995 76.7692 32.3222 75.9365C32.7376 75.102 33.1262 74.2513 33.5668 73.4293L34.93 70.9833C36.8275 67.7693 38.9427 64.6757 41.3384 61.8034C46.1549 56.0858 51.9588 51.2009 58.4336 47.4689C63.0577 44.8071 67.9858 42.6758 73.0991 41.156C75.653 40.3898 78.252 39.7693 80.885 39.3161C82.2016 39.0877 83.5271 38.9078 84.8671 38.7855C85.5343 38.7208 86.2088 38.6776 86.8904 38.6542C87.234 38.647 87.5738 38.6362 87.9317 38.6524C88.1044 38.6524 88.2897 38.6632 88.5001 38.6884C88.7753 38.7189 89.0685 38.8431 89.3419 38.9654L90.0541 39.674C90.2285 39.9276 90.3958 40.1902 90.5576 40.4528C90.6979 40.7298 90.7843 41.0427 90.8886 41.3394C90.9768 41.6434 90.9678 41.978 90.9983 42.2963C90.9929 43.6308 90.1998 44.7657 89.3077 45.4887L88.6044 45.9905C88.3706 46.156 88.0613 46.2549 87.7897 46.3826C87.261 46.5625 86.7465 46.7153 86.2519 46.8232C85.2501 47.0661 84.2771 47.2459 83.3023 47.4473C79.4084 48.2189 75.5865 49.1524 71.8545 50.4114C66.2412 52.2981 57.6297 56.0732 49.2915 62.8664C45.1729 66.2783 41.1729 70.4779 38.0524 75.4491C37.2628 76.6829 36.5668 77.9833 35.9139 79.3052L35.4571 80.3106L35.2448 80.8196L35.1639 81.0408C35.1585 81.0984 35.288 81.0156 35.3438 81.0084L35.4535 80.9743L35.761 80.9041C36.1567 80.8034 36.5596 80.7333 36.9841 80.7171L37.61 80.6685L38.252 80.7171C38.6801 80.7225 39.1063 80.8538 39.5308 80.9653C41.2502 81.4923 42.5164 82.9976 43.0901 84.5192C43.4103 85.2854 43.6099 86.075 43.7304 86.8681C43.8006 87.2656 43.8312 87.6631 43.8636 88.0624L43.8905 88.6487C43.8995 88.762 43.9139 88.8556 43.9444 88.9239C43.9948 89.1613 44.5955 89.4023 45.279 89.4868C45.9606 89.584 46.6999 89.6199 47.4427 89.6649C50.3941 89.7944 53.6099 90.2728 56.1261 92.0894C57.3365 93.0048 58.4426 94.0534 59.1675 95.4203C59.8977 96.7692 60.1386 98.3537 59.9714 99.7872C59.8113 101.222 59.3401 102.535 58.9858 103.719C58.9084 104.01 58.8204 104.307 58.7916 104.559C58.7574 104.704 58.77 104.8 58.7808 104.875C58.7646 104.96 58.8131 105.05 58.8437 105.14C58.9893 105.514 59.3941 105.92 59.8239 106.282C60.716 107.012 61.7484 107.661 62.6782 108.442C63.6045 109.206 64.5073 110.156 64.8868 111.402C65.1027 112.003 65.1027 112.713 64.957 113.341C64.7592 113.956 64.4498 114.516 64.0505 114.924C63.2682 115.776 62.3437 116.287 61.4642 116.688C59.6783 117.454 57.975 117.742 56.4948 117.852C55.0146 117.949 53.7322 117.897 52.7322 117.701C49.9246 117.273 47.3797 116.287 45.3527 114.775C44.797 114.465 44.3815 113.987 43.9067 113.597C43.466 113.168 42.9462 112.827 42.5883 112.332C41.8383 111.388 40.9876 110.541 40.4319 109.492L39.5128 107.987C39.1872 107.496 39.011 106.927 38.7538 106.4C38.2772 105.327 37.797 104.251 37.3527 103.158C36.4481 100.967 35.5182 98.6972 34.4103 96.3231Z" fill="#3F0F01"/>
<path d="M57.2156 112.924C56.1347 112.818 55.2965 112.473 54.4099 111.937C52.1796 110.573 49.7606 109.314 47.7749 107.544C47.0717 106.931 46.4188 106.266 45.7641 105.598C44.5717 104.332 43.4206 103.007 42.5214 101.498C42.0196 100.782 41.6778 99.9528 41.2552 99.1992L40.0736 96.9761C38.7552 94.8269 37.6472 93.1704 35.685 91.62C34.8685 91.0283 34.0195 90.3197 33.444 89.9798C33.2318 89.8341 33.1707 89.6416 33.4314 89.5895C33.6329 89.5571 33.8451 89.5463 34.0897 89.5805C34.5826 89.7118 35.1005 89.879 35.5358 90.1794C35.9962 90.4492 36.4459 90.7603 36.8506 91.1488C37.6833 91.8107 38.1886 92.5769 38.8918 93.3449C39.5177 94.0769 40.0214 94.897 40.5915 95.674C41.1041 96.4833 41.5303 97.3412 42.0052 98.1758L42.9404 99.897C43.2768 100.609 43.7606 101.241 44.1725 101.913C44.6599 102.535 45.1005 103.199 45.6508 103.778C46.5141 104.802 47.5034 105.723 48.5124 106.613C49.1652 107.199 50.5969 108.372 52.0627 109.375C53.5195 110.392 54.9907 111.251 55.4907 111.539C56.1922 111.942 56.6005 112.395 57.2156 112.924Z" fill="#3F0F01"/>
<path d="M29.9335 88.8091C29.0882 89.5951 28.3886 90.1868 27.5073 90.8361C25.2807 92.5231 23.8094 95.0663 22.7051 97.5573C22.4875 97.9925 22.3148 98.4458 22.1512 98.9062C21.9821 99.363 21.8022 99.8181 21.6997 100.296L21.367 101.622L21.1421 102.973C20.9911 103.856 20.813 104.863 20.5936 105.787C20.0666 107.662 19.099 109.424 17.7537 110.849C15.6692 112.991 13.4785 113.953 10.6152 114.663C9.42094 114.946 8.07386 114.912 7.2843 114.726C6.94977 114.651 6.88682 114.46 7.14941 114.356C7.35084 114.271 7.55405 114.18 7.79326 114.115C8.83462 113.856 9.885 113.703 11.0037 113.417C12.0397 113.133 12.9551 112.888 13.9066 112.386C15.6655 111.476 17.1943 110.149 18.1871 108.475C18.4857 107.861 18.8472 107.275 19.0684 106.624L19.4875 105.428C19.5972 105.021 19.6583 104.597 19.7483 104.18C19.9209 103.372 20.0648 102.424 20.2195 101.537C20.3832 100.787 20.5792 100.041 20.7842 99.3001C21.054 98.5771 21.2483 97.8288 21.5954 97.1346C21.9605 96.1994 22.9749 94.3253 24.2663 92.7659C25.5378 91.185 27.0846 89.9961 27.635 89.6436C28.3993 89.1364 29.0756 88.9584 29.9335 88.8091Z" fill="#3F0F01"/>
<path d="M67.1039 140.89C66.0032 140.89 65.1129 140.622 64.1705 140.15C62.9834 139.539 61.7352 139.016 60.55 138.363C59.3414 137.751 58.1291 137.138 57.0572 136.338L54.755 134.708C53.3449 133.67 52.0248 132.517 50.6543 131.431C50.318 131.152 49.9673 130.89 49.6418 130.598L48.6921 129.694L46.7838 127.899C46.2982 127.445 45.8413 127.021 45.3989 126.607C44.9457 126.206 44.532 125.791 44.1507 125.343C43.3611 124.476 42.568 123.606 41.6633 122.611C40.9169 121.8 40.2353 120.802 39.9079 120.147C39.7712 119.872 39.8684 119.706 40.1148 119.821C40.3018 119.906 40.5015 119.994 40.6903 120.134C41.5087 120.751 42.176 121.51 42.9152 122.32C43.6094 123.079 44.1525 123.793 44.854 124.543C45.4763 125.264 46.2137 125.87 46.9115 126.516L49.0212 128.431L50.4925 129.794L54.2982 132.915C54.8215 133.368 55.3863 133.767 55.9618 134.147L57.6723 135.32C59.0716 136.478 64.1381 139.215 65.219 139.67C65.9726 139.989 66.4151 140.436 67.1039 140.89Z" fill="#3F0F01"/>
<path d="M58.9276 153.312C58.2639 153.562 57.7081 153.479 57.1361 153.247C55.7009 152.65 54.1361 152.145 52.8789 151.181C52.4239 150.862 52.0354 150.463 51.611 150.112C50.0606 148.76 48.7765 147.148 47.6236 145.474C46.7549 144.19 46.1919 143.15 45.4887 141.749C45.2189 141.168 45.0858 140.465 45.1002 140.015C45.1056 139.828 45.262 139.728 45.4185 139.819C45.539 139.886 45.6668 139.956 45.7621 140.058C46.1757 140.506 46.3969 141.035 46.6559 141.602C46.9203 142.121 47.1092 142.594 47.3988 143.102C47.6542 143.578 47.9725 144.015 48.2765 144.46C48.575 144.906 48.8736 145.352 49.2243 145.758C49.4617 146.051 49.7009 146.343 49.9204 146.647C50.5157 147.352 51.0966 148.069 51.7711 148.701C52.3268 149.244 52.9239 149.746 53.548 150.201C53.9527 150.505 54.8142 151.13 55.7153 151.603C56.6056 152.096 57.5157 152.454 57.8268 152.56C58.2603 152.724 58.5121 153.008 58.9276 153.312Z" fill="#3F0F01"/>
<path d="M37.824 121.723C37.9031 122.707 37.797 123.482 37.5704 124.374C37.0254 126.64 36.9265 129.052 36.8294 131.356L36.7395 132.579L36.7556 133.802C36.7287 135.329 36.975 136.825 37.1693 138.329C37.3419 139.883 37.6837 141.449 37.6297 143.036C37.6891 145.44 37.4067 147.293 36.716 149.649C36.4445 150.626 35.815 151.575 35.3402 152.061C35.1243 152.268 34.9463 152.208 34.9624 151.967C34.9786 151.787 34.9697 151.586 35.0201 151.388C35.2305 150.523 35.5434 149.708 35.8042 148.788C36.0596 147.933 36.252 147.171 36.4013 146.286C36.4391 145.455 36.5758 144.629 36.547 143.798C36.4984 142.969 36.5273 142.136 36.4175 141.316C36.324 140.737 36.2287 140.16 36.155 139.581C35.9967 138.169 35.7377 136.611 35.6424 135.133C35.6352 133.87 35.5165 132.602 35.6424 131.345C35.6693 130.937 35.7107 130.304 35.7611 129.565C35.8618 128.833 35.9751 128 36.0884 127.183C36.3654 125.561 36.7197 124.027 36.8708 123.514C37.0632 122.791 37.4103 122.329 37.824 121.723Z" fill="#3F0F01"/>
<path d="M54.3733 99.6773C54.0819 100.141 53.733 100.3 53.3157 100.355C52.2672 100.474 51.2096 100.881 50.1323 100.857C49.7528 100.836 49.3787 100.818 49.0028 100.783C47.6035 100.701 46.2186 100.449 44.8643 100.089C44.3499 99.9525 43.9057 99.796 43.4525 99.6575C43.0136 99.4849 42.5748 99.3104 42.0658 99.109C41.6629 98.9201 41.3067 98.5586 41.1503 98.2619C41.0855 98.1378 41.1557 97.9687 41.296 97.9183C41.4021 97.8806 41.5154 97.8374 41.6162 97.8356C42.0586 97.8338 42.3877 98.0298 42.7744 98.1935C43.1413 98.3338 43.429 98.5281 43.7995 98.6594C44.5028 98.8536 45.2006 99.0478 45.9128 99.1683C46.161 99.2241 46.4165 99.2457 46.6647 99.2978C47.2708 99.4363 47.8895 99.528 48.5118 99.5964C49.037 99.6504 49.564 99.6665 50.0927 99.6701C50.4363 99.6755 51.1611 99.6683 51.8535 99.6216C52.5478 99.5658 53.2078 99.4759 53.429 99.4399C53.7438 99.4004 54.0046 99.5496 54.3733 99.6773Z" fill="#3F0F01"/>
<path d="M46.1095 110.633C45.6905 110.636 45.5034 110.48 45.4351 110.255C45.2516 109.69 44.757 109.23 44.6419 108.642C44.5987 108.436 44.5772 108.23 44.5232 108.03C44.374 107.275 44.2714 106.519 44.1635 105.767C44.0484 105.195 44.043 104.758 43.9602 104.176C43.9279 103.936 44.0682 103.672 44.2499 103.519C44.3254 103.454 44.5089 103.442 44.6204 103.494C44.7049 103.532 44.7984 103.573 44.8488 103.62C45.0646 103.83 45.07 104.039 45.097 104.269C45.124 104.481 45.0664 104.672 45.1042 104.884C45.1617 105.28 45.284 105.663 45.3632 106.05C45.3955 106.185 45.4279 106.32 45.4404 106.458C45.489 106.789 45.5376 107.129 45.5861 107.462C45.6203 107.748 45.7102 108.016 45.7768 108.293C45.8254 108.667 46.1959 109.778 46.2804 110.003C46.3398 110.154 46.1995 110.363 46.1095 110.633Z" fill="#3F0F01"/>
<path d="M36.7594 91.6217C37.1767 91.681 37.3224 91.8429 37.3763 92.0659C37.5004 92.6307 37.9554 93.1055 38.0687 93.6828C38.1101 93.8842 38.1101 94.0965 38.1533 94.2961C38.3134 95.0407 38.3763 95.8069 38.4591 96.5713C38.513 97.1558 38.5561 97.6019 38.5292 98.2098C38.5274 98.4616 38.3529 98.7134 38.1533 98.8375C38.0688 98.8896 37.8871 98.8698 37.7846 98.8015C37.7055 98.7475 37.6191 98.6936 37.576 98.6396C37.3907 98.404 37.4105 98.2044 37.4123 97.9814C37.4069 97.7745 37.513 97.6001 37.4716 97.3896C37.4069 96.9922 37.3476 96.6163 37.2864 96.2386C37.2504 96.1037 37.2145 95.9706 37.2001 95.8357C37.1587 95.5029 37.1623 95.1666 37.0886 94.8357C37.0328 94.5533 36.9806 94.2781 36.9249 93.9976C36.8511 93.6342 36.5795 92.4652 36.5058 92.2296C36.468 92.0605 36.6227 91.8717 36.7594 91.6217Z" fill="#3F0F01"/>
<path d="M47.5757 127.94C48.0127 127.678 48.3149 127.645 48.6692 127.719C49.1207 127.811 49.5883 127.807 50.0559 127.744C50.5235 127.699 50.9839 127.645 51.4443 127.622C51.7681 127.617 52.0954 127.631 52.4191 127.615C53.6224 127.475 54.84 127.329 56.0037 126.949C56.9012 126.723 57.554 126.439 58.4174 126.072C58.7717 125.921 59.2177 125.919 59.527 126.007C59.6565 126.043 59.7501 126.203 59.7105 126.334C59.6781 126.435 59.6458 126.543 59.5864 126.617C59.3238 126.931 58.9713 127.056 58.6008 127.21C58.2519 127.354 57.9228 127.404 57.5774 127.559C56.939 127.85 56.2555 128.018 55.5882 128.248C55.3526 128.323 55.1152 128.403 54.876 128.46C54.2717 128.538 53.6656 128.618 53.0613 128.698C52.5559 128.784 52.0343 128.771 51.5217 128.807C50.8526 128.901 48.7051 128.671 48.2789 128.548C47.9785 128.466 47.7897 128.232 47.5757 127.94Z" fill="#3F0F01"/>
<path d="M44.9313 125.306C45.3054 125.663 45.4314 125.971 45.4349 126.351C45.4745 127.32 45.9529 128.239 46.1184 129.18C46.1903 129.511 46.2406 129.847 46.3216 130.176C46.4583 130.795 46.6615 131.394 46.8558 131.994C47.0338 132.602 47.2641 133.19 47.5483 133.757C47.7515 134.189 47.9313 134.572 48.1112 134.955C48.3288 135.315 48.5482 135.674 48.8 136.092C49.0105 136.428 49.0878 136.879 49.0554 137.207C49.041 137.343 48.8971 137.462 48.7604 137.44C48.6543 137.424 48.5428 137.408 48.4582 137.358C48.1003 137.135 47.9151 136.795 47.6993 136.439C47.4943 136.106 47.3882 135.779 47.1741 135.449C46.8396 134.797 46.514 134.156 46.1831 133.514C46.059 133.288 45.9691 133.048 45.8899 132.806C45.7029 132.207 45.5105 131.61 45.345 131.005L44.9691 129.469C44.8863 129.135 44.7874 128.419 44.6777 127.739C44.6057 127.05 44.5338 126.395 44.541 126.167C44.5356 125.852 44.7191 125.608 44.9313 125.306Z" fill="#3F0F01"/>
<path d="M49.7622 147.402C50.0572 147.125 50.2371 147.082 50.4169 147.167C50.8881 147.37 51.4529 147.176 51.9331 147.296C52.104 147.332 52.2749 147.391 52.4493 147.417C53.0968 147.499 53.7586 147.598 54.4115 147.528C54.9079 147.497 55.2856 147.461 55.7712 147.334C55.9709 147.289 56.2119 147.409 56.3774 147.58C56.4475 147.65 56.4906 147.828 56.4618 147.944C56.4403 148.03 56.4169 148.125 56.3774 148.177C56.2101 148.406 56.0014 148.429 55.7838 148.472C55.5769 148.515 55.39 148.474 55.1849 148.524C54.7821 148.584 54.4062 148.638 54.0231 148.694C53.8864 148.719 53.7479 148.72 53.6112 148.711C53.2767 148.679 52.9403 148.647 52.6076 148.6C52.327 148.557 52.0518 148.515 51.7694 148.472C51.4043 148.411 50.2731 148.086 50.0554 147.97C49.9008 147.9 49.8377 147.665 49.7622 147.402Z" fill="#3F0F01"/>
<path d="M36.1954 132.907C36.3249 133.38 36.2134 133.679 35.985 133.94C35.3987 134.582 35.0408 135.452 34.3879 136.046C34.1577 136.249 33.9113 136.436 33.6882 136.647C32.8285 137.398 31.9293 138.103 30.9958 138.753C30.3106 139.289 29.7422 139.621 28.994 140.085C28.6901 140.28 28.2746 140.335 27.9904 140.28C27.8717 140.256 27.7728 140.102 27.7926 139.967C27.807 139.862 27.8214 139.749 27.8627 139.672C28.0462 139.334 28.325 139.181 28.6199 138.997C28.8951 138.826 29.1739 138.746 29.4437 138.562C29.9275 138.206 30.3843 137.812 30.8555 137.445C31.0174 137.31 31.1919 137.192 31.3501 137.053L32.575 136.109C32.9059 135.828 33.208 135.515 33.5318 135.224C33.9688 134.861 35.1937 133.524 35.4221 133.235C35.5876 133.035 35.8699 133.012 36.1954 132.907Z" fill="#3F0F01"/>
<path d="M36.7155 138.598C37.2066 138.629 37.4638 138.813 37.6508 139.104C38.1274 139.841 38.899 140.388 39.3667 141.142C39.5231 141.41 39.6868 141.687 39.8379 141.951C40.4566 142.931 41.0015 143.962 41.5177 145.019C41.8972 145.832 42.1742 146.465 42.3973 147.402C42.5178 147.78 42.3577 148.259 42.1886 148.498C42.1148 148.602 41.9332 148.613 41.8199 148.532C41.7318 148.469 41.6382 148.408 41.5861 148.338C41.3792 148.037 41.3433 147.75 41.2479 147.42C41.1886 147.115 41.1346 146.832 41.0231 146.532C40.7803 145.983 40.4997 145.446 40.1958 144.92C40.0879 144.735 39.9674 144.557 39.8721 144.366C39.6347 143.895 39.3865 143.426 39.1149 142.969C38.8919 142.581 38.6401 142.206 38.3991 141.827C38.0915 141.329 37.0393 139.766 36.8145 139.451C36.667 139.224 36.7102 138.944 36.7155 138.598Z" fill="#3F0F01"/>
<path d="M19.2824 107.857C19.0324 108.244 18.7806 108.337 18.482 108.332C17.7374 108.289 16.9784 108.593 16.2248 108.541C15.9604 108.514 15.6996 108.465 15.437 108.447C14.946 108.429 14.4586 108.364 13.9712 108.301C13.482 108.249 12.9946 108.192 12.509 108.114C11.7644 108.026 11.2014 107.934 10.4514 107.774C10.1421 107.717 9.85251 107.485 9.71582 107.256C9.65647 107.159 9.69427 106.979 9.79319 106.893C9.86693 106.825 9.94607 106.751 10.0216 106.722C10.3436 106.593 10.6079 106.663 10.9011 106.72C11.1763 106.773 11.3939 106.906 11.6745 106.938C12.2015 106.981 12.714 107.024 13.2266 107.066C13.4083 107.082 13.5935 107.075 13.7734 107.098C14.2158 107.15 14.6583 107.242 15.1043 107.276L16.2374 107.354C16.7284 107.39 18.3093 107.452 18.6331 107.447C18.8615 107.454 19.036 107.656 19.2824 107.857Z" fill="#3F0F01"/>
<path d="M23.2986 95.0481C23.0126 95.3575 22.8148 95.4097 22.5953 95.3467C22.0378 95.1848 21.4227 95.4223 20.8669 95.3503C20.6691 95.3251 20.4713 95.2874 20.2716 95.2766C19.5342 95.255 18.7878 95.255 18.1044 95.4438C17.5936 95.5877 17.2051 95.7352 16.8741 96.041C16.7194 96.1471 16.5324 96.1848 16.2806 96.1668C16.1799 96.1578 16.018 96.0697 15.9658 95.9636C15.9263 95.8827 15.8867 95.7909 15.8867 95.7172C15.8921 95.3773 16.1151 95.192 16.3472 95.0284C16.5612 94.8503 16.8004 94.8485 17.0216 94.7028C17.4425 94.4888 17.8831 94.3377 18.3274 94.2226C18.482 94.1884 18.6385 94.1489 18.7968 94.1345C19.1871 94.1093 19.5738 94.1093 19.9533 94.1237C20.2752 94.1255 20.5953 94.1435 20.9119 94.165C21.3291 94.1884 22.6277 94.4186 22.8849 94.5086C23.0666 94.5643 23.1673 94.7927 23.2986 95.0481Z" fill="#3F0F01"/>
<path d="M21.1168 100.39C21.6258 100.579 21.8542 100.883 21.9891 101.275C22.3219 102.269 22.9369 103.21 23.115 104.273C23.1797 104.642 23.1959 105.021 23.2589 105.39C23.4423 106.777 23.3974 108.188 23.1923 109.577C23.0449 110.638 22.802 111.424 22.4405 112.456C22.2589 112.866 21.9028 113.235 21.6114 113.395C21.4891 113.462 21.3201 113.392 21.2679 113.253C21.2265 113.147 21.1816 113.036 21.178 112.937C21.1582 112.498 21.356 112.178 21.4873 111.789C21.6006 111.422 21.7895 111.136 21.8812 110.76C21.9441 110.41 22.0071 110.063 22.07 109.714L22.1618 108.658C22.169 108.41 22.1581 108.16 22.1779 107.913C22.2157 107.309 22.2319 106.692 22.1725 106.081C22.1438 105.564 22.0448 105.054 21.9585 104.539C21.8866 103.861 21.2607 101.764 21.0736 101.354C20.9693 101.059 21.0646 100.773 21.1168 100.39Z" fill="#3F0F01"/>
<path d="M51.6137 114.581C52.1353 114.69 52.6496 114.823 53.173 114.917C53.3852 114.955 53.5958 115.032 53.7954 115.095C53.8583 115.117 53.9051 115.194 53.9176 115.25C53.9212 115.273 53.8151 115.296 53.7558 115.32C53.7414 115.325 53.718 115.32 53.7 115.32C53.1784 115.293 52.6515 115.282 52.1407 115.172C51.04 114.953 49.941 114.676 48.905 114.223C48.3097 113.998 47.727 113.737 47.1533 113.456C46.6569 113.23 46.1587 113.007 45.7108 112.688C45.5076 112.554 45.3079 112.402 45.1317 112.242C44.8601 111.985 44.531 111.813 44.2612 111.546C43.8349 111.158 43.4051 110.771 42.9698 110.377C42.9266 110.338 42.8907 110.25 42.9051 110.219C42.9213 110.188 43.0094 110.176 43.0561 110.199C43.2 110.266 43.353 110.332 43.4771 110.433C43.9753 110.805 44.4249 111.237 44.9411 111.577C45.272 111.777 45.5831 111.965 45.9249 112.172C46.6425 112.638 47.45 112.937 48.2 113.358C48.8961 113.674 49.6263 113.937 50.3547 114.176L51.6227 114.55L51.6137 114.581Z" fill="#3F0F01"/>
<path d="M54.5731 94.3412C54.8267 94.4959 55.057 94.6901 55.2674 94.9041C55.3466 95.0013 55.4041 95.1146 55.4437 95.2333C55.4563 95.2728 55.4131 95.3358 55.3718 95.37C55.3556 95.3843 55.2926 95.3628 55.2548 95.361C55.2458 95.361 55.2405 95.3502 55.2333 95.3466C55.0372 95.1721 54.7872 95.0678 54.5894 94.9113C54.1236 94.6038 53.6073 94.3771 53.0857 94.1469C52.7854 94.0336 52.4761 93.9239 52.1541 93.8646C51.8807 93.8214 51.6038 93.7764 51.3304 93.7315C51.2063 93.7099 51.0876 93.6577 50.9707 93.6074C50.7854 93.5354 50.5929 93.5192 50.3987 93.5067C50.0965 93.4887 49.7962 93.4545 49.4922 93.4221C49.4616 93.4167 49.4167 93.3718 49.4095 93.3376C49.4059 93.3052 49.4347 93.2387 49.4599 93.2261C49.5408 93.1865 49.6271 93.1433 49.7134 93.1415C50.0857 93.1379 50.4042 93.1361 50.7333 93.1343C50.9455 93.1289 51.156 93.1505 51.3664 93.1793C51.8358 93.2405 52.316 93.2692 52.7603 93.4689C53.1595 93.6235 53.5731 93.7315 53.9508 93.9455C54.1739 94.0498 54.3915 94.1631 54.5911 94.3142L54.5731 94.3412Z" fill="#3F0F01"/>
<path d="M46.3713 93.0373C46.5259 93.0841 46.6536 93.1237 46.8407 93.183C46.9036 93.2046 46.9612 93.2603 47.0152 93.3125C47.0314 93.3287 47.0331 93.4042 47.0277 93.4582C47.0259 93.478 46.9864 93.5103 46.963 93.5355C46.9576 93.5409 46.9504 93.5391 46.9432 93.5391C46.7742 93.5463 46.5961 93.5805 46.4378 93.5409C46.0925 93.4618 45.74 93.3863 45.427 93.21C45.249 93.1093 45.053 93.0571 44.8713 92.9654C44.7148 92.8899 44.5476 92.8413 44.3983 92.746C44.3318 92.7064 44.2741 92.6434 44.2292 92.5733C44.1608 92.4582 44.0637 92.397 43.963 92.3305C43.8191 92.2118 43.6824 92.0823 43.5511 91.951C43.5385 91.9402 43.5458 91.8899 43.5673 91.8665C43.5889 91.8395 43.6483 91.8017 43.6698 91.8017C43.7382 91.7999 43.8066 91.7927 43.8479 91.8179C44.0188 91.906 44.1519 92.0283 44.3317 92.0985C44.4361 92.147 44.535 92.2082 44.6429 92.2514C44.8857 92.3449 45.1213 92.451 45.3479 92.5895C45.5565 92.6992 45.776 92.7873 45.999 92.8629C46.1249 92.9096 46.2544 92.9582 46.3821 93.005L46.3713 93.0373Z" fill="#3F0F01"/>
<path d="M38.8752 84.0011C39.1288 84.1432 39.3248 84.3698 39.5119 84.5856C39.5784 84.6846 39.627 84.7925 39.6486 84.9166C39.6576 84.9507 39.6072 85.0119 39.564 85.0425C39.546 85.0533 39.4868 85.0299 39.449 85.0263C39.44 85.0227 39.4364 85.0137 39.431 85.0083C39.2583 84.8284 39.0353 84.7115 38.8536 84.5587C38.6504 84.4076 38.422 84.2835 38.1953 84.1756C37.9453 84.1126 37.7187 83.9831 37.4615 83.931C37.1702 83.8914 36.868 83.8482 36.5694 83.8698C36.3176 83.9094 36.0569 83.9543 35.8015 83.9957C35.6881 84.0173 35.5659 83.9975 35.4472 83.9957C35.2619 83.9957 35.0874 84.0533 34.913 84.1162C34.6432 84.2115 34.3698 84.2943 34.0928 84.3788C34.064 84.386 34.0047 84.3626 33.9867 84.3338C33.967 84.3051 33.9652 84.2349 33.9831 84.2115C34.0353 84.145 34.0946 84.0748 34.1684 84.0389C34.4993 83.8932 34.7799 83.7727 35.0676 83.6432C35.2529 83.5587 35.4471 83.4993 35.6522 83.4633C36.1054 83.3824 36.5587 83.2223 37.0335 83.3446C37.2655 83.3716 37.4598 83.3968 37.6576 83.422C37.8627 83.4777 38.0623 83.5533 38.2619 83.6252C38.4975 83.6864 38.6917 83.8428 38.8932 83.9741L38.8752 84.0011Z" fill="#3F0F01"/>
<path d="M18.3808 89.9224C18.7315 89.8828 19.0858 89.863 19.4383 89.8738C19.5822 89.881 19.7261 89.9152 19.861 89.9655C19.9023 89.9799 19.9347 90.0555 19.9401 90.1094C19.9419 90.1292 19.8771 90.1652 19.8394 90.1921C19.8304 90.1993 19.816 90.1993 19.8052 90.1993C19.4797 90.2353 19.1577 90.3162 18.8376 90.3486C18.1452 90.4152 17.4725 90.577 16.8106 90.7605C16.4365 90.8648 16.0894 91.0501 15.7621 91.2497C15.4941 91.4349 15.2333 91.6328 15.0139 91.8684C14.9096 91.9691 14.7872 92.0537 14.6811 92.149C14.5049 92.2947 14.3448 92.4655 14.2549 92.6796C14.0732 92.9889 13.9545 93.327 13.8394 93.667C13.8268 93.7029 13.7674 93.7461 13.7333 93.7461C13.6973 93.7461 13.6433 93.6975 13.6379 93.6616C13.6254 93.559 13.6092 93.4457 13.6343 93.3414C13.7081 92.9242 13.897 92.5339 14.1038 92.1616C14.2567 91.944 14.3933 91.7119 14.5822 91.5231C14.9545 91.0465 15.4851 90.7335 16.0192 90.4943C16.5066 90.3055 16.9959 90.1184 17.5048 90.0213C17.7944 89.9619 18.0858 89.9152 18.3772 89.89L18.3808 89.9224Z" fill="#3F0F01"/>
<path d="M18.2449 116.697C18.4553 116.607 18.6477 116.528 18.8833 116.429C18.9679 116.391 19.0668 116.377 19.1675 116.37C19.1999 116.366 19.2592 116.416 19.2934 116.458C19.3078 116.474 19.288 116.528 19.2808 116.566C19.2808 116.573 19.27 116.578 19.2646 116.586C19.0866 116.742 18.9085 116.915 18.6981 117.008C18.2485 117.235 17.7952 117.463 17.2934 117.535C17.0146 117.589 16.7466 117.686 16.4751 117.767C16.2484 117.855 16.0056 117.877 15.7664 117.911C15.6603 117.922 15.5488 117.915 15.4391 117.89C15.2682 117.852 15.1063 117.866 14.9409 117.886C14.6891 117.92 14.4319 117.936 14.1801 117.956C14.1531 117.956 14.1136 117.92 14.1064 117.886C14.101 117.854 14.1207 117.783 14.1423 117.765C14.2053 117.713 14.2718 117.656 14.3402 117.64C14.6387 117.575 14.8851 117.521 15.1423 117.465C15.3132 117.434 15.4391 117.411 15.6351 117.373C16.0038 117.309 16.36 117.219 16.7251 117.131C17.0542 117.064 17.3725 116.96 17.6981 116.873C17.8779 116.814 18.0524 116.733 18.2304 116.667L18.2449 116.697Z" fill="#3F0F01"/>
<path d="M36.2462 114.232C36.2372 113.815 36.1455 113.408 36.0861 113.002C36.0448 112.84 36.0412 112.663 36.0304 112.5C36.025 112.449 36.079 112.381 36.1221 112.347C36.1401 112.333 36.2048 112.397 36.248 112.433C36.2588 112.44 36.2641 112.46 36.2713 112.471C36.4422 112.859 36.588 113.257 36.6653 113.672C36.7948 114.566 36.8181 115.475 36.694 116.365C36.5897 116.861 36.5321 117.367 36.4584 117.868L36.1347 119.122C36.0825 119.306 36.0106 119.487 35.9243 119.654C35.7804 119.915 35.6544 120.178 35.5483 120.457C35.3739 120.872 35.1976 121.291 35.0159 121.719C34.998 121.759 34.9332 121.809 34.8991 121.802C34.8667 121.798 34.8218 121.73 34.8218 121.689C34.8236 121.559 34.8253 121.424 34.8649 121.306C35.0322 120.815 35.1868 120.365 35.3451 119.906C35.4602 119.626 35.525 119.329 35.5879 119.034C35.721 118.368 35.9314 117.728 36.034 117.059C36.0915 116.764 36.1454 116.466 36.1886 116.167L36.2264 115.264C36.2605 114.919 36.2336 114.579 36.2121 114.234L36.2462 114.232Z" fill="#3F0F01"/>
<path d="M26.4998 133.913C26.7228 133.524 26.962 133.147 27.2228 132.785C27.3307 132.638 27.4638 132.508 27.6005 132.391C27.6437 132.355 27.7318 132.363 27.7804 132.384C27.802 132.393 27.7804 132.483 27.7786 132.535C27.7768 132.55 27.766 132.564 27.7588 132.577C27.5519 132.945 27.3811 133.336 27.1707 133.697C26.712 134.474 26.3272 135.291 25.9387 136.104C25.7192 136.562 25.5628 137.053 25.4351 137.542C25.311 137.956 25.2534 138.388 25.1886 138.809C25.1671 138.998 25.1239 139.188 25.0663 139.37C25.0034 139.659 24.9926 139.956 25.0106 140.256C25.0376 140.485 25.0663 140.712 25.0951 140.944L25.2642 141.614C25.275 141.658 25.2552 141.744 25.2264 141.764C25.1977 141.783 25.1239 141.767 25.0987 141.731C25.0214 141.627 24.9369 141.512 24.8919 141.384C24.7876 141.134 24.7318 140.87 24.6922 140.604C24.6347 140.339 24.6077 140.073 24.6077 139.805C24.5789 139.469 24.6131 139.141 24.6347 138.81C24.6797 138.066 24.8667 137.345 25.1401 136.663C25.3757 136.053 25.6329 135.453 25.9261 134.87C26.1005 134.541 26.275 134.213 26.471 133.897L26.4998 133.913Z" fill="#3F0F01"/>
<path d="M28.1742 144.415C28.2515 144.485 28.3342 144.55 28.408 144.626C28.4368 144.66 28.4494 144.714 28.4548 144.771C28.4583 144.791 28.4224 144.854 28.3918 144.897C28.381 144.917 28.3396 144.935 28.3145 144.949C28.3073 144.955 28.3037 144.951 28.3001 144.949C28.1921 144.924 28.0644 144.919 27.9799 144.859C27.7965 144.734 27.6004 144.618 27.4637 144.437C27.3846 144.334 27.2785 144.262 27.1814 144.18C27.0986 144.113 27.0087 144.047 26.9314 143.967C26.8972 143.931 26.8756 143.881 26.8684 143.822C26.8576 143.73 26.8126 143.665 26.7605 143.608C26.6777 143.532 26.6112 143.408 26.5573 143.282C26.5519 143.268 26.5825 143.237 26.6112 143.223C26.6436 143.212 26.7101 143.199 26.7299 143.199C26.7875 143.207 26.8432 143.207 26.863 143.221C26.9242 143.277 27.0375 143.356 27.1238 143.424C27.176 143.471 27.2371 143.52 27.3 143.559C27.4475 143.644 27.5698 143.759 27.676 143.894C27.7677 144.018 27.8936 144.106 28.0033 144.21C28.0645 144.268 28.131 144.329 28.194 144.388L28.1742 144.415Z" fill="#3F0F01"/>
<path d="M64.041 144.475C64.3719 144.55 64.7047 144.624 65.0374 144.683C65.1741 144.707 65.3072 144.766 65.4349 144.816C65.4744 144.832 65.5068 144.91 65.514 144.962C65.5176 144.984 65.4474 145.016 65.4078 145.043C65.4006 145.05 65.3845 145.046 65.3737 145.046C65.0301 145.059 64.6812 145.082 64.3467 145.016C63.6255 144.888 62.9061 144.699 62.246 144.372C61.8611 144.217 61.4996 144.003 61.1255 143.82C60.8018 143.672 60.5014 143.482 60.2172 143.266C60.0877 143.172 59.969 143.061 59.8683 142.942C59.7046 142.762 59.5194 142.611 59.3521 142.431C59.0967 142.167 58.836 141.897 58.5662 141.622C58.541 141.593 58.532 141.525 58.5518 141.498C58.5716 141.473 58.6471 141.453 58.6795 141.466C58.782 141.502 58.8899 141.539 58.969 141.602C59.2892 141.881 59.577 142.129 59.8701 142.383C60.0806 142.519 60.2622 142.635 60.487 142.782C60.9384 143.091 61.4241 143.331 61.8935 143.613C62.3126 143.872 62.7928 144.005 63.2424 144.196L64.05 144.44L64.041 144.475Z" fill="#3F0F01"/>
<path d="M51.8721 123.208C52.1706 123.284 52.453 123.358 52.7714 123.438C52.8937 123.469 53.0106 123.532 53.1203 123.595C53.1544 123.617 53.1742 123.696 53.1742 123.748C53.1742 123.771 53.1077 123.798 53.0699 123.82C53.0627 123.823 53.0483 123.822 53.0375 123.822C52.7354 123.805 52.4225 123.822 52.1293 123.753C51.498 123.602 50.8469 123.518 50.2444 123.255C49.9009 123.12 49.5447 123.027 49.1904 122.917C48.8918 122.82 48.5789 122.766 48.2947 122.62C48.1652 122.563 48.0411 122.487 47.9314 122.397C47.7587 122.253 47.5646 122.165 47.3631 122.079C47.0556 121.946 46.7516 121.8 46.4512 121.653C46.4206 121.638 46.3936 121.581 46.4026 121.548C46.4134 121.516 46.4728 121.469 46.5052 121.467C46.6059 121.462 46.712 121.455 46.8001 121.483C47.1688 121.617 47.489 121.73 47.8217 121.85C48.0357 121.931 48.212 122 48.444 122.088C48.908 122.26 49.4009 122.367 49.8631 122.561C50.2822 122.715 50.7066 122.861 51.1383 122.974L51.881 123.174L51.8721 123.208Z" fill="#3F0F01"/>
<path d="M48.1158 157.222C48.445 157.228 48.774 157.183 49.096 157.12C49.2291 157.096 49.3658 157.095 49.5025 157.089C49.5439 157.088 49.6032 157.143 49.6356 157.186C49.6499 157.206 49.5979 157.267 49.5727 157.305C49.5655 157.316 49.5511 157.32 49.5403 157.325C49.2309 157.481 48.9054 157.622 48.5583 157.665C47.8191 157.758 47.033 157.704 46.3388 157.397C45.9521 157.221 45.5708 157.043 45.2147 156.809C44.9287 156.597 44.6158 156.402 44.3748 156.138C44.2633 156.023 44.1644 155.893 44.0852 155.76C43.9683 155.541 43.8353 155.346 43.6824 155.158C43.4396 154.87 43.2813 154.528 43.0871 154.212C43.0673 154.181 43.0744 154.109 43.0996 154.088C43.1248 154.066 43.2003 154.061 43.2309 154.08C43.3208 154.138 43.4143 154.197 43.4755 154.278C43.7021 154.602 43.945 154.911 44.2112 155.195C44.3622 155.386 44.5403 155.548 44.7183 155.704C45.1194 156.059 45.5474 156.354 45.9899 156.645C46.3981 156.868 46.846 157.043 47.3118 157.113C47.5762 157.161 47.846 157.192 48.1158 157.19V157.222Z" fill="#3F0F01"/>
<path d="M82.0429 41.9958C83.1383 41.8321 84.2354 41.6774 85.3361 41.5731C85.7858 41.5317 86.239 41.521 86.6761 41.5246C86.8074 41.5281 86.9296 41.5911 86.9656 41.6415C86.9818 41.663 86.7732 41.717 86.6617 41.7566C86.6365 41.7656 86.5915 41.7692 86.5537 41.7746C85.5052 41.913 84.4675 42.1145 83.4225 42.2656C81.1653 42.5929 78.9296 43.0353 76.6958 43.5048C75.4404 43.7727 74.1905 44.1145 72.9549 44.4868C71.9045 44.8195 70.8541 45.145 69.8308 45.5443C69.3739 45.7188 68.8955 45.8627 68.4441 46.0083C67.7372 46.2583 67.0358 46.5317 66.3505 46.8681L64.775 47.6612L63.2516 48.5515C63.1491 48.6109 62.9693 48.6702 62.9315 48.654C62.8937 48.6361 62.9495 48.5245 63.0304 48.4616C63.2696 48.2637 63.5251 48.0515 63.8038 47.8752C64.347 47.5119 64.9135 47.1936 65.4945 46.8986C66.0682 46.5857 66.6473 46.2871 67.2462 46.0299C67.9764 45.6882 68.7211 45.3789 69.4729 45.0929C71.1402 44.4058 72.8703 43.8986 74.6149 43.4544C76.1761 43.0857 77.7427 42.7026 79.3236 42.4166C80.2247 42.2404 81.1329 42.1037 82.0393 41.9634L82.0429 41.9958Z" fill="#3F0F01"/>
<path d="M58.0234 51.0157C58.277 50.8376 58.5162 50.6704 58.7878 50.4797C58.8921 50.4114 59.018 50.3646 59.1403 50.325C59.1781 50.3143 59.2482 50.3538 59.286 50.3916C59.3022 50.406 59.277 50.4725 59.268 50.5157C59.2662 50.5247 59.2554 50.5319 59.2464 50.5391C59.0324 50.7531 58.8382 50.9887 58.6008 51.1722C58.09 51.5643 57.5918 51.9743 57.0414 52.3143C56.7321 52.5067 56.4461 52.7351 56.1529 52.9545L55.4083 53.5175C55.295 53.5984 55.1673 53.6632 55.0378 53.7099C54.8292 53.7855 54.6565 53.9078 54.4821 54.0355C54.2141 54.2333 53.9371 54.4186 53.6602 54.602C53.6332 54.6218 53.5648 54.6182 53.5414 54.5948C53.5145 54.5715 53.5001 54.4995 53.5145 54.4707C53.5576 54.3826 53.6043 54.2909 53.6745 54.2279C53.9766 53.9743 54.2411 53.7531 54.5145 53.5247C54.6961 53.379 54.8454 53.2603 55.0432 53.102C55.4263 52.7711 55.8328 52.4761 56.259 52.2046C56.6421 51.9617 57 51.6884 57.3687 51.4294L58.0037 50.9869L58.0234 51.0157Z" fill="#3F0F01"/>
<path d="M4.42766 107.544C4.71363 107.158 5.00858 106.776 5.3557 106.442C5.49239 106.303 5.65968 106.192 5.82695 106.097C5.87911 106.066 5.96724 106.089 6.0086 106.12C6.02659 106.134 5.98523 106.221 5.97084 106.275C5.96724 106.287 5.95283 106.302 5.94204 106.312C5.64527 106.643 5.41147 107.028 5.13989 107.374C4.56435 108.133 4.11653 108.972 3.72804 109.836C3.50502 110.323 3.37009 110.852 3.28556 111.379C3.18844 111.829 3.19204 112.287 3.15607 112.742C3.15607 112.947 3.15068 113.154 3.11831 113.354C3.05716 113.672 3.10212 113.989 3.15787 114.305C3.21003 114.8 3.36291 115.275 3.47622 115.762C3.48881 115.811 3.46723 115.899 3.43846 115.92C3.40968 115.938 3.33415 115.917 3.30897 115.879C3.22983 115.766 3.14531 115.643 3.10035 115.508C2.89531 114.98 2.79639 114.424 2.69027 113.865C2.64711 113.516 2.64172 113.163 2.60395 112.811C2.59315 112.025 2.67586 111.224 2.93845 110.476C3.14169 109.802 3.42227 109.152 3.7532 108.535C3.94925 108.185 4.16509 107.847 4.4007 107.525L4.42766 107.544Z" fill="#3F0F01"/>
<path d="M4.60405 115.523C4.63822 115.755 4.67241 115.969 4.71198 116.231C4.72457 116.327 4.70656 116.431 4.68678 116.532C4.68138 116.562 4.61665 116.602 4.56809 116.623C4.5465 116.631 4.49793 116.595 4.46376 116.577C4.45656 116.571 4.45479 116.562 4.4512 116.555C4.35947 116.334 4.23174 116.12 4.18857 115.886C4.08605 115.39 3.98717 114.882 4.00156 114.37C4.02134 114.077 3.96736 113.791 3.97995 113.497C3.98535 113.251 3.99076 112.996 3.99616 112.747C4.01414 112.634 4.05729 112.523 4.11485 112.424C4.20477 112.264 4.23717 112.1 4.26774 111.931C4.34688 111.674 4.47813 111.429 4.58785 111.186C4.59864 111.161 4.6526 111.143 4.68317 111.156C4.71375 111.17 4.76231 111.224 4.7677 111.251C4.78209 111.334 4.80009 111.42 4.7821 111.487C4.71376 111.747 4.60945 111.988 4.60585 112.269C4.58606 112.44 4.57166 112.568 4.54828 112.764C4.57886 113.147 4.53392 113.517 4.52672 113.9C4.51413 114.242 4.53752 114.586 4.57889 114.931C4.59508 115.125 4.60583 115.323 4.63641 115.517L4.60405 115.523Z" fill="#3F0F01"/>
</g>
</svg>
