<svg width="23" height="24" viewBox="0 0 23 24" fill="none" xmlns="http://www.w3.org/2000/svg">
<g clip-path="url(#clip0)">
<path d="M18.9667 12.6926C18.5971 12.2259 18.7029 12.0183 18.9667 11.6012C18.9714 11.5964 22.0219 7.38116 22.3362 5.95164L22.3381 5.95069C22.4943 5.42973 22.3381 5.04688 21.5829 5.04688H19.0838C18.4476 5.04688 18.1543 5.37545 17.9971 5.74307C17.9971 5.74307 16.7248 8.78878 14.9248 10.7631C14.3438 11.3335 14.0752 11.5164 13.7581 11.5164C13.6019 11.5164 13.359 11.3335 13.359 10.8126V5.95069C13.359 5.32592 13.181 5.04688 12.6543 5.04688H8.72476C8.32571 5.04688 8.08857 5.3383 8.08857 5.60973C8.08857 6.20211 8.98857 6.3383 9.0819 8.00497V11.6212C9.0819 12.4135 8.93809 12.5593 8.61905 12.5593C7.76952 12.5593 5.70762 9.50116 4.48571 6.00116C4.23905 5.32211 3.99809 5.04783 3.35714 5.04783H0.857143C0.143809 5.04783 0 5.3764 0 5.74402C0 6.39354 0.849523 9.62307 3.95048 13.8897C6.01714 16.8021 8.92762 18.3802 11.5752 18.3802C13.1667 18.3802 13.361 18.0297 13.361 17.4269C13.361 14.644 13.2171 14.3812 14.0143 14.3812C14.3838 14.3812 15.02 14.564 16.5057 15.9688C18.2038 17.6345 18.4829 18.3802 19.4333 18.3802H21.9324C22.6448 18.3802 23.0057 18.0297 22.7981 17.3383C22.3229 15.884 19.1114 12.8926 18.9667 12.6926Z" fill="#66BD36"/>
</g>
<defs>
<clipPath id="clip0">
<rect width="22.8571" height="22.8571" fill="white" transform="translate(0 0.285156)"/>
</clipPath>
</defs>
</svg>
