<svg width="401" height="182" viewBox="0 0 401 182" fill="none" xmlns="http://www.w3.org/2000/svg">
<g opacity="0.5">
<path d="M29.6772 176.522C29.5198 176.399 29.3385 176.314 29.1735 176.204C29.1046 176.163 29.0498 176.08 28.9994 176C28.9843 175.977 28.997 175.872 29.0113 175.803C29.0179 175.771 29.0753 175.738 29.1131 175.708C29.1206 175.701 29.1298 175.705 29.1401 175.706C29.3638 175.73 29.605 175.736 29.8 175.839C30.2171 176.055 30.617 176.32 30.9104 176.69C31.0677 176.902 31.2485 177.09 31.4277 177.284C31.5788 177.449 31.7025 177.636 31.8276 177.822C31.8794 177.906 31.9103 178.007 31.9157 178.113C31.9339 178.277 31.9761 178.42 32.0452 178.555C32.1439 178.765 32.2254 178.983 32.3054 179.201C32.3117 179.221 32.2734 179.275 32.2328 179.296C32.1908 179.317 32.0962 179.33 32.0691 179.32C31.9872 179.29 31.9004 179.261 31.8639 179.21C31.722 179.012 31.5992 178.807 31.4743 178.606C31.4001 178.48 31.3059 178.369 31.2092 178.26C30.9931 178.014 30.8139 177.758 30.625 177.496C30.477 177.241 30.239 177.071 30.0351 176.871C29.9171 176.755 29.7794 176.665 29.6519 176.56L29.6772 176.522" fill="white"/>
<path d="M23.21 176.382C22.9971 176.315 22.7809 176.258 22.5732 176.177C22.489 176.145 22.4134 176.072 22.3454 175.993C22.3235 175.969 22.3288 175.866 22.3427 175.795C22.3463 175.765 22.4019 175.725 22.4354 175.692C22.4429 175.685 22.4506 175.689 22.4599 175.688C22.6823 175.686 22.9144 175.642 23.1234 175.691C23.5734 175.793 24.0299 175.869 24.4569 176.059C24.6968 176.166 24.9566 176.212 25.2082 176.279C25.4233 176.337 25.6447 176.374 25.8568 176.438C25.9528 176.467 26.0414 176.523 26.1212 176.599C26.243 176.721 26.388 176.767 26.5366 176.809C26.7677 176.872 26.9915 176.953 27.2158 177.036C27.2381 177.045 27.2585 177.112 27.2512 177.156C27.2428 177.202 27.1969 177.284 27.1721 177.298C27.0954 177.343 27.0142 177.389 26.947 177.381C26.6852 177.355 26.4268 177.308 26.1669 177.267C26.0063 177.239 25.8524 177.196 25.6897 177.176C25.3262 177.135 24.9806 177.036 24.6448 176.895C24.3457 176.769 24.0304 176.695 23.7229 176.599L23.1962 176.426L23.21 176.382" fill="white"/>
<path d="M96.8936 85.3423C96.7524 84.9623 96.6596 84.4979 96.8594 84.076C97.0644 83.6606 97.4562 83.4107 97.8248 83.2326C98.5847 82.8872 99.3736 82.7252 100.147 82.5696C101.685 82.2998 103.203 82.0359 104.706 81.7736C107.686 81.2215 110.553 80.4489 113.233 79.2587C114.55 78.6643 115.909 77.9613 117.271 77.3079C118.626 76.6352 120.039 76.0435 121.443 75.4061C122.88 74.8393 124.325 74.241 125.823 73.728C127.336 73.2656 128.842 72.6872 130.433 72.3219L133.435 71.5432L136.469 70.9098C138.488 70.4532 140.532 70.1585 142.573 69.8163C146.644 69.14 150.806 68.7525 154.835 68.0747C162.961 66.8839 170.888 64.5163 178.339 61.0155C182.064 59.2529 185.748 57.335 189.557 55.5904C193.391 53.9656 197.173 52.2229 201.09 50.8199C203.035 50.087 204.979 49.3546 206.921 48.6227C208.897 47.9883 210.872 47.3578 212.845 46.7263L215.803 45.7833C216.787 45.4675 217.769 45.1458 218.776 44.9135C220.778 44.4053 222.777 43.8984 224.772 43.3925L228.997 42.3279C230.422 41.9666 231.744 41.6697 233.106 41.2454C235.803 40.4039 238.438 39.3133 241.034 38.1181C246.226 35.7181 251.244 32.8661 256.388 30.1787C258.782 28.9261 261.211 27.713 263.721 26.6351C266.228 25.5625 268.823 24.6053 271.581 24.0779C274.305 23.5399 277.31 23.5005 280.061 24.6077C282.604 25.6832 285.042 26.9498 287.344 28.499C289.629 30.0484 291.775 31.8944 293.463 34.1755C295.151 36.4371 296.311 39.2088 296.471 42.1009C296.657 44.9932 295.86 47.8422 294.599 50.3346C294.066 51.596 293.095 52.8726 292.084 53.8562C291.027 54.807 289.915 55.6631 288.751 56.4077C284.089 59.3862 279.04 61.427 273.977 63.3394C268.898 65.2198 263.736 66.8251 258.545 68.3051C248.144 71.2174 237.62 73.6329 226.962 75.3979C222.908 76.0575 218.959 76.5993 215.023 76.8332C211.121 77.0244 207.31 77.0257 203.572 76.9564C196.096 76.8143 188.896 76.3737 181.727 76.5748C178.144 76.6693 174.572 76.9415 171.027 77.5318C167.471 78.0866 164.043 79.1306 160.339 80.0964C153.012 81.998 145.259 83.2112 137.019 84.1287C133.648 84.489 130.205 84.8574 126.794 85.2236C123.393 85.6468 120.026 86.0643 116.805 86.4642C113.569 86.8481 110.466 87.1599 107.604 87.3283C104.742 87.4903 102.119 87.5366 99.8406 87.2083C98.8898 87.0598 98.1106 86.8229 97.5654 86.4849C97.0088 86.152 96.7684 85.6862 96.7676 85.4893C96.767 85.0516 96.926 85.9933 98.4318 86.2861C100.68 86.7158 103.102 86.4322 105.905 86.2044C112.041 85.6119 118.191 84.5429 124.557 83.6417C130.946 82.7561 137.498 82.2373 144.233 81.2742C150.542 80.3569 156.415 79.3197 162.138 77.6922C167.902 75.984 174.001 75.0277 180.435 74.8037C192.375 74.3313 204.236 75.658 215.973 74.8746C221.81 74.4174 227.655 73.3956 233.454 72.2892C239.254 71.1501 245.023 69.8412 250.747 68.3652C258.798 66.278 266.808 63.9011 274.559 60.9721C276.936 60.0626 279.292 59.1077 281.578 58.0261C283.863 56.9493 286.113 55.7877 288.167 54.4057C288.657 54.0398 289.172 53.6941 289.647 53.3167C290.085 52.912 290.603 52.5585 290.98 52.1177L291.579 51.4823C291.758 51.2607 291.9 51.028 292.065 50.8042C292.234 50.5955 292.376 50.332 292.507 50.0507L292.919 49.2355C293.981 47.0581 294.619 44.693 294.496 42.3406C294.39 39.991 293.518 37.7141 292.14 35.7446C290.767 33.7659 288.94 32.0737 286.937 30.6232C284.935 29.1596 282.72 27.9636 280.434 26.9317C279.266 26.3555 278.236 26.018 277.058 25.8212C275.9 25.6171 274.688 25.6702 273.486 25.7782C269.403 26.2677 265.418 27.9549 261.57 29.7762C257.71 31.6256 253.935 33.7218 250.112 35.7582C246.291 37.7961 242.42 39.8006 238.366 41.4736C236.339 42.3061 234.265 43.0575 232.127 43.6398L225.817 45.2297C220.368 46.5421 211.963 48.8029 202.511 52.3834C200.141 53.2633 197.681 54.1513 195.229 55.2344C192.766 56.2866 190.206 57.2944 187.718 58.4998C182.715 60.8724 177.56 63.5323 172.158 65.4408L170.145 66.1755C169.471 66.4071 168.78 66.5841 168.1 66.7902C166.734 67.1719 165.391 67.6211 164.026 67.9409C161.282 68.5077 158.606 69.2153 155.932 69.5194C153.269 69.9176 150.68 70.2896 148.21 70.5843C146.971 70.7442 145.755 70.8988 144.566 71.0516C143.385 71.2422 142.229 71.43 141.104 71.6116C138.842 71.9345 136.741 72.4229 134.765 72.8193C132.799 73.2453 131.004 73.7574 129.367 74.192C127.761 74.7265 126.292 75.1352 125.055 75.6196C123.816 76.0995 122.75 76.4843 121.909 76.8352C120.735 77.3421 119.603 77.8294 118.505 78.3033C117.413 78.7993 116.353 79.281 115.316 79.752C113.202 80.7261 111.065 81.413 108.92 81.8632C106.772 82.3241 104.614 82.5664 102.4 82.7585C101.293 82.8599 100.168 82.938 99.0315 83.131C98.4687 83.2348 97.8873 83.3621 97.3809 83.686C97.1348 83.8523 96.9176 84.0969 96.8381 84.4058C96.7596 84.7177 96.8191 85.0371 96.8936 85.3423" fill="white"/>
<path d="M295.395 40.8452C296.724 39.3971 298.133 38.5932 299.83 37.7994C302.023 36.9062 304.144 35.7763 306.324 34.7724C308.507 33.7803 310.693 32.7794 312.903 31.9261C314.471 31.3302 316.087 30.8409 317.679 30.3251C323.621 28.4085 329.683 27.0014 335.65 25.3956C337.909 24.781 339.911 24.2424 341.823 23.586C342.297 23.4221 342.763 23.2448 343.193 23.0495C343.409 22.9539 343.606 22.848 343.768 22.7496C343.811 22.7106 343.941 22.6383 343.914 22.6367C343.932 22.6489 343.882 22.5998 343.96 22.6647L344.115 22.7802L344.136 22.7948C344.328 22.9473 343.885 22.5955 343.93 22.6303L343.931 22.6283L343.934 22.6225L343.937 22.6119L343.979 22.5264C344.105 22.3128 344.207 21.8857 344.216 21.4125C344.251 20.9477 344.199 20.4174 344.139 19.88C343.899 18.1083 343.552 16.0316 343.321 14.8938C343.269 14.6449 343.311 14.5511 343.37 14.4215C343.432 14.3101 343.55 14.2576 343.771 14.3917C344.063 14.609 344.37 14.8843 344.596 15.2481C345.566 16.8628 346.04 18.7001 346.144 20.8239C346.164 21.3252 346.134 21.8272 346.023 22.343C345.92 22.8517 345.726 23.3929 345.276 23.9048C344.742 24.3923 344.326 24.5302 343.885 24.7369C343.451 24.9223 343.017 25.0833 342.572 25.2494C339.284 26.4265 335.984 27.2663 332.698 28.2017C331.542 28.5252 330.384 28.8542 329.225 29.1513C326.373 29.8788 323.528 30.6094 320.716 31.4443C318.347 32.1492 316.009 32.9174 313.711 33.7994C312.208 34.3832 309.053 35.6099 306.029 36.7848C303.065 38.0931 300.183 39.2679 299.255 39.7526C297.921 40.3779 296.817 40.4931 295.395 40.8452" fill="white"/>
<path d="M295.68 35.2628C298.174 33.4448 300.486 32.227 303.274 31.007C310.3 27.876 317.38 24.289 324.46 21.2139C326.965 20.1535 329.458 19.063 331.974 18.0395C334.314 17.0881 336.657 16.1373 338.979 15.1542C341.27 14.1661 343.687 13.1847 345.705 12.0138C345.747 11.9718 345.829 11.9449 345.824 11.8837C345.811 11.8003 345.837 11.8635 345.707 11.5317C345.488 11.0238 345.195 10.4885 344.883 9.96872C344.253 8.92473 343.546 7.9014 342.799 6.91579C342.051 5.9404 341.26 4.95913 340.421 4.15557C339.858 3.65643 339.976 3.72853 339.773 3.78931C339.32 3.98844 338.785 4.33417 338.286 4.66413C335.2 6.79528 332.566 8.9735 329.899 11.0616C327.234 13.1716 324.562 15.3016 321.454 17.6707C318.907 19.6184 315.882 21.4225 313.936 22.2736C313.124 22.6335 312.793 22.4719 313.289 21.9298C313.67 21.5199 314.058 21.0789 314.565 20.6431C316.774 18.7399 319.165 17.0099 321.702 15.0557C324.079 13.2233 326.211 11.7023 328.554 9.80948C330.723 8.05877 332.885 6.2991 335.129 4.59505C336.271 3.7474 337.349 2.90315 338.737 2.15744C338.913 2.06475 339.085 1.98083 339.448 1.86609C339.769 1.79291 340.088 1.79194 340.411 1.83948C340.702 1.93074 341.03 2.1401 341.235 2.3002C341.41 2.4352 341.555 2.56361 341.7 2.69498C342.269 3.21967 342.751 3.75655 343.224 4.30442C344.54 5.8514 345.737 7.45131 346.78 9.22647C347.096 9.7805 347.4 10.3333 347.658 11.0184C347.817 11.472 347.995 12.1557 347.781 12.6628C347.705 12.9449 347.45 13.1076 347.256 13.319C347.055 13.5054 346.764 13.7244 346.662 13.7684L345.804 14.2572L344.967 14.6702C344.408 14.9539 343.852 15.1926 343.294 15.4485C341.066 16.4415 338.832 17.3651 336.594 18.2802C334.715 19.0624 332.817 19.8003 330.948 20.5969L325.375 23.0399C322.947 24.0879 317.855 26.2889 312.974 28.3976C308.084 30.4895 303.454 32.6289 301.863 33.3015C299.646 34.2699 297.935 34.6578 295.68 35.2628" fill="white"/>
<path d="M336.861 4.61707C335.717 5.70309 334.598 6.25913 333.222 6.73298C329.734 7.91969 326.387 9.74674 322.961 11.081C321.748 11.5434 320.522 11.9709 319.318 12.4532C317.059 13.3278 314.882 14.3518 312.662 15.2986L309.357 16.7636L306.204 18.4907C302.982 20.1824 300.684 21.7561 297.69 23.8738C296.519 24.8063 295.014 25.541 294.082 25.9347C293.68 26.0906 293.393 25.9188 293.534 25.5585C293.641 25.2849 293.752 24.9905 293.952 24.719C294.847 23.5818 296.014 22.725 297.259 21.7923C298.467 20.9759 299.592 20.3839 300.791 19.5527C301.875 18.7438 303.061 18.1009 304.23 17.4258L307.747 15.4073C308.562 14.9043 309.432 14.5316 310.294 14.1451L316.7 11.3891L322.135 9.21654C324.487 8.2454 332.12 5.48019 333.691 4.95125C334.796 4.58691 335.694 4.63698 336.861 4.61707" fill="white"/>
<path d="M306.043 17.5336C305.5 18.294 304.964 18.6109 304.261 18.7446C303.381 18.9446 302.533 19.3105 301.7 19.6914C300.874 20.1007 300.057 20.5157 299.199 20.7895C298.596 20.9895 297.995 21.194 297.405 21.4306L295.761 22.1C295.218 22.3332 294.692 22.6034 294.158 22.8568C293.101 23.3825 292.014 23.8626 291.044 24.533C290.292 25.0134 289.628 25.4392 288.962 25.864C288.286 26.274 287.715 26.828 287.009 27.3814C286.445 27.851 285.646 28.1242 285.049 28.1676C284.799 28.1848 284.558 27.9745 284.573 27.7291C284.584 27.5413 284.592 27.3387 284.668 27.1792C285.006 26.4854 285.589 26.0538 286.195 25.5636C286.774 25.1187 287.312 24.7799 287.914 24.378C289.018 23.6101 290.131 22.836 291.267 22.1016C291.678 21.8668 292.089 21.6271 292.518 21.4206C293.575 20.9306 294.613 20.3991 295.706 19.9964C296.617 19.6383 297.514 19.2428 298.43 18.901C299.034 18.699 300.301 18.2685 301.524 17.9001C302.76 17.5583 303.939 17.2343 304.352 17.1652C304.923 17.0524 305.421 17.2837 306.043 17.5336" fill="white"/>
<path d="M138.617 76.3544C135.958 76.6784 133.323 77.168 130.676 77.5417C129.618 77.7639 128.533 77.925 127.5 78.0912C127.2 78.1639 126.888 78.1274 126.77 78.0733C126.719 78.0487 127.199 77.8282 127.467 77.6907C127.528 77.6638 127.639 77.6425 127.727 77.6186C130.233 76.9315 132.762 76.4403 135.315 76.023C140.81 75.1607 146.376 74.5751 151.857 73.8786C154.942 73.4413 158.022 72.7743 161.039 71.9265C163.624 71.2486 166.155 70.3676 168.679 69.4922C169.796 69.0852 170.944 68.6867 172.044 68.3301C173.773 67.7495 175.458 67.0449 177.151 66.2764C179.759 65.0938 182.337 63.8284 184.844 62.4505C185.094 62.3106 185.517 62.1494 185.593 62.1698C185.669 62.1915 185.503 62.4237 185.298 62.5709C184.688 63.0107 184.029 63.4674 183.329 63.8543C180.575 65.3873 177.725 66.7607 174.835 68.035L172.133 69.1691L169.405 70.2365C165.325 71.8029 161.126 73.0518 156.828 73.9193C153.006 74.7079 149.09 75.1782 145.242 75.6306L138.622 76.4112L138.617 76.3544" fill="white"/>
<path d="M201.575 56.8141C200.329 57.3511 199.109 57.9483 197.881 58.5218C197.388 58.764 196.859 58.9525 196.36 59.1418C196.207 59.2003 196.02 59.156 195.938 59.0988C195.906 59.0732 196.105 58.8907 196.206 58.7787C196.229 58.7538 196.282 58.7262 196.321 58.7012C197.445 58.0207 198.565 57.3284 199.754 56.7623C201.022 56.131 202.328 55.5852 203.619 54.9985C204.921 54.4394 206.253 53.9503 207.585 53.4642C209.102 52.9311 210.613 52.4012 212.125 51.8709C213.408 51.392 214.725 51.014 216.037 50.6281C216.623 50.4589 217.23 50.319 217.813 50.2187C218.729 50.04 219.632 49.822 220.558 49.6162L224.834 48.6569C224.977 48.6259 225.215 48.6447 225.253 48.6944C225.292 48.7456 225.186 48.8863 225.067 48.9407C224.715 49.1041 224.34 49.2776 223.95 49.3849C222.406 49.7889 220.869 50.1926 219.332 50.5963C218.391 50.8892 217.456 51.1802 216.512 51.474C215.459 51.8063 214.417 52.1384 213.371 52.4684C212.334 52.828 211.291 53.1718 210.239 53.507C208.354 54.0615 206.549 54.8723 204.706 55.5576L201.597 56.8655L201.575 56.8141Z" fill="white"/>
<path d="M260.08 63.5425C258.268 64.0698 256.446 64.5822 254.613 65.0284C253.864 65.2104 253.098 65.3378 252.363 65.4381C252.14 65.4681 251.917 65.3896 251.841 65.3161C251.81 65.2836 252.146 65.1379 252.324 65.0443C252.366 65.0219 252.443 65.0046 252.504 64.9874C254.233 64.4568 255.978 63.923 257.685 63.3992C261.426 62.3136 265.117 61.0739 268.8 59.8028C270.876 59.0862 272.922 58.2365 274.934 57.3425C276.653 56.5839 278.335 55.7429 279.986 54.863C280.728 54.4825 281.474 54.0801 282.21 53.737C283.352 53.1625 284.444 52.4886 285.486 51.7153C287.1 50.5332 288.639 49.2335 289.915 47.7015C290.042 47.5491 290.299 47.3522 290.368 47.3568C290.439 47.3623 290.414 47.5738 290.323 47.7261C290.05 48.1819 289.762 48.6844 289.364 49.0944C287.856 50.7563 286.082 52.1493 284.233 53.4003C283.087 54.1701 281.894 54.8735 280.7 55.5528C278.022 57.0788 275.217 58.3526 272.341 59.4465C269.78 60.4225 267.202 61.3791 264.59 62.2221C263.099 62.7084 261.599 63.1589 260.095 63.5961L260.08 63.5425" fill="white"/>
<path d="M285.85 47.3837C285.374 47.7191 284.888 48.0401 284.373 48.3101C284.159 48.418 283.922 48.4814 283.687 48.518C283.616 48.532 283.504 48.4419 283.452 48.3689C283.43 48.3371 283.494 48.2331 283.524 48.161C283.532 48.1441 283.551 48.1348 283.569 48.123C284.006 47.8057 284.397 47.4205 284.831 47.1154C285.774 46.4566 286.617 45.6831 287.453 44.9071C287.685 44.6853 287.891 44.4379 288.101 44.1921L288.651 43.4006C288.923 42.9291 289.183 42.4514 289.375 41.9478C289.472 41.7272 289.611 41.5179 289.724 41.307C289.914 40.9786 290.066 40.6216 290.09 40.2377C290.121 39.9438 290.191 39.6537 290.206 39.3584L290.226 38.4697C290.229 38.4092 290.302 38.3107 290.356 38.2939C290.416 38.2772 290.53 38.3229 290.556 38.3762C290.636 38.5295 290.721 38.702 290.736 38.8768C290.829 39.5673 290.747 40.2729 290.637 40.9631C290.532 41.3848 290.45 41.8158 290.288 42.2195C290.019 43.1685 289.454 43.9874 288.845 44.7306C288.258 45.359 287.698 46.0081 287.037 46.5464C286.671 46.8706 286.276 47.1507 285.882 47.4304L285.85 47.3837" fill="white"/>
<path d="M235.179 68.1478C236.117 67.9448 237.049 67.7421 237.991 67.5376C238.373 67.4571 238.769 67.4291 239.152 67.4082C239.268 67.4015 239.397 67.5008 239.446 67.581C239.466 67.6152 239.303 67.7219 239.218 67.7952C239.199 67.8123 239.158 67.8216 239.129 67.8322C238.247 68.123 237.381 68.4655 236.48 68.6782C234.541 69.1474 232.603 69.6278 230.623 69.9206C229.509 70.0873 228.403 70.3436 227.286 70.5259C226.334 70.6866 225.39 70.8964 224.433 71.0243C224.006 71.0799 223.565 71.1058 223.145 71.0961C222.479 71.0812 221.83 71.1649 221.166 71.2526C220.137 71.3466 219.104 71.4189 218.074 71.487C217.974 71.492 217.808 71.4349 217.785 71.3806C217.762 71.3244 217.849 71.2008 217.936 71.1676C218.197 71.0662 218.472 70.9573 218.754 70.9174C219.865 70.7481 220.981 70.6601 222.086 70.4477C222.772 70.3351 223.448 70.2237 224.139 70.1112C225.663 69.8117 227.188 69.5446 228.73 69.3267C230.099 69.1072 231.467 68.8476 232.829 68.5625L235.169 68.0929L235.179 68.1478" fill="white"/>
<path d="M205.189 71.2207C205.1 71.4747 205.023 71.7343 204.919 71.9844C204.877 72.0846 204.784 72.1729 204.686 72.2532C204.655 72.2788 204.525 72.2704 204.437 72.2523C204.4 72.246 204.351 72.177 204.312 72.1356C204.303 72.1256 204.306 72.1149 204.308 72.1047C204.308 71.8331 204.26 71.5456 204.324 71.2931C204.465 70.7472 204.579 70.1918 204.836 69.6794C204.983 69.3936 205.059 69.0807 205.158 68.7757C205.239 68.5162 205.315 68.2472 205.414 67.992C205.46 67.8778 205.536 67.775 205.64 67.6865C205.808 67.5507 205.889 67.3821 205.962 67.2044C206.061 66.9331 206.234 66.6665 206.403 66.4109C206.421 66.3845 206.503 66.3834 206.553 66.41C206.604 66.4395 206.686 66.5259 206.695 66.5618C206.726 66.6685 206.762 66.7788 206.74 66.8501C206.644 67.119 206.563 67.4299 206.475 67.7254C206.418 67.9078 206.351 68.0899 206.315 68.2821C206.229 68.7125 206.08 69.117 205.888 69.5142C205.712 69.8638 205.611 70.2426 205.475 70.6093L205.243 71.2381L205.189 71.2207" fill="white"/>
<path d="M203.919 67.6919C203.879 68.0774 203.833 68.476 203.761 68.8652C203.733 69.0258 203.618 69.2049 203.52 69.337C203.488 69.3792 203.359 69.3768 203.276 69.3524C203.239 69.3442 203.191 69.2508 203.151 69.2C203.141 69.1885 203.145 69.1744 203.144 69.1617C203.148 68.8438 203.041 68.4372 203.076 68.0789C203.125 67.2783 203.138 66.4646 203.302 65.6628C203.403 65.2098 203.425 64.7456 203.473 64.288C203.53 63.894 203.56 63.497 203.624 63.1072C203.649 62.9314 203.725 62.7592 203.826 62.6037C203.983 62.3582 204.045 62.0967 204.101 61.8274C204.189 61.4141 204.36 61.0106 204.501 60.6103C204.514 60.5705 204.602 60.532 204.658 60.544C204.715 60.5571 204.811 60.6326 204.825 60.6769C204.866 60.8064 204.911 60.9413 204.894 61.0532C204.811 61.4925 204.717 61.9237 204.676 62.3761C204.643 62.6529 204.577 62.9205 204.566 63.2002C204.546 63.8301 204.441 64.4379 204.32 65.06C204.203 65.6084 204.165 66.1728 204.098 66.7331L203.976 67.6986L203.919 67.6919" fill="white"/>
<path d="M201.408 65.7672C201.357 65.8798 201.315 65.9976 201.248 66.104C201.22 66.1483 201.145 66.1729 201.061 66.194C201.034 66.2007 200.911 66.169 200.826 66.1416C200.789 66.1305 200.736 66.0853 200.694 66.0565C200.683 66.0499 200.687 66.0441 200.685 66.0397C200.654 65.9007 200.573 65.7444 200.602 65.6288C200.667 65.3777 200.698 65.1161 200.869 64.9036C200.964 64.7836 200.987 64.6361 201.033 64.4975C201.073 64.3802 201.088 64.2544 201.138 64.1388C201.159 64.0885 201.214 64.0473 201.295 64.0208C201.424 63.9779 201.46 63.9005 201.489 63.8206C201.534 63.6951 201.603 63.577 201.671 63.4623C201.679 63.4502 201.755 63.4559 201.809 63.4733C201.865 63.4898 201.967 63.5424 201.989 63.5615C202.048 63.621 202.113 63.685 202.114 63.7236C202.115 63.88 202.095 64.0266 202.076 64.1747C202.065 64.2687 202.033 64.353 202.032 64.4468C202.028 64.6597 201.957 64.8467 201.833 65.0158C201.723 65.1676 201.677 65.3434 201.599 65.5063C201.555 65.5991 201.508 65.6928 201.461 65.7864L201.408 65.7672" fill="white"/>
<path d="M199.6 61.7961C199.417 61.9995 199.234 62.2078 199.042 62.4027C198.967 62.4855 198.852 62.537 198.728 62.5816C198.689 62.5968 198.568 62.5485 198.49 62.5062C198.455 62.4878 198.432 62.4076 198.41 62.3548C198.404 62.342 198.413 62.3329 198.417 62.3218C198.515 62.0475 198.592 61.7493 198.766 61.534C198.951 61.2959 199.139 61.0555 199.321 60.8203C199.531 60.6053 199.749 60.4022 199.995 60.2232C200.271 60.0234 200.493 59.7662 200.734 59.527C200.934 59.3201 201.162 59.1416 201.387 58.9641C201.491 58.8868 201.617 58.835 201.757 58.8114C201.976 58.7744 202.134 58.6613 202.291 58.5404C202.532 58.353 202.786 58.1859 203.041 58.0183C203.066 58.0028 203.146 58.033 203.182 58.0768C203.219 58.1221 203.262 58.2316 203.256 58.269C203.239 58.381 203.222 58.4994 203.165 58.5621C202.94 58.806 202.7 59.0316 202.465 59.2577C202.322 59.3971 202.162 59.5189 202.023 59.6667C201.706 59.9857 201.365 60.2637 201.017 60.5453C200.697 60.7861 200.42 61.0782 200.122 61.3445C199.946 61.4924 199.804 61.6718 199.644 61.8327L199.6 61.7961" fill="white"/>
<path d="M226.428 67.8431C226.287 68.1369 226.152 68.4191 226.005 68.7279C225.943 68.8456 225.832 68.9462 225.72 69.0354C225.684 69.0644 225.554 69.0511 225.466 69.0281C225.429 69.0184 225.393 68.9326 225.358 68.8834C225.351 68.871 225.357 68.858 225.358 68.8478C225.41 68.5216 225.412 68.1753 225.532 67.8781C225.788 67.2337 226.024 66.5791 226.422 65.9991C226.642 65.6744 226.79 65.3089 226.987 64.9656C227.154 64.6734 227.284 64.3618 227.472 64.0793C227.556 63.9532 227.672 63.8431 227.807 63.7563C228.02 63.623 228.148 63.4364 228.276 63.2419C228.498 62.9554 228.738 62.6844 228.978 62.4164C229.002 62.3881 229.091 62.3945 229.139 62.4249C229.187 62.4588 229.253 62.558 229.253 62.6C229.256 62.7203 229.263 62.8509 229.215 62.9333C229.032 63.2726 228.807 63.5664 228.642 63.9129C228.534 64.1224 228.405 64.3188 228.306 64.5305C228.091 65.0102 227.837 65.4665 227.533 65.9012C227.276 66.2988 227.061 66.7203 226.853 67.145L226.48 67.8658L226.428 67.8431" fill="white"/>
<path d="M226.159 63.6682C226.103 64.0895 226.049 64.5006 225.99 64.9356C225.963 65.1055 225.884 65.2722 225.797 65.4329C225.772 65.4812 225.642 65.5148 225.551 65.52C225.513 65.5236 225.453 65.4371 225.41 65.3858C225.398 65.3748 225.399 65.3583 225.398 65.3426C225.36 64.9259 225.269 64.5031 225.302 64.0906C225.37 63.2034 225.421 62.3101 225.629 61.4379C225.755 60.9468 225.795 60.4416 225.873 59.9392C225.948 59.5134 226 59.0822 226.086 58.6582C226.12 58.4684 226.203 58.2827 226.313 58.1148C226.486 57.8515 226.563 57.5675 226.632 57.2764C226.733 56.8234 226.947 56.3891 227.112 55.9552C227.13 55.9126 227.221 55.8732 227.276 55.8871C227.334 55.9016 227.423 55.9873 227.436 56.0335C227.466 56.1759 227.504 56.3243 227.476 56.4443C227.418 56.6853 227.36 56.918 227.305 57.1483L227.181 57.8798C227.132 58.1826 227.047 58.4723 227.025 58.7796C226.972 59.4682 226.829 60.1313 226.678 60.8079C226.532 61.404 226.461 62.0189 226.373 62.6296L226.215 63.6754L226.159 63.6682" fill="white"/>
<path d="M222.786 63.9282C222.695 64.1729 222.606 64.4053 222.509 64.6664C222.47 64.7656 222.377 64.851 222.283 64.9314C222.255 64.9547 222.124 64.9531 222.036 64.9398C221.999 64.935 221.946 64.8688 221.906 64.8279C221.895 64.8183 221.9 64.8053 221.9 64.7974C221.895 64.5208 221.847 64.2285 221.923 63.9708C222.08 63.4199 222.236 62.8612 222.555 62.3751C222.722 62.0975 222.857 61.8007 223.003 61.5099C223.122 61.2601 223.236 61.0067 223.398 60.7759C223.466 60.671 223.563 60.5843 223.684 60.5197C223.873 60.418 223.974 60.264 224.097 60.1164C224.275 59.8836 224.476 59.6634 224.673 59.4491C224.692 59.4271 224.775 59.4388 224.822 59.4711C224.87 59.505 224.941 59.5994 224.945 59.6371C224.959 59.7459 224.976 59.8602 224.938 59.9316C224.796 60.2097 224.628 60.4619 224.481 60.7301C224.398 60.9026 224.297 61.0615 224.224 61.2377C224.049 61.6196 223.866 61.994 223.616 62.3395C223.397 62.6525 223.267 63.0125 223.102 63.3526L222.839 63.949L222.786 63.9282Z" fill="white"/>
<path d="M221.313 58.5794C221.243 58.9808 221.173 59.3725 221.101 59.7842C221.069 59.9476 220.983 60.1064 220.897 60.2573C220.871 60.3026 220.74 60.3348 220.651 60.3396C220.611 60.3421 220.553 60.2567 220.507 60.2077C220.498 60.1958 220.5 60.1792 220.5 60.1646C220.47 59.7569 220.389 59.3407 220.443 58.9409C220.55 58.079 220.65 57.2078 220.957 56.3828C221.12 55.9156 221.212 55.4301 221.371 54.9594C221.507 54.5585 221.576 54.1365 221.76 53.7504C221.835 53.5767 221.946 53.4117 222.078 53.2692C222.29 53.0488 222.396 52.7821 222.528 52.5233C222.754 52.1303 223.001 51.7471 223.248 51.3707C223.27 51.3346 223.367 51.3129 223.419 51.339C223.47 51.3651 223.544 51.4636 223.548 51.5111C223.556 51.6524 223.564 51.8016 223.517 51.9115C223.346 52.3585 223.089 52.7449 222.958 53.2084C222.864 53.4862 222.75 53.7542 222.666 54.0337C222.481 54.6563 222.31 55.286 222.052 55.8937C221.868 56.4532 221.713 57.0213 221.594 57.6009L221.371 58.5876L221.313 58.5794" fill="white"/>
<path d="M223.981 58.0421C223.884 58.1673 223.795 58.3031 223.684 58.4182C223.638 58.466 223.549 58.4855 223.455 58.495C223.426 58.4992 223.311 58.4409 223.235 58.3947C223.201 58.3743 223.166 58.3125 223.134 58.2707C223.126 58.2602 223.131 58.2554 223.132 58.2486C223.154 58.0801 223.133 57.8798 223.21 57.7462C223.375 57.4579 223.513 57.1489 223.77 56.9257C223.915 56.7986 223.997 56.6265 224.1 56.4687C224.188 56.3349 224.254 56.1869 224.35 56.0587C224.394 56.0001 224.466 55.9617 224.559 55.9428C224.707 55.9116 224.775 55.8262 224.837 55.7343C224.933 55.5934 225.05 55.4651 225.166 55.3388C225.178 55.3254 225.253 55.3462 225.302 55.3747C225.351 55.4047 225.437 55.4819 225.452 55.5096C225.489 55.5901 225.532 55.6756 225.515 55.7226C225.456 55.9074 225.375 56.0809 225.298 56.255C225.25 56.3619 225.183 56.4585 225.145 56.5705C225.057 56.8255 224.907 57.0365 224.713 57.2172C224.541 57.3803 224.423 57.5813 224.279 57.7646C224.197 57.8658 224.113 57.9694 224.028 58.0729L223.981 58.0421" fill="white"/>
<path d="M228.976 67.1405C228.998 67.2451 229.034 67.3456 229.04 67.4552C229.042 67.4997 228.996 67.5592 228.939 67.6219C228.922 67.64 228.805 67.6877 228.72 67.7185C228.684 67.7313 228.614 67.7316 228.564 67.7358C228.552 67.738 228.55 67.7336 228.548 67.7296C228.444 67.6549 228.289 67.5975 228.247 67.5037C228.155 67.3008 228.032 67.1094 228.047 66.8738C228.056 66.7401 227.989 66.6296 227.948 66.5114C227.912 66.4109 227.854 66.3157 227.827 66.2125C227.816 66.1673 227.837 66.1092 227.886 66.0473C227.966 65.9451 227.95 65.8739 227.929 65.803C227.894 65.6942 227.883 65.5796 227.871 65.4636C227.87 65.4509 227.936 65.4113 227.988 65.3935C228.044 65.3733 228.156 65.3485 228.184 65.3511C228.266 65.355 228.355 65.3614 228.378 65.3869C228.466 65.4905 228.535 65.5986 228.606 65.7077C228.649 65.7752 228.672 65.849 228.725 65.9133C228.844 66.0562 228.892 66.2225 228.889 66.4042C228.886 66.5668 228.948 66.7094 228.98 66.8611C228.997 66.9465 229.014 67.0349 229.03 67.1237L228.976 67.1405" fill="white"/>
<path d="M246.371 59.8235C246.348 60.3072 246.326 60.786 246.303 61.2828C246.293 61.48 246.229 61.6788 246.159 61.8716C246.138 61.9283 246.011 61.9835 245.921 62C245.883 62.0084 245.817 61.9141 245.768 61.8646C245.754 61.8525 245.756 61.831 245.754 61.8139C245.675 61.3421 245.54 60.8665 245.549 60.3918C245.568 59.3692 245.494 58.34 245.697 57.324C245.794 56.7512 245.813 56.1698 245.861 55.591C245.907 55.0986 245.895 54.598 246.009 54.1121C246.051 53.8922 246.127 53.6765 246.232 53.4762C246.396 53.159 246.463 52.8298 246.522 52.4931C246.616 51.9729 246.733 51.4568 246.851 50.9421C246.862 50.892 246.949 50.8281 247.005 50.8318C247.063 50.8366 247.165 50.9103 247.184 50.961C247.235 51.1132 247.29 51.2742 247.278 51.42C247.23 51.9925 247.161 52.5582 247.094 53.1219C247.054 53.4703 246.99 53.8181 246.96 54.1653C246.862 54.9404 246.862 55.7338 246.714 56.5116C246.61 57.2079 246.537 57.9122 246.498 58.6158L246.429 59.8234L246.371 59.8235" fill="white"/>
<path d="M248.931 60.2816C248.845 60.5004 248.768 60.7243 248.663 60.9378C248.622 61.0248 248.532 61.0946 248.431 61.1578C248.402 61.1781 248.273 61.158 248.187 61.136C248.15 61.1263 248.103 61.0617 248.063 61.0222C248.055 61.0118 248.059 61.0041 248.058 60.9947C248.063 60.754 248.015 60.4988 248.08 60.2785C248.218 59.8092 248.324 59.3275 248.567 58.8954C248.705 58.6509 248.768 58.3777 248.859 58.114C248.934 57.8905 248.985 57.6582 249.071 57.4379C249.108 57.3391 249.179 57.2493 249.274 57.1763C249.428 57.0597 249.49 56.9096 249.544 56.7555C249.629 56.5161 249.735 56.2845 249.842 56.0545C249.852 56.0337 249.935 56.0195 249.99 56.0349C250.047 56.048 250.146 56.1079 250.162 56.1386C250.215 56.2258 250.27 56.3204 250.259 56.39C250.218 56.671 250.156 56.9422 250.096 57.2144C250.061 57.3836 250.002 57.5439 249.974 57.7172C249.915 58.1008 249.783 58.4598 249.599 58.8039C249.438 59.109 249.34 59.438 249.21 59.7559L248.986 60.2985L248.931 60.2816" fill="white"/>
<path d="M244.155 53.2296C244.246 53.5816 244.334 53.9261 244.427 54.2917C244.463 54.4357 244.447 54.599 244.43 54.7564C244.423 54.8037 244.316 54.8867 244.237 54.9288C244.202 54.9476 244.117 54.9011 244.057 54.8792C244.043 54.8755 244.038 54.8592 244.03 54.8488C243.841 54.5288 243.607 54.2195 243.499 53.8711C243.262 53.1201 243.028 52.3613 242.985 51.5664C242.944 51.1232 242.876 50.682 242.822 50.238C242.771 49.8611 242.711 49.4821 242.717 49.0987C242.716 48.9277 242.748 48.753 242.81 48.5884C242.912 48.3293 242.9 48.0725 242.93 47.8113C242.96 47.406 243.014 47.0032 243.069 46.6034C243.075 46.5644 243.152 46.5115 243.208 46.5104C243.268 46.5098 243.379 46.5612 243.401 46.5998C243.47 46.7109 243.545 46.8284 243.55 46.9384C243.564 47.3834 243.577 47.7965 243.588 48.2164C243.616 48.4794 243.622 48.7425 243.661 49.0038C243.725 49.5867 243.814 50.1637 243.813 50.7588C243.831 51.2849 243.949 51.8046 244.035 52.3245L244.211 53.2158L244.155 53.2296" fill="white"/>
<path d="M246.056 48.01C246.007 48.0655 245.967 48.1296 245.903 48.175C245.877 48.1944 245.807 48.1836 245.731 48.1681C245.708 48.1622 245.6 48.0972 245.525 48.049C245.492 48.0268 245.446 47.9779 245.41 47.9438C245.401 47.9353 245.404 47.9343 245.403 47.9299C245.379 47.8273 245.312 47.6943 245.341 47.6305C245.407 47.4874 245.444 47.3256 245.603 47.2462C245.692 47.2008 245.718 47.1106 245.764 47.0364C245.802 46.9747 245.82 46.8965 245.868 46.838C245.889 46.8121 245.939 46.8064 246.012 46.8164C246.129 46.8337 246.164 46.7954 246.192 46.7526C246.237 46.6872 246.302 46.635 246.366 46.5827C246.373 46.5775 246.441 46.6084 246.489 46.6388C246.537 46.6707 246.627 46.7417 246.646 46.7617C246.697 46.822 246.753 46.8887 246.753 46.9131C246.748 47.0181 246.724 47.1079 246.705 47.1993C246.692 47.2567 246.66 47.3004 246.655 47.3633C246.645 47.5023 246.573 47.6003 246.459 47.6661C246.354 47.7277 246.308 47.8258 246.234 47.9066C246.194 47.9497 246.146 47.9984 246.103 48.0424L246.056 48.01" fill="white"/>
<path d="M241.583 45.5605C241.457 45.7995 241.391 46.0574 241.284 46.3006C241.248 46.399 241.155 46.4921 241.066 46.5761C241.04 46.6018 240.909 46.61 240.82 46.6065C240.782 46.6071 240.725 46.5403 240.683 46.4983C240.672 46.4888 240.676 46.4747 240.675 46.4654C240.658 46.1699 240.622 45.8578 240.709 45.5823C240.8 45.2874 240.916 45.0028 241.032 44.7167C241.175 44.4464 241.332 44.1799 241.519 43.938C241.754 43.6815 241.93 43.3881 242.127 43.1044C242.299 42.8689 242.487 42.6446 242.684 42.4288C242.773 42.3351 242.889 42.2606 243.021 42.2153C243.219 42.1363 243.387 42.0298 243.531 41.8934C243.761 41.6901 244.005 41.5066 244.248 41.3266C244.275 41.3087 244.356 41.334 244.394 41.3754C244.435 41.4179 244.484 41.5256 244.48 41.5641C244.47 41.6752 244.462 41.7942 244.41 41.857C244.205 42.1108 243.987 42.3427 243.773 42.5766C243.635 42.7146 243.52 42.8762 243.409 43.0363C243.165 43.4024 242.88 43.7164 242.598 44.0455C242.316 44.3214 242.146 44.6712 241.945 45.0012C241.82 45.1835 241.74 45.3893 241.636 45.5828L241.583 45.5605" fill="white"/>
<path d="M269.51 53.6472C269.43 53.9287 269.359 54.2158 269.26 54.4935C269.219 54.6064 269.13 54.7064 269.03 54.8018C269 54.8305 268.87 54.8284 268.782 54.8152C268.743 54.8109 268.695 54.7384 268.653 54.6964C268.644 54.6864 268.648 54.6753 268.647 54.666C268.642 54.3717 268.587 54.0671 268.644 53.7909C268.771 53.1928 268.861 52.5881 269.096 52.018C269.228 51.6962 269.284 51.354 269.365 51.0187C269.435 50.7306 269.481 50.4385 269.56 50.1555C269.594 50.0303 269.665 49.9083 269.76 49.8015C269.911 49.6355 269.967 49.4419 270.019 49.2432C270.095 48.9387 270.197 48.6391 270.299 48.3395C270.309 48.3104 270.392 48.2816 270.448 48.2902C270.507 48.2979 270.609 48.354 270.628 48.3867C270.683 48.4847 270.742 48.5892 270.735 48.6789C270.702 49.025 270.646 49.3686 270.596 49.7105C270.563 49.9227 270.51 50.1296 270.487 50.3436C270.438 50.8242 270.316 51.2836 270.143 51.7329C269.987 52.1315 269.897 52.552 269.777 52.9606L269.566 53.6622L269.51 53.6472" fill="white"/>
<path d="M268.025 49.7707C268.103 50.222 268.18 50.6655 268.258 51.1295C268.287 51.3129 268.261 51.5116 268.232 51.7015C268.221 51.7598 268.108 51.8349 268.023 51.8691C267.989 51.883 267.905 51.8102 267.847 51.7746C267.832 51.7665 267.829 51.7464 267.823 51.7321C267.656 51.3115 267.433 50.9032 267.341 50.4648C267.131 49.5258 266.903 48.5859 266.851 47.6159C266.822 47.0704 266.704 46.5346 266.65 45.9891C266.598 45.5233 266.507 45.0649 266.478 44.5971C266.468 44.3868 266.493 44.1724 266.547 43.965C266.633 43.6411 266.621 43.3248 266.601 43.0028C266.604 42.5011 266.633 41.999 266.664 41.4999C266.667 41.4506 266.742 41.3757 266.797 41.3716C266.855 41.3651 266.97 41.4171 266.995 41.4612C267.071 41.5929 267.154 41.7306 267.166 41.8658C267.221 42.4015 267.218 42.9277 267.305 43.4602C267.346 43.7885 267.365 44.1188 267.417 44.4454C267.548 45.1759 267.63 45.9072 267.664 46.6531C267.714 47.3148 267.811 47.9732 267.917 48.6308L268.082 49.7598L268.025 49.7707Z" fill="white"/>
<path d="M271.848 54.1462C271.814 54.1825 271.788 54.2244 271.736 54.2501C271.716 54.2594 271.653 54.2418 271.584 54.2162C271.562 54.2099 271.454 54.1415 271.382 54.0924C271.348 54.0721 271.299 54.026 271.261 53.9938C271.251 53.9873 271.254 53.9863 271.253 53.9819C271.216 53.8995 271.135 53.7872 271.153 53.7412C271.187 53.6433 271.194 53.5232 271.324 53.4881C271.397 53.4673 271.405 53.4016 271.434 53.3524C271.459 53.3091 271.462 53.2534 271.497 53.2151C271.511 53.1994 271.554 53.2023 271.622 53.2219C271.727 53.2541 271.753 53.2299 271.771 53.2019C271.801 53.1586 271.85 53.1275 271.901 53.0989C271.906 53.0956 271.972 53.1303 272.018 53.1612C272.065 53.1936 272.159 53.2617 272.176 53.2807C272.233 53.3343 272.294 53.3948 272.296 53.4134C272.31 53.4934 272.302 53.5586 272.299 53.626C272.295 53.6674 272.275 53.6963 272.282 53.7443C272.295 53.8487 272.247 53.9135 272.154 53.947C272.071 53.9774 272.043 54.0456 271.991 54.0957C271.963 54.1205 271.927 54.1509 271.895 54.1785L271.848 54.1462" fill="white"/>
<path d="M258.003 34.3517C257.465 34.7321 256.93 35.1086 256.384 35.4932C256.167 35.6489 255.916 35.7682 255.672 35.8774C255.596 35.9103 255.461 35.8583 255.389 35.8029C255.356 35.7807 255.414 35.6448 255.435 35.5641C255.44 35.5447 255.463 35.5262 255.479 35.5099C255.93 35.0401 256.368 34.5494 256.884 34.1563C258 33.3198 259.15 32.5085 260.412 31.8923C261.124 31.5501 261.816 31.1577 262.533 30.8127C263.15 30.5353 263.755 30.22 264.399 29.9989C264.687 29.899 264.981 29.8101 265.284 29.7927C265.76 29.7626 266.191 29.6089 266.65 29.5047L267.71 29.2674L268.787 29.1315C268.858 29.1224 268.979 29.1775 268.999 29.2327C269.019 29.2878 268.968 29.4103 268.91 29.4476C268.738 29.5521 268.558 29.6656 268.369 29.7076C267.993 29.7879 267.622 29.8795 267.257 29.9966C266.887 30.1058 266.517 30.2018 266.159 30.3444C265.715 30.5037 265.26 30.6388 264.832 30.8468C263.837 31.2919 262.912 31.7043 261.926 32.1452C261.064 32.5464 260.235 33.0261 259.422 33.5271C258.952 33.806 258.493 34.1007 258.035 34.3984L258.003 34.3517" fill="white"/>
<path d="M260.231 36.4832C260.05 36.6407 259.872 36.8007 259.683 36.9493C259.604 37.009 259.492 37.0323 259.373 37.0462C259.337 37.0493 259.229 36.9774 259.161 36.9192C259.132 36.896 259.12 36.8156 259.103 36.761C259.099 36.7492 259.107 36.742 259.111 36.7343C259.225 36.5181 259.305 36.2575 259.471 36.0918C259.828 35.7346 260.146 35.3311 260.598 35.0709C260.847 34.9232 261.046 34.7133 261.262 34.5239C261.451 34.3655 261.606 34.1722 261.815 34.0354C261.905 33.9705 262.019 33.9321 262.145 33.9209C262.343 33.9049 262.481 33.8124 262.618 33.709C262.828 33.5522 263.052 33.4152 263.277 33.2782C263.299 33.265 263.373 33.3019 263.408 33.3462C263.444 33.3915 263.489 33.5005 263.485 33.5356C263.474 33.6409 263.463 33.7525 263.415 33.8047C263.222 34.0176 263.017 34.2098 262.815 34.403C262.69 34.5222 262.552 34.6246 262.434 34.7513C262.169 35.0334 261.885 35.2985 261.548 35.5008C261.254 35.6899 260.993 35.9189 260.731 36.1449L260.27 36.5246L260.231 36.4832" fill="white"/>
<path d="M295.899 33.4501C295.239 33.815 294.583 34.1931 293.913 34.5431C293.641 34.6868 293.342 34.7834 293.05 34.8685C292.961 34.8943 292.829 34.8233 292.767 34.7554C292.738 34.7269 292.834 34.5972 292.876 34.5166C292.887 34.4968 292.914 34.4823 292.936 34.4657C293.526 34.0416 294.092 33.5686 294.715 33.199C296.058 32.3975 297.395 31.5837 298.784 30.8634C299.562 30.448 300.304 29.9609 301.057 29.4996L302.977 28.3025C303.265 28.1298 303.577 27.9836 303.891 27.8707C304.386 27.6941 304.831 27.4327 305.278 27.1611C305.968 26.7418 306.671 26.3412 307.374 25.9422C307.445 25.9023 307.594 25.897 307.638 25.9366C307.685 25.9773 307.685 26.1097 307.64 26.1673C307.504 26.34 307.359 26.5252 307.174 26.6548C306.429 27.154 305.699 27.6472 304.965 28.1398C304.503 28.4404 304.051 28.7362 303.584 29.0401C302.571 29.7383 301.52 30.3736 300.439 30.9617C299.473 31.5145 298.53 32.0521 297.576 32.5963L295.927 33.4996L295.899 33.4501" fill="white"/>
<path d="M301.187 27.1245C300.512 27.575 299.842 28.0349 299.158 28.4685C298.88 28.6444 298.57 28.7803 298.269 28.8989C298.176 28.9354 298.037 28.8765 297.967 28.8172C297.937 28.7911 298.028 28.6481 298.069 28.5611C298.08 28.5384 298.109 28.5215 298.13 28.5019C298.729 28.0008 299.295 27.4565 299.932 27.0085C301.291 26.0261 302.675 25.0795 304.06 24.1408C304.849 23.6216 305.601 23.0331 306.364 22.4684L308.306 21.0124C308.598 20.8012 308.917 20.6127 309.239 20.4618C309.746 20.2185 310.195 19.8991 310.648 19.5676C311.346 19.0536 312.06 18.5591 312.773 18.068C312.844 18.0188 313.001 17.9946 313.048 18.0304C313.098 18.0667 313.104 18.2022 313.061 18.2671C312.926 18.4604 312.785 18.6672 312.598 18.8217C311.849 19.4224 311.11 20.0136 310.371 20.6062C309.906 20.9692 309.449 21.3246 308.977 21.6914C307.958 22.5272 306.895 23.302 305.796 24.0363C304.811 24.6789 303.893 25.4253 302.902 26.0634L301.217 27.1736L301.187 27.1245" fill="white"/>
<path d="M290.846 31.1251C290.553 31.2962 290.264 31.4805 289.96 31.6372C289.837 31.7008 289.687 31.7212 289.535 31.7309C289.489 31.7338 289.391 31.646 289.335 31.5758C289.311 31.5459 289.332 31.4541 289.336 31.3946C289.337 31.378 289.349 31.3729 289.357 31.3638C289.596 31.1255 289.801 30.8425 290.074 30.6582C290.66 30.2628 291.227 29.8377 291.873 29.5356C292.237 29.3671 292.561 29.1298 292.899 28.9144C293.186 28.7305 293.462 28.5243 293.755 28.3503C293.886 28.2727 294.038 28.2211 294.198 28.2008C294.451 28.1666 294.651 28.0501 294.852 27.9252C295.162 27.7311 295.486 27.5588 295.806 27.3874C295.84 27.3691 295.927 27.4019 295.962 27.4477C295.999 27.493 296.031 27.6076 296.018 27.6454C295.978 27.7612 295.937 27.8853 295.859 27.9514C295.548 28.2086 295.224 28.4473 294.903 28.6886C294.706 28.8364 294.495 28.9659 294.303 29.1237C293.87 29.4767 293.4 29.7653 292.898 30.0102C292.453 30.2266 292.041 30.5019 291.612 30.7519L290.878 31.1737L290.846 31.1251" fill="white"/>
<path d="M329.458 17.1253C328.557 17.4836 327.665 17.8665 326.749 18.1903C326.378 18.3239 325.985 18.4126 325.607 18.4839C325.491 18.5067 325.351 18.4253 325.291 18.3531C325.267 18.3202 325.416 18.1918 325.491 18.109C325.509 18.0889 325.547 18.0741 325.576 18.0601C326.41 17.6451 327.228 17.1944 328.081 16.8238C329.917 16.024 331.763 15.2424 333.629 14.5033C334.678 14.0864 335.708 13.5948 336.743 13.1292L339.38 11.9184C339.763 11.726 340.169 11.5575 340.567 11.4285C341.199 11.2227 341.789 10.9261 342.384 10.6204C343.303 10.1467 344.233 9.69379 345.167 9.24147C345.259 9.19717 345.44 9.18819 345.485 9.22781C345.534 9.26755 345.505 9.41052 345.439 9.47299C345.239 9.6638 345.024 9.86745 344.773 10.0126C343.772 10.5728 342.78 11.1288 341.786 11.6868C341.163 12.0256 340.55 12.3598 339.924 12.7029C338.527 13.4367 337.079 14.0521 335.616 14.6495C334.309 15.1699 333.036 15.7815 331.722 16.288L329.479 17.1786L329.458 17.1253" fill="white"/>
<path d="M328.59 24.8647C327.671 25.1507 326.753 25.4446 325.826 25.6993C325.45 25.8039 325.056 25.8602 324.673 25.9007C324.557 25.9122 324.424 25.8207 324.371 25.7433C324.348 25.71 324.507 25.593 324.587 25.5167C324.606 25.4981 324.644 25.4877 324.674 25.4752C325.532 25.1335 326.373 24.7391 327.248 24.4486C329.137 23.8284 331.001 23.143 332.914 22.5897C333.986 22.2647 335.042 21.8586 336.101 21.481L338.779 20.4334C339.177 20.2804 339.603 20.175 340.003 20.065C340.638 19.9033 341.242 19.6495 341.849 19.3851C342.812 19.0126 343.673 18.4843 344.591 18.0399C344.681 17.9946 344.86 17.9797 344.908 18.0184C344.959 18.0577 344.938 18.1965 344.873 18.2634C344.679 18.4558 344.468 18.6644 344.22 18.815C343.728 19.1041 343.243 19.4212 342.734 19.6782L341.195 20.4043C340.558 20.7037 339.915 20.9922 339.269 21.2587C337.834 21.8866 336.374 22.4474 334.873 22.8998C333.536 23.3389 332.218 23.7721 330.892 24.2095L328.605 24.9197L328.59 24.8647" fill="white"/>
<path d="M310.87 31.6403C310.472 31.7869 310.075 31.9463 309.669 32.0747C309.503 32.129 309.317 32.1345 309.136 32.1273C309.081 32.1246 308.992 32.0244 308.949 31.9457C308.93 31.911 308.981 31.8208 309.004 31.7574C309.011 31.7424 309.027 31.7373 309.04 31.7284C309.393 31.5084 309.725 31.2381 310.102 31.0782C310.915 30.7311 311.715 30.3524 312.568 30.1107C313.05 29.9753 313.508 29.7631 313.972 29.5784C314.368 29.4175 314.755 29.2354 315.155 29.0864C315.332 29.0206 315.526 28.985 315.722 28.9798C316.031 28.9718 316.305 28.8731 316.58 28.7641C317.004 28.5981 317.438 28.4532 317.872 28.3099C317.915 28.2967 318.01 28.337 318.038 28.3865C318.067 28.439 318.069 28.5611 318.042 28.5986C317.959 28.7144 317.873 28.838 317.76 28.897C317.315 29.1295 316.861 29.3403 316.407 29.556C316.128 29.6888 315.839 29.8004 315.562 29.942C314.945 30.2614 314.302 30.508 313.637 30.7061C313.044 30.8839 312.473 31.1257 311.89 31.3375L310.891 31.6935L310.87 31.6403" fill="white"/>
</g>
<g opacity="0.5">
<path d="M287.739 100.766C272.022 106.589 258.41 111.364 242.552 116.953C232.533 120.514 222.464 124.194 212.573 128.34C210.099 129.373 207.651 130.467 205.247 131.624C204.046 132.207 202.864 132.819 201.73 133.478C200.572 134.141 199.663 134.858 198.702 135.827C196.807 137.655 195.152 139.714 193.863 141.979C193.222 143.114 192.674 144.294 192.207 145.523C191.968 146.133 191.754 146.766 191.518 147.412C191.393 147.742 191.272 148.073 191.097 148.434C191.031 148.601 190.882 148.815 190.771 149C190.635 149.179 190.359 149.479 190.203 149.546C188.799 150.339 187.587 150.748 186.313 151.298L182.507 152.743C179.957 153.652 177.413 154.579 174.845 155.42C169.723 157.16 164.556 158.741 159.378 160.249C149.009 163.25 138.551 165.759 128.107 167.954C120.732 169.487 113.351 170.937 105.864 171.994C103.986 172.246 102.111 172.48 100.17 172.577C99.6842 172.599 99.191 172.608 98.6698 172.584C98.4048 172.569 98.1428 172.553 97.8282 172.491C97.6754 172.462 97.5072 172.425 97.2861 172.332C97.1768 172.281 97.0626 172.235 96.8944 172.093C96.8234 172.036 96.752 171.977 96.6575 171.838C96.6178 171.778 96.5803 171.713 96.5475 171.649L96.5262 171.601C96.4949 171.473 96.5632 171.815 96.451 171.304L96.449 171.282C96.4378 171.408 96.4331 170.81 96.6093 170.605C96.664 170.521 96.7486 170.412 96.801 170.362C96.9061 170.257 96.9947 170.188 97.0677 170.136C97.2191 170.03 97.3444 169.959 97.4696 169.888C97.716 169.754 97.9422 169.649 98.1723 169.546C98.627 169.343 99.0747 169.164 99.5219 168.99C103.092 167.646 106.659 166.511 110.23 165.318C116.877 163.123 123.514 160.927 130.088 158.57C136.655 156.204 143.191 153.722 149.482 150.774C152.612 149.288 155.711 147.694 158.491 145.738C159.855 144.756 161.187 143.66 162.039 142.39C162.454 141.759 162.703 141.093 162.649 140.503C162.611 139.897 162.279 139.363 161.749 138.969C160.64 138.164 158.905 137.895 157.258 137.817C155.582 137.741 153.866 137.833 152.156 138.011C148.729 138.369 145.306 139.006 141.907 139.739C128.288 142.725 114.995 147.118 101.523 151.008C99.8338 151.486 98.138 151.952 96.4039 152.356L95.7522 152.502L94.6108 152.721C94.2307 152.783 93.8709 152.811 93.501 152.859C93.1804 152.862 92.852 152.861 92.5861 152.827C92.0439 152.735 91.846 152.549 91.5117 152.214C91.2772 151.667 91.3607 151.35 91.5731 150.954C91.8177 150.562 92.2394 150.115 92.8834 149.687C93.1816 149.47 93.5059 149.263 93.8491 149.065L94.3391 148.772L94.633 148.609C95.4174 148.175 96.2047 147.766 96.9994 147.376C98.5843 146.593 100.183 145.86 101.787 145.143C108.211 142.297 114.719 139.709 121.246 137.171C131.176 133.344 140.557 129.879 149.766 126.766C150.92 126.382 152.072 126.004 153.234 125.647C154.411 125.28 155.585 124.988 156.714 124.663C159 124.014 161.269 123.325 163.532 122.638C168.065 121.272 172.536 119.849 177.144 118.666C178.313 118.386 179.447 118.096 180.751 117.953C181.091 117.934 181.412 117.874 181.956 117.998C182.086 118.034 182.241 118.07 182.326 118.112L182.53 118.203L182.938 118.384C183.475 118.607 183.974 118.815 184.507 118.997C185.041 119.146 185.568 119.326 186.108 119.454L187.761 119.745C188.31 119.849 188.885 119.826 189.447 119.874C190.013 119.889 190.574 119.981 191.148 119.912L192.861 119.801L193.72 119.748C194.005 119.714 194.292 119.652 194.576 119.604C195.714 119.377 196.87 119.25 198.002 118.942C199.131 118.618 200.264 118.293 201.401 117.966C202.537 117.626 203.675 117.153 204.82 116.75C213.971 113.388 223.442 109.909 233.533 106.201C241.825 103.193 250.487 100.051 258.43 97.1696C266.384 94.3122 273.637 91.7629 279.092 89.9025C283.641 88.3505 284.786 88.2597 281.173 89.8065C278.418 90.9877 275.525 92.2336 272.096 93.5981C264.614 96.5768 257.02 99.5012 249.218 102.459C241.384 105.347 233.356 108.308 225.017 111.383C217.186 114.233 209.864 116.899 202.541 119.565C198.756 120.684 194.892 121.755 190.78 121.757C189.759 121.721 188.727 121.665 187.695 121.575C186.674 121.374 185.627 121.272 184.62 120.921C184.112 120.776 183.603 120.624 183.115 120.413C182.611 120.22 182.136 120.017 181.679 119.809C181.525 119.68 181.067 119.747 180.585 119.798C180.108 119.866 179.615 119.963 179.118 120.071C175.427 120.913 171.735 122.075 168.053 123.183C164.367 124.306 160.687 125.46 156.96 126.521C153.244 127.491 149.645 128.778 145.997 130.035C142.364 131.307 138.741 132.62 135.126 133.954C127.9 136.626 120.702 139.382 113.564 142.271C109.996 143.716 106.442 145.197 102.935 146.755C101.183 147.537 99.4396 148.337 97.7378 149.187C96.9079 149.599 95.995 150.077 95.2834 150.485C95.22 150.526 95.1967 150.54 95.169 150.576C95.1466 150.613 95.2182 150.604 95.2378 150.6L95.4913 150.541C96.7843 150.253 98.0856 149.907 99.3862 149.549C101.987 148.827 104.587 148.048 107.188 147.267C112.389 145.698 117.593 144.108 122.82 142.605C129.248 140.764 135.709 139.004 142.285 137.612C145.575 136.929 148.891 136.325 152.28 135.994C153.974 135.836 155.688 135.745 157.436 135.831C158.311 135.882 159.193 135.964 160.092 136.169C160.984 136.374 161.905 136.661 162.774 137.254C163.646 137.825 164.38 138.838 164.581 139.957C164.791 141.104 164.437 142.222 163.952 143.061C162.949 144.758 161.569 145.893 160.196 146.949C157.403 149.006 154.401 150.58 151.375 152.062C145.3 154.981 139.046 157.398 132.761 159.698C127.464 161.626 122.133 163.44 116.794 165.218C111.467 167.008 106.08 168.697 100.85 170.599C100.204 170.843 99.5568 171.093 98.9565 171.363C98.6707 171.49 98.3409 171.658 98.2186 171.749L98.2037 171.758C98.1893 171.727 98.0728 171.59 97.9982 171.521C97.8947 171.431 97.8467 171.37 97.7844 171.32C97.7078 171.271 97.6414 171.228 97.6194 171.188C97.5997 171.172 97.5653 171.16 97.5442 171.164L97.5302 171.198C97.5782 171.175 97.4107 171.277 97.6364 171.149L97.6556 171.143L97.6877 171.127C97.6949 171.113 97.7944 171.037 97.8517 170.945C97.8787 170.876 98.0013 170.707 98.058 170.56C98.0958 170.468 98.061 170.533 98.0678 170.514L98.0922 170.519C98.1159 170.528 98.1645 170.539 98.2244 170.549C98.7267 170.632 99.4422 170.621 100.102 170.592C100.776 170.561 101.463 170.503 102.151 170.433C104.904 170.151 107.675 169.723 110.435 169.266C115.959 168.342 121.469 167.261 126.96 166.112C134.111 164.588 145.202 162.215 157.874 158.642C164.208 156.849 170.952 154.789 177.799 152.457C181.204 151.266 184.697 150.075 188.032 148.657L189.124 148.128C189.166 148.107 189.222 148.085 189.25 148.067C189.259 148.049 189.269 148.035 189.281 148.023C189.293 148.01 189.307 147.999 189.324 147.991L189.38 147.891C189.462 147.782 189.545 147.59 189.626 147.41C189.951 146.644 190.245 145.719 190.595 144.849C191.272 143.078 192.159 141.361 193.206 139.777C194.259 138.192 195.452 136.713 196.774 135.385C197.427 134.704 198.099 134.087 198.819 133.456C199.607 132.813 200.413 132.348 201.212 131.869C204.442 130.093 207.716 128.678 210.92 127.31C217.335 124.609 223.504 122.285 229.1 120.202C240.298 116.062 249.228 112.983 253.75 111.418C266.418 107.069 275.531 104.374 287.739 100.766" fill="white"/>
<path d="M282.613 82.3486C282.429 82.7445 282.499 83.2645 282.55 83.7303C282.621 84.2078 282.711 84.6794 282.829 85.1443C283.05 86.0782 283.318 86.9878 283.597 87.8864C284.16 89.6832 284.775 91.4265 285.417 93.1601C286.066 94.89 286.743 96.6113 287.494 98.3275C287.873 99.1839 288.268 100.042 288.7 100.88C289.132 101.699 289.618 102.579 290.163 103.174C290.264 103.275 290.28 103.298 290.324 103.325C290.357 103.36 290.417 103.359 290.448 103.359C290.46 103.363 290.666 103.342 290.787 103.323C290.924 103.31 291.075 103.279 291.223 103.253C291.816 103.148 292.43 102.998 293.037 102.851C294.259 102.545 295.482 102.197 296.704 101.842C299.146 101.128 301.587 100.36 304.026 99.572C308.903 97.9914 313.776 96.3267 318.641 94.6383C328.357 91.2207 338.077 87.8036 347.668 84.4309C354.443 82.069 361.209 79.7225 367.954 77.2841C374.232 75.0089 380.513 72.7249 386.74 70.3391C388.295 69.7409 389.849 69.1348 391.374 68.5007L392.492 68.0141L392.768 67.8793C392.803 67.8684 392.82 67.8355 392.819 67.8003C392.836 67.8583 392.788 67.3687 392.716 67.003C392.647 66.6203 392.558 66.226 392.464 65.8329C391.662 62.6714 390.554 59.5135 389.4 56.4088C388.222 53.3162 386.981 50.2042 385.462 47.3343C385.271 46.9811 385.072 46.635 384.863 46.3131C384.76 46.1543 384.653 45.9979 384.549 45.8636L384.46 45.7536C384.448 45.7396 384.433 45.7246 384.418 45.713C384.39 45.6831 384.347 45.6816 384.311 45.6993L383.936 45.8211L382.761 46.2151L378.038 47.8598C371.75 50.1138 365.466 52.3684 359.182 54.621C340.117 61.5552 325.569 66.8706 306.357 74.1131C298.487 77.1 289.801 80.0793 284.639 81.901C284.095 82.0878 283.677 82.2408 283.35 82.3349C283.268 82.3569 283.194 82.3782 283.125 82.3961C283.078 82.4107 283.037 82.42 282.996 82.4263C282.914 82.4401 282.84 82.4452 282.787 82.442C282.752 82.4334 282.754 82.4506 282.704 82.4142C282.661 82.3839 282.644 82.3728 282.655 82.3809L282.692 82.4066L282.689 82.3978C282.681 82.3712 282.7 82.3281 282.751 82.2658C282.841 82.1282 283.111 81.9302 283.519 81.6963C284.767 80.9776 286.107 80.2694 287.715 79.5415C294.747 76.3896 302.108 73.6533 310.047 70.6646C317.516 67.9273 324.013 65.5477 331.485 62.8111C345.281 57.6722 359.113 52.5884 372.967 47.577C375.409 46.7022 377.855 45.8265 380.301 44.9524L382.145 44.3086L383.076 43.9915L383.546 43.8353C383.601 43.8136 383.741 43.7705 383.907 43.7455L384.367 43.6554C385.001 43.4908 385.556 43.9634 385.971 44.4288C386.286 44.7986 386.446 45.0613 386.647 45.3727C387.023 45.9697 387.337 46.5618 387.641 47.158C389.099 50.0856 390.279 53.0609 391.409 56.0698C392.517 59.0889 393.568 62.1057 394.375 65.2786C394.472 65.6786 394.565 66.0833 394.644 66.4999C394.683 66.7095 394.721 66.9224 394.751 67.1444L394.79 67.4863C394.804 67.5917 394.808 67.8346 394.812 68.0145C394.806 68.4008 394.719 68.7735 394.488 69.0594C394.221 69.3048 393.918 69.5421 393.578 69.6935C393.182 69.8852 392.814 70.0418 392.439 70.2027C390.945 70.8355 389.458 71.4079 387.967 71.9866C384.985 73.1323 381.995 74.245 379.002 75.3474C368.921 79.06 358.813 82.6791 348.68 86.2347C342.077 88.5517 328.211 93.365 314.837 97.7598C308.148 99.9517 301.593 102.06 296.089 103.614C294.71 104 293.4 104.351 292.137 104.627C291.826 104.698 291.502 104.753 291.189 104.81L290.692 104.873C290.533 104.88 290.202 104.891 289.992 104.829C289.747 104.805 289.565 104.63 289.362 104.514C289.184 104.361 289.072 104.245 288.953 104.12C288.745 103.875 288.556 103.633 288.4 103.396C287.17 101.498 286.563 99.9104 286.09 98.8471C284.852 95.8586 284.054 93.221 283.412 90.5874C283.094 89.2711 282.821 87.9505 282.609 86.5791C282.505 85.8922 282.413 85.1914 282.369 84.4712C282.347 84.1111 282.333 83.7453 282.356 83.3779C282.377 83.0223 282.409 82.6116 282.613 82.3486" fill="white"/>
<path d="M140.029 161.287L133.552 163.056C132.672 163.29 131.774 163.474 130.908 163.64C130.647 163.69 130.387 163.631 130.298 163.563C130.259 163.535 130.658 163.356 130.868 163.246C130.918 163.219 131.007 163.195 131.079 163.171C133.129 162.522 135.158 161.822 137.228 161.233C141.684 159.957 146.142 158.679 150.628 157.485C153.147 156.793 155.67 156.02 158.188 155.275L164.626 153.353C165.583 153.075 166.569 152.823 167.515 152.614C169.008 152.284 170.475 151.861 171.965 151.422L178.875 149.439C179.105 149.373 179.487 149.337 179.547 149.379C179.61 149.421 179.436 149.591 179.243 149.674C178.67 149.923 178.059 150.191 177.425 150.393L169.903 152.732L165.244 154.157C161.78 155.251 158.302 156.27 154.795 157.242C151.674 158.117 148.552 159.041 145.415 159.881L140.042 161.344L140.029 161.287" fill="white"/>
<path d="M196.903 132.386C197.372 131.925 197.833 131.46 198.32 131.021C198.519 130.841 198.754 130.699 198.988 130.572C199.061 130.534 199.199 130.579 199.274 130.63C199.307 130.651 199.262 130.784 199.249 130.867C199.244 130.887 199.225 130.905 199.211 130.922C198.814 131.413 198.46 131.944 198.027 132.396C197.093 133.37 196.196 134.38 195.214 135.309C194.663 135.834 194.167 136.42 193.668 136.997C193.242 137.489 192.843 138.003 192.432 138.499C192.249 138.724 192.035 138.928 191.81 139.106C191.47 139.398 191.183 139.739 190.939 140.113C190.564 140.684 190.146 141.254 189.91 141.866C189.883 141.928 189.774 142.002 189.713 142C189.652 141.994 189.567 141.904 189.566 141.836C189.561 141.641 189.561 141.416 189.627 141.218C189.949 140.489 190.351 139.803 190.789 139.16C191.055 138.757 191.352 138.378 191.63 137.988C192.248 137.105 192.955 136.305 193.715 135.548C194.387 134.851 195.04 134.177 195.703 133.492L196.864 132.345L196.903 132.386" fill="white"/>
<path d="M167.726 150.58C166.826 150.855 165.93 151.13 165.027 151.406C164.659 151.511 164.273 151.569 163.9 151.612C163.786 151.625 163.651 151.535 163.597 151.458C163.573 151.427 163.725 151.307 163.802 151.232C163.821 151.213 163.86 151.203 163.888 151.189C164.725 150.843 165.544 150.443 166.403 150.158C168.253 149.54 170.093 148.889 171.98 148.378C173.044 148.091 174.092 147.725 175.143 147.385L177.832 146.501C178.231 146.376 178.65 146.283 179.056 146.222C179.698 146.128 180.311 145.941 180.935 145.743C181.895 145.436 182.863 145.152 183.829 144.869C183.926 144.841 184.096 144.865 184.13 144.913C184.165 144.963 184.111 145.101 184.034 145.151C183.807 145.305 183.563 145.47 183.301 145.569C182.255 145.944 181.221 146.317 180.183 146.69C179.537 146.913 178.9 147.135 178.248 147.362C176.816 147.891 175.365 148.349 173.893 148.759C172.582 149.124 171.282 149.555 169.979 149.956L167.741 150.635L167.726 150.58" fill="white"/>
<path d="M117.411 142.953C116.512 143.237 115.617 143.52 114.716 143.804C114.349 143.914 113.964 143.976 113.589 144.025C113.476 144.04 113.342 143.951 113.286 143.876C113.262 143.843 113.414 143.723 113.49 143.645C113.508 143.626 113.547 143.615 113.575 143.602C114.409 143.246 115.224 142.832 116.084 142.539C117.934 141.913 119.774 141.247 121.664 140.73C122.732 140.451 123.787 140.094 124.844 139.763L127.546 138.903C127.947 138.782 128.367 138.685 128.783 138.65C129.434 138.583 130.061 138.424 130.694 138.254C131.673 137.99 132.656 137.751 133.638 137.514C133.738 137.49 133.905 137.52 133.936 137.571C133.966 137.623 133.901 137.758 133.824 137.806C133.587 137.95 133.336 138.103 133.069 138.188C132.009 138.515 130.961 138.837 129.911 139.162C129.26 139.362 128.6 139.522 127.959 139.765C126.52 140.283 125.065 140.728 123.586 141.124C122.267 141.47 120.968 141.904 119.665 142.316L117.426 143.008L117.411 142.953Z" fill="white"/>
<path d="M161.048 134.635C160.692 134.498 160.327 134.384 159.963 134.275C159.815 134.23 159.674 134.136 159.539 134.042C159.497 134.011 159.476 133.882 159.474 133.79C159.473 133.752 159.564 133.698 159.612 133.656C159.624 133.647 159.641 133.65 159.656 133.651C160.055 133.642 160.469 133.615 160.855 133.719C161.675 133.948 162.504 134.257 163.188 134.803C163.57 135.111 163.973 135.392 164.335 135.733C164.637 136.026 164.939 136.328 165.176 136.685C165.295 136.834 165.354 137.027 165.385 137.217C165.44 137.515 165.567 137.759 165.661 138.03C165.849 138.433 165.922 138.87 166 139.298C166.01 139.34 165.954 139.421 165.899 139.437C165.845 139.456 165.723 139.438 165.689 139.41C165.586 139.319 165.478 139.229 165.436 139.124C165.298 138.701 165.089 138.313 164.886 137.933C164.73 137.714 164.62 137.47 164.436 137.274C164.04 136.832 163.652 136.406 163.217 135.987C162.829 135.617 162.36 135.334 161.876 135.087C161.603 134.937 161.317 134.81 161.028 134.687L161.048 134.635" fill="white"/>
<path d="M195.392 123.106C194.596 123.141 193.806 123.23 193 123.115C192.675 123.105 192.347 122.951 192.058 122.826C191.962 122.772 191.928 122.625 191.947 122.539C191.954 122.501 192.107 122.483 192.184 122.453C192.206 122.446 192.235 122.452 192.26 122.454C192.433 122.465 192.609 122.476 192.789 122.487L193.331 122.449C193.688 122.441 194.045 122.4 194.408 122.36C194.798 122.325 195.187 122.309 195.575 122.256L196.741 122.044C197.521 121.936 198.293 121.741 199.073 121.577C199.956 121.403 200.831 121.158 201.68 120.836L203.867 120.065C204.195 119.966 204.536 119.872 204.867 119.801C205.392 119.697 205.885 119.502 206.381 119.296C207.149 118.977 207.926 118.682 208.704 118.386C208.781 118.357 208.931 118.374 208.969 118.42C209.008 118.466 208.985 118.6 208.928 118.651C208.759 118.805 208.579 118.97 208.369 119.072C207.53 119.463 206.703 119.848 205.874 120.234C205.355 120.462 204.841 120.711 204.31 120.913C203.128 121.382 201.929 121.813 200.693 122.133C199.568 122.349 198.484 122.716 197.348 122.891C196.696 122.984 196.052 123.101 195.397 123.162L195.392 123.106" fill="white"/>
<path d="M279.468 92.2396C280.444 91.8889 281.418 91.5406 282.399 91.1871C282.796 91.0516 283.217 90.9627 283.622 90.888C283.746 90.866 283.892 90.947 283.953 91.0188C283.979 91.0497 283.814 91.1812 283.732 91.2648C283.712 91.2853 283.671 91.2995 283.639 91.3144C282.733 91.7337 281.846 92.2008 280.916 92.5599C278.91 93.3323 276.917 94.1383 274.868 94.8062C273.716 95.1836 272.58 95.6366 271.439 96.0637L268.528 97.1733C268.093 97.3313 267.637 97.462 267.195 97.5544C266.496 97.7019 265.829 97.941 265.155 98.1922C264.114 98.579 263.064 98.9441 262.014 99.3063C261.91 99.343 261.722 99.3347 261.682 99.2888C261.641 99.2415 261.696 99.1001 261.777 99.0413C262.021 98.8692 262.281 98.6841 262.565 98.5627C263.698 98.0993 264.82 97.6392 265.945 97.1796C266.645 96.9011 267.338 96.6249 268.042 96.3452C269.596 95.6922 271.171 95.112 272.77 94.5793C274.196 94.1047 275.605 93.5627 277.02 93.0546L279.449 92.1854L279.468 92.2396" fill="white"/>
<path d="M247.398 111.915L241.617 113.846C240.831 114.103 240.024 114.309 239.246 114.497C239.009 114.553 238.767 114.502 238.68 114.438C238.642 114.41 238.993 114.221 239.176 114.108C239.218 114.08 239.299 114.054 239.363 114.028C241.185 113.329 242.985 112.58 244.831 111.939C248.805 110.559 252.769 109.141 256.783 107.854C259.047 107.131 261.3 106.319 263.552 105.536L269.308 103.512C270.162 103.215 271.046 102.945 271.897 102.718C273.236 102.358 274.549 101.913 275.872 101.43C277.916 100.687 279.988 99.9995 281.982 99.2014C282.181 99.1254 282.528 99.0655 282.592 99.1007C282.659 99.1369 282.528 99.3112 282.362 99.4061C281.869 99.6839 281.337 99.9848 280.774 100.224C278.553 101.131 276.319 101.943 274.082 102.786L269.926 104.296C266.839 105.46 263.727 106.516 260.588 107.545C257.791 108.454 255 109.426 252.206 110.368L247.415 111.969L247.398 111.915" fill="white"/>
<path d="M231.551 117.03C231.884 116.898 232.212 116.757 232.55 116.643C232.689 116.597 232.848 116.596 233.005 116.608C233.053 116.612 233.138 116.714 233.181 116.793C233.201 116.824 233.163 116.913 233.149 116.972C233.146 116.988 233.131 116.992 233.122 116.998C232.836 117.204 232.571 117.457 232.259 117.603C231.588 117.917 230.93 118.262 230.214 118.472C229.809 118.59 229.433 118.782 229.048 118.949C228.721 119.092 228.402 119.258 228.07 119.392C227.921 119.451 227.758 119.48 227.591 119.479C227.325 119.478 227.099 119.567 226.87 119.663C226.517 119.812 226.156 119.941 225.794 120.067C225.757 120.08 225.674 120.035 225.644 119.987C225.614 119.937 225.602 119.818 225.623 119.78C225.685 119.671 225.749 119.551 225.841 119.498C226.205 119.284 226.579 119.092 226.952 118.896C227.183 118.775 227.422 118.674 227.649 118.544C228.155 118.253 228.688 118.03 229.247 117.857C229.742 117.701 230.215 117.483 230.698 117.294L231.529 116.978L231.551 117.03" fill="white"/>
<path d="M285.784 87.0295C285.624 86.2562 285.438 85.4893 285.311 84.709C285.257 84.3926 285.25 84.0651 285.263 83.7474C285.268 83.6507 285.376 83.5463 285.459 83.5062C285.494 83.4889 285.588 83.6264 285.653 83.6953C285.668 83.7118 285.673 83.7441 285.681 83.7707C285.906 84.4917 286.181 85.2006 286.363 85.9318C286.738 87.5098 287.18 89.0708 287.529 90.6569C287.727 91.5512 287.986 92.438 288.279 93.3062L289.022 95.5323C289.14 95.8579 289.228 96.2025 289.283 96.5413C289.37 97.0754 289.549 97.5808 289.738 98.0884C290.088 98.8469 290.413 99.6147 290.74 100.387C290.773 100.464 290.762 100.616 290.718 100.657C290.674 100.698 290.541 100.682 290.487 100.626C290.327 100.464 290.153 100.286 290.042 100.078C289.619 99.2514 289.149 98.4314 288.824 97.5601C288.606 97.026 288.393 96.5017 288.173 95.9601C287.685 94.769 287.313 93.5389 287 92.2921C286.754 91.172 286.405 90.0754 286.161 88.9563C286.016 88.3173 285.859 87.682 285.729 87.0399L285.784 87.0295" fill="white"/>
<path d="M304.781 96.5684L297.837 98.8594C296.893 99.1645 295.927 99.4216 294.998 99.6591C294.714 99.7302 294.432 99.6909 294.334 99.6291C294.292 99.6032 294.717 99.3916 294.939 99.2649C294.991 99.2343 295.09 99.2024 295.167 99.1739C297.36 98.3564 299.533 97.4921 301.752 96.7363C306.532 95.1065 311.301 93.4428 316.126 91.9171C318.842 91.0585 321.558 90.1172 324.27 89.2033L331.205 86.8519C332.236 86.5103 333.298 86.1928 334.317 85.9228C335.924 85.4943 337.504 84.9724 339.108 84.435L346.55 81.9907C346.797 81.9114 347.208 81.8511 347.273 81.8892C347.339 81.9288 347.151 82.1111 346.943 82.2089C346.324 82.4965 345.666 82.8057 344.983 83.0499L336.889 85.889L331.876 87.6247C328.147 88.9485 324.406 90.1987 320.631 91.4013C317.269 92.4751 313.914 93.616 310.556 94.7276L304.796 96.6234L304.781 96.5684" fill="white"/>
<path d="M359.925 77.386L354.842 79.0639C354.152 79.2844 353.439 79.4585 352.752 79.6136C352.544 79.6596 352.325 79.5994 352.247 79.533C352.212 79.5034 352.516 79.3321 352.677 79.2259C352.715 79.1999 352.786 79.1781 352.842 79.1559C354.44 78.5362 356.018 77.8677 357.64 77.3087C361.134 76.104 364.618 74.8664 368.155 73.7663C370.146 73.1469 372.131 72.4488 374.113 71.7754L379.186 70.041C379.941 69.7908 380.722 69.5664 381.472 69.384C382.659 69.0963 383.815 68.7146 384.988 68.3196L390.436 66.5357C390.617 66.4784 390.924 66.4517 390.976 66.494C391.031 66.5368 390.902 66.7009 390.752 66.7795C390.308 67.0101 389.833 67.2581 389.335 67.4405C387.362 68.1478 385.393 68.8527 383.422 69.558L379.759 70.8472C377.038 71.8367 374.3 72.7554 371.533 73.6251C369.07 74.4011 366.616 75.2453 364.157 76.0572L359.942 77.4406L359.925 77.386" fill="white"/>
<path d="M296.842 96.0957C295.718 96.4595 294.597 96.8206 293.47 97.1854C293.009 97.3272 292.532 97.4207 292.07 97.4984C291.93 97.5221 291.773 97.4412 291.71 97.3684C291.682 97.3365 291.877 97.2023 291.978 97.1162C292.001 97.0962 292.05 97.0812 292.087 97.065C293.137 96.6349 294.169 96.1526 295.244 95.7812C297.556 94.9836 299.858 94.1506 302.211 93.457C303.536 93.0669 304.846 92.5989 306.163 92.1549L309.521 91.0096C310.021 90.8443 310.542 90.7113 311.047 90.6125C311.843 90.458 312.61 90.2104 313.388 89.9499L317.004 88.7965C317.125 88.7577 317.336 88.7656 317.374 88.8119C317.416 88.8588 317.343 89.0042 317.248 89.064C316.96 89.2401 316.654 89.4294 316.325 89.5552C315.019 90.0331 313.72 90.5088 312.42 90.9849C311.612 91.271 310.811 91.5579 309.998 91.8469C308.204 92.5187 306.389 93.1197 304.548 93.6732C302.911 94.1644 301.287 94.7239 299.655 95.2524L296.859 96.1503L296.842 96.0957" fill="white"/>
<path d="M329.233 85.5537L324.854 87.0423C324.258 87.2386 323.641 87.3866 323.048 87.5175C322.866 87.5572 322.673 87.4907 322.598 87.4216C322.566 87.3925 322.826 87.2319 322.96 87.1339C322.992 87.1097 323.053 87.0891 323.102 87.0693C324.473 86.5098 325.824 85.9015 327.221 85.4036C330.227 84.3279 333.224 83.2212 336.272 82.2506C337.99 81.704 339.695 81.079 341.403 80.4804L345.767 78.9348C346.418 78.7105 347.093 78.5155 347.743 78.359C348.77 78.1141 349.764 77.7755 350.776 77.4237L355.467 75.8407C355.624 75.7891 355.892 75.7729 355.939 75.8165C355.989 75.8611 355.883 76.0179 355.757 76.0907C355.378 76.3028 354.974 76.5339 354.544 76.6969C352.848 77.3304 351.155 77.9631 349.462 78.5942C348.412 78.9774 347.365 79.3611 346.313 79.7463C343.975 80.6342 341.616 81.4508 339.232 82.2203C337.107 82.9051 334.997 83.658 332.881 84.3791L329.248 85.6088L329.233 85.5537Z" fill="white"/>
<path d="M365.435 72.4424L361.367 73.7627C360.813 73.9365 360.24 74.0611 359.687 74.17C359.518 74.2027 359.335 74.1296 359.268 74.0582C359.237 74.0272 359.478 73.8788 359.602 73.784C359.631 73.7622 359.687 73.7449 359.733 73.7259C361.006 73.2209 362.261 72.6665 363.558 72.2221C366.351 71.2636 369.134 70.2727 371.968 69.4197C373.564 68.9382 375.148 68.3793 376.736 67.8468L380.792 66.469C381.395 66.2704 382.022 66.1017 382.627 65.9706C383.581 65.764 384.508 65.4625 385.445 65.1514L389.807 63.7489C389.951 63.7029 390.201 63.697 390.247 63.741C390.292 63.7885 390.197 63.9392 390.08 64.0059C389.727 64.2049 389.353 64.4171 388.955 64.5637C387.379 65.1331 385.807 65.6977 384.235 66.2643C383.259 66.6081 382.286 66.9496 381.308 67.2944C379.136 68.0909 376.945 68.817 374.729 69.4943C372.754 70.0974 370.793 70.7688 368.826 71.4083L365.451 72.4975L365.435 72.4424" fill="white"/>
<path d="M375.704 65.5297C375.132 65.7188 374.563 65.9181 373.988 66.0885C373.753 66.1578 373.501 66.1789 373.253 66.1888C373.178 66.191 373.078 66.0924 373.032 66.0146C373.011 65.9804 373.1 65.8804 373.142 65.8124C373.152 65.7965 373.176 65.7893 373.194 65.7804C373.714 65.5184 374.215 65.2075 374.758 65.0065C375.927 64.5738 377.084 64.1076 378.291 63.7813C378.972 63.5977 379.632 63.3364 380.298 63.1022L381.996 62.4858C382.251 62.4008 382.522 62.3465 382.787 62.3262C383.209 62.2901 383.6 62.1633 383.995 62.0273C384.603 61.8156 385.219 61.6262 385.835 61.4396C385.897 61.4205 386.017 61.4565 386.047 61.5071C386.077 61.5576 386.059 61.6842 386.014 61.7271C385.882 61.855 385.74 61.9924 385.577 62.0639C384.928 62.3459 384.271 62.6063 383.616 62.8711C383.212 63.0342 382.798 63.1761 382.397 63.3481C381.498 63.7348 380.578 64.0487 379.635 64.3147C378.795 64.5507 377.975 64.8533 377.145 65.1248L375.721 65.5843L375.704 65.5297" fill="white"/>
<path d="M314.252 87.167C313.619 87.3634 312.989 87.5736 312.351 87.7537C312.091 87.8259 311.814 87.8513 311.544 87.8631C311.463 87.8671 311.357 87.7674 311.31 87.6896C311.29 87.6554 311.391 87.5532 311.441 87.4845C311.452 87.4696 311.479 87.4614 311.5 87.4502C312.081 87.1808 312.644 86.8586 313.247 86.6488C314.544 86.1995 315.83 85.7148 317.165 85.3685C317.917 85.1743 318.651 84.903 319.388 84.6582L321.275 84.0144C321.556 83.9261 321.855 83.8681 322.147 83.843C322.609 83.8024 323.042 83.6693 323.479 83.5264C324.153 83.3061 324.837 83.1069 325.518 82.9101C325.587 82.8907 325.716 82.9269 325.745 82.976C325.776 83.028 325.751 83.1554 325.7 83.2001C325.549 83.3305 325.387 83.4709 325.205 83.5449C324.484 83.838 323.754 84.1094 323.024 84.3842C322.574 84.5535 322.115 84.7027 321.669 84.8805C320.668 85.2824 319.648 85.611 318.606 85.8913C317.677 86.14 316.766 86.4561 315.847 86.7407L314.269 87.2216L314.252 87.167" fill="white"/>
<path d="M377.235 49.9951C378.411 49.5909 379.587 49.1886 380.766 48.7835C381.246 48.626 381.747 48.514 382.23 48.4201C382.378 48.3908 382.544 48.4674 382.609 48.5393C382.638 48.5693 382.433 48.7116 382.328 48.802C382.302 48.8229 382.254 48.8394 382.216 48.8561C381.114 49.326 380.035 49.8458 378.91 50.2566C376.488 51.1396 374.078 52.0562 371.615 52.8352C370.228 53.2736 368.856 53.7896 367.479 54.2815L363.963 55.5511C363.44 55.7315 362.895 55.8864 362.366 56.0007C361.531 56.1852 360.728 56.4598 359.913 56.7478L356.129 58.0356C356.002 58.0761 355.781 58.0764 355.739 58.0329C355.695 57.985 355.772 57.8383 355.873 57.7751C356.174 57.5871 356.493 57.3854 356.837 57.2488C358.205 56.7224 359.564 56.1993 360.925 55.6753C361.771 55.3582 362.612 55.0445 363.46 54.725C365.34 53.9863 367.241 53.3188 369.165 52.6989C370.882 52.1479 372.582 51.5291 374.289 50.9422L377.216 49.9409L377.235 49.9951" fill="white"/>
</g>
</svg>
