<svg width="189" height="135" viewBox="0 0 189 135" fill="none" xmlns="http://www.w3.org/2000/svg">
<g opacity="0.5">
<path d="M34.1116 120.654C34.0833 119.479 33.5456 118.39 33.0787 117.334C32.5505 116.284 32.0293 115.251 31.5129 114.23C30.4611 112.181 29.4472 110.137 28.5864 108.007C27.7281 105.88 27.0088 103.67 26.5679 101.329C26.3509 100.164 26.1859 98.9518 26.1646 97.7445C26.1104 96.5324 26.0396 95.3038 26.1835 94.0375C26.233 93.3843 26.2519 92.7311 26.4122 92.0779C26.5631 91.427 26.6103 90.7644 26.8768 90.1206C27.0796 89.4721 27.3154 88.826 27.6856 88.2058C27.8295 87.8875 28.0653 87.5927 28.2893 87.2955C28.4921 87.0102 28.7916 86.7084 29.2585 86.39L29.8834 86.2155L30.3503 86.0551C30.6616 85.9514 30.9681 85.8146 31.2771 85.6943C31.8902 85.4279 32.501 85.1496 33.0905 84.8242C34.2884 84.2017 35.4203 83.4541 36.5192 82.6571C38.6911 81.03 40.6813 79.134 42.3934 76.9975C44.0912 74.8563 45.6641 72.5902 46.9021 70.1307C47.5931 68.9422 48.1001 67.6522 48.6825 66.4094L50.4323 62.5468C52.6937 57.3377 55.6226 52.4233 58.8603 47.7659C62.1192 43.1086 66.0055 38.9371 70.0827 35.1004C73.2827 32.0607 76.7327 29.3465 79.8761 26.4436C82.9747 23.5408 85.9506 20.3385 87.2169 16.4971C87.8159 14.7261 87.9173 12.8419 87.5754 11.012C87.5306 10.5498 87.4056 10.097 87.2571 9.649C87.1014 9.20331 87.033 8.73399 86.8113 8.30481L86.2336 6.99609C86.0332 6.56454 85.8091 6.25093 85.5639 5.89485C84.4909 4.57665 82.8143 3.70171 80.9915 3.22536C79.1592 2.75137 77.2019 2.58398 75.2399 2.60992C71.3066 2.65472 67.3496 3.35035 63.487 4.3502C59.6196 5.36185 55.8371 6.71777 52.1537 8.30009C44.8222 11.526 37.8516 15.6858 31.7982 20.9091C30.2702 22.199 28.8411 23.588 27.4427 25.0359L25.3416 27.1936L23.3443 29.4432C21.9718 30.9124 20.8022 32.5441 19.5264 34.0887C18.3804 35.7276 17.1235 37.2958 16.0953 39.0102C12.8104 44.1108 10.3273 49.3035 8.86293 54.5811C7.3608 59.8374 7.16271 65.2728 8.59646 70.2367C9.4336 72.701 10.6669 74.8681 12.294 77.1178C13.8669 79.3227 15.5412 81.4756 17.4796 83.4046L18.9959 84.869C19.5076 85.376 20.1631 85.9821 20.5876 86.9277C21.3304 88.8331 20.8824 90.4248 20.9531 91.7713C20.913 94.5751 21.3163 97.5275 21.8917 100.529C22.8585 105.46 24.2687 110.582 25.8651 115.136C26.6693 117.388 27.5111 119.6 28.5133 121.258C28.768 121.64 28.9354 121.868 29.3434 122.088C29.6759 122.366 30.0603 122.432 30.4211 122.569C31.1662 122.682 31.9114 122.562 32.5057 122.208C33.5338 121.607 33.68 120.824 33.897 120.68C33.9936 120.595 34.0503 120.635 34.0573 120.85C34.062 121.062 34.062 121.472 33.7484 121.977C33.2886 122.722 32.5269 123.408 31.5129 123.644C30.5248 123.866 29.3222 123.743 28.3247 123.076C28.0181 122.962 27.8059 122.637 27.5465 122.411C27.3154 122.158 27.1739 121.906 26.9829 121.651C26.6127 121.142 26.3604 120.611 26.0444 120.086C25.4902 119.024 24.9832 117.937 24.5139 116.836C23.5848 114.629 22.7736 112.356 22.0332 110.03C20.6041 105.366 19.4015 100.492 18.8827 95.2495C18.8001 94.0139 18.6987 92.7995 18.7601 91.5732C18.7624 90.3211 18.9251 89.2339 18.7553 88.3143C18.6704 87.8851 18.5101 87.5644 18.2295 87.2036C17.93 86.8404 17.5362 86.4608 17.1258 86.0646C16.3123 85.2746 15.4752 84.4563 14.7182 83.5885C13.1713 81.8671 11.7988 80.0277 10.4594 78.127C9.81563 77.1555 9.11526 76.2406 8.54223 75.1323C8.2451 74.5946 7.9291 74.0617 7.64376 73.5099C7.41738 72.9321 7.18863 72.3472 6.95753 71.7601C5.3257 67.3692 5.163 62.5728 5.91053 58.0522C6.63448 53.5033 8.20972 49.162 10.1858 45.0707C14.1617 36.8643 19.7835 29.6035 26.1222 23.1729C30.546 18.5509 35.7151 14.6152 41.1954 11.3492C47.9397 7.32622 55.2051 4.19934 62.8125 2.17133C66.6256 1.1927 70.5284 0.473373 74.5301 0.357826C76.5298 0.315376 78.5531 0.409752 80.5741 0.822426C82.5785 1.23982 84.6395 1.98026 86.3421 3.45645C87.0542 4.079 87.6438 4.85017 88.113 5.69439C88.4738 6.49615 88.8417 7.26725 89.1412 8.08788C89.6694 9.74566 90.0986 11.493 90.009 13.29C89.9618 15.0633 89.601 16.8507 88.8818 18.4495C88.2215 20.079 87.29 21.5458 86.2619 22.8947C82.0785 28.2877 76.6478 32.0655 71.9928 36.5082C69.4224 38.8168 65.9205 42.3941 62.3456 46.9241C61.4896 48.0843 60.5275 49.2304 59.6809 50.5038C58.8414 51.7819 57.9807 53.093 57.1082 54.423C56.271 55.7789 55.5235 57.2198 54.7147 58.637C53.8775 60.0401 53.1889 61.5375 52.4956 63.0349C51.7906 64.5371 51.0878 66.0392 50.3851 67.5343C50.029 68.2983 49.6706 69.06 49.3145 69.8193C48.9113 70.5527 48.508 71.2838 48.1095 72.0077C46.4494 74.8752 44.5511 77.5093 42.4806 79.7401C40.396 81.9591 38.1746 83.7842 36.0075 85.1661C34.9204 85.85 33.8593 86.4419 32.8287 86.9135C32.317 87.1541 31.8124 87.3663 31.3195 87.5502C31.079 87.6493 30.8267 87.7224 30.5885 87.8096C30.381 87.8804 30.0037 87.9841 30.0296 87.9771C29.9801 88.0006 29.8315 88.1327 29.6783 88.3261C29.5462 88.5242 29.3858 88.6798 29.275 88.8944C29.0628 89.3259 28.8105 89.7056 28.6926 90.1631C28.3483 91.0073 28.2233 91.8727 28.07 92.6462C27.8884 94.2285 27.7847 95.5514 27.8672 96.6597C27.9167 98.8787 28.0841 100.159 28.2728 101.112C28.9354 104.828 30.0673 107.929 31.1945 110.978C31.7746 112.502 32.3524 114.02 32.949 115.589C33.2391 116.379 33.5244 117.187 33.7696 118.029C33.9795 118.866 34.2578 119.765 34.1116 120.654Z" fill="white"/>
<path d="M37.9897 41.5753C35.608 43.6481 33.4102 45.8436 31.2713 48.1947L24.7629 55.1418C23.8668 56.0732 22.9448 56.9905 21.9756 57.8583C21.4945 58.2946 20.9946 58.7167 20.4569 59.1058C19.9358 59.4619 19.2944 59.9453 18.4407 59.8344C17.9479 59.7165 17.6932 59.4289 17.4904 59.2096C17.2923 58.9832 17.1555 58.7756 17.1131 58.6365C17.0919 58.5775 17.3866 58.6601 17.7498 58.7874C18.1318 58.9407 18.4996 59.0256 18.66 58.9407C18.7355 58.936 18.8958 58.8653 19.0326 58.811C20.115 58.1413 21.1691 56.9033 22.1713 55.8186L25.1732 52.4016C27.1635 50.1071 29.1679 47.8103 31.2266 45.563C40.3691 35.7507 51.7518 28.6928 62.67 21.5146C63.9505 20.6563 65.2215 19.779 66.4077 18.8428C66.9972 18.3759 67.5679 17.8855 68.0395 17.3856C68.2777 17.138 68.4805 16.8762 68.5913 16.6734C68.6314 16.6144 68.6314 16.5719 68.6055 16.52C68.6739 16.5389 68.3178 16.3055 67.9028 16.1876C67.4783 16.0697 67.0043 15.9919 66.5115 15.9565C65.5281 15.8763 64.4929 15.9258 63.4624 16.0319C61.3966 16.256 59.3285 16.7181 57.3076 17.3195C51.3509 19.0975 45.7621 22.0782 40.7063 25.7121C38.4425 27.3274 36.2306 29.0772 34.1294 30.8198C30.8186 33.5529 27.7884 36.6374 24.9893 39.9907C22.8292 42.5776 20.8083 45.2871 19.0892 48.1664C18.2379 49.6048 17.4597 51.0928 16.8796 52.6374C16.3113 54.1537 15.8633 55.8563 16.2783 57.2594C16.4009 57.8206 17.0069 58.462 17.0966 58.627C17.1744 58.8015 16.4504 58.7921 15.9812 58.2733C15.2973 57.5281 15.1039 56.4529 15.1157 55.4766C15.1252 54.4791 15.328 53.5005 15.6274 52.569C16.8749 48.9209 18.9218 45.7091 21.096 42.6412C23.3008 39.5874 25.7344 36.7128 28.3143 33.9844C31.5213 30.6359 34.8935 27.4218 38.6028 24.5637C42.7437 21.3661 47.3115 18.7108 52.1857 16.7441C54.6264 15.7678 57.1426 14.9685 59.7389 14.4237C62.347 13.9191 64.9881 13.5064 67.8579 14.0181C68.2683 14.1077 68.6857 14.2279 69.1172 14.4119C69.3412 14.5321 69.5558 14.6218 69.7846 14.7963C70.0581 15.0156 70.3151 15.2845 70.5014 15.558L70.7136 16.2513C70.7302 16.4895 70.6854 16.7323 70.6759 16.9752C70.6005 17.1969 70.4896 17.4822 70.4071 17.652C70.3199 17.8501 70.2208 17.942 70.1241 18.0906C69.735 18.6353 69.3224 19.022 68.905 19.4135C68.0678 20.1704 67.2095 20.8331 66.3393 21.4698C64.6014 22.7432 62.8304 23.9199 61.0641 25.1013C57.5269 27.4524 53.9897 29.7728 50.5209 32.1758C46.2149 35.1588 42.0009 38.2598 38.0699 41.6792L37.9897 41.5753Z" fill="white"/>
<path d="M56.1897 33.044C60.6348 29.1153 65.4832 25.6677 70.5343 22.6068C71.553 21.9677 72.6119 21.3853 73.6825 20.8523C74.7436 20.2982 75.8142 19.7888 76.8777 19.3243C77.5191 19.0295 78.2101 19.0177 78.4553 19.1191C78.5591 19.1639 77.6253 19.803 77.1489 20.1968C77.0357 20.2888 76.8188 20.402 76.649 20.501C71.7936 23.3214 67.2636 26.644 62.8138 30.0279C61.6347 30.9641 60.4061 31.8437 59.2695 32.8294L55.8903 35.8195C54.7206 36.7746 53.7609 37.9347 52.6974 38.9912C51.6692 40.0901 50.5845 41.1017 49.6035 42.2761C45.6135 46.8485 41.6777 51.4799 38.0745 56.3212C36.0724 59.0472 34.1458 61.9218 32.929 64.9591C32.3607 66.4164 32.0188 68.1826 32.6649 68.9254C32.8017 69.1259 33.0351 69.2603 33.2898 69.4018L33.7426 69.5574C33.8676 69.5598 33.9831 69.5716 34.1034 69.5952C34.5986 69.5905 35.2329 69.2462 35.8248 68.8052C37.8717 67.1404 39.5365 64.6243 41.1589 62.2402C42.7743 59.8136 44.3212 57.3116 45.9153 54.8332C47.3302 52.6236 48.8536 50.4117 50.4052 48.3814C52.8388 45.1743 55.2017 41.9106 57.7603 38.7011C61.7149 33.7632 66.1623 29.153 71.2842 25.3871C71.8007 25.0145 72.6991 24.5665 72.8665 24.6042C73.0434 24.6396 72.7298 25.1937 72.3242 25.5639C71.1074 26.6557 69.8788 27.8796 68.603 29.0469C63.5495 33.6288 59.2011 38.9653 55.2512 44.5635C52.8082 48.0253 50.4736 51.586 48.2475 55.2034C45.7243 59.25 43.3308 63.3602 40.3478 67.2535C39.5884 68.2204 38.7725 69.166 37.808 70.0503L37.0298 70.6847L36.1267 71.2529C35.4546 71.5666 34.6599 71.8731 33.7567 71.7599C33.2827 71.7269 32.9149 71.5996 32.5659 71.4604C32.2098 71.3095 31.8348 71.1162 31.5118 70.8332C30.8208 70.3074 30.3681 69.4325 30.2525 68.6567C29.9884 67.0649 30.427 65.7797 30.8397 64.5723C31.6486 62.4405 32.7593 60.5588 33.9218 58.7241C35.0867 56.8942 36.3389 55.1351 37.6312 53.4136C40.2157 49.9731 42.9511 46.6623 45.755 43.4293C47.3609 41.5828 48.962 39.7458 50.7354 38.0103L53.334 35.3738C54.2325 34.532 55.1875 33.7514 56.1096 32.9378L56.1897 33.044Z" fill="white"/>
<path d="M51.6977 11.6791C50.2357 12.3016 48.8019 12.9926 47.3658 13.6694C46.7833 13.95 46.1608 14.1623 45.5618 14.3651C45.3803 14.4264 45.1421 14.3391 45.0289 14.2447C44.9817 14.2046 45.2057 13.9642 45.3166 13.8203C45.3425 13.7849 45.4015 13.7543 45.4486 13.726C46.7527 12.8912 48.0426 12.0234 49.4433 11.3537C52.4452 9.9058 55.5179 8.55929 58.7391 7.63018C60.5526 7.10904 62.3612 6.51942 64.2077 6.07609C64.9906 5.8615 65.7829 5.68946 66.5776 5.53146C67.3747 5.37582 68.1623 5.1753 68.9735 5.09748C69.6927 5.00787 70.4332 4.96779 71.1359 4.97958C72.2536 5.06211 73.3502 5.01023 74.4727 4.97486L77.0713 5.08804C77.9321 5.18473 78.7881 5.35456 79.6441 5.48897C79.8139 5.51727 80.0591 5.66586 80.0732 5.75311C80.0897 5.84744 79.9011 5.99367 79.7455 6.01253C79.2856 6.06677 78.8069 6.12562 78.3424 6.08081C77.4321 5.95347 76.5101 5.95117 75.5857 5.9606C74.666 5.92759 73.7464 5.98182 72.8267 6.07851C71.6924 6.13982 70.5558 6.28833 69.4333 6.49349C66.9195 6.94153 64.4388 7.51462 61.9438 8.14188C59.7225 8.70076 57.5459 9.47184 55.3953 10.2901C54.1643 10.7547 52.9404 11.2381 51.7307 11.7592L51.6977 11.6791Z" fill="white"/>
<path d="M72.7321 9.22657C72.0718 9.22893 71.428 9.23124 70.7536 9.2336C70.4848 9.23124 70.2089 9.15107 69.9424 9.06146C69.8646 9.03316 69.7773 8.84687 69.7443 8.71246C69.7301 8.65586 69.8528 8.54501 69.9164 8.46248C69.9329 8.44361 69.9612 8.44365 69.9825 8.43657C70.6192 8.27622 71.2582 8.04511 71.9091 8.01446C73.3075 7.939 74.7223 7.8753 76.1207 8.10876C76.906 8.23846 77.7077 8.28095 78.5048 8.3965C79.1816 8.48611 79.8655 8.58751 80.5399 8.75022C80.837 8.82804 81.127 8.97896 81.3841 9.15818C81.792 9.42229 82.2165 9.63215 82.6645 9.7925C83.346 10.0873 83.9898 10.4717 84.5676 10.9551C84.6265 10.9999 84.6525 11.1555 84.6053 11.2286C84.5605 11.3064 84.4001 11.4054 84.3247 11.4007C84.103 11.3889 83.8743 11.3889 83.714 11.3017C83.0608 10.9621 82.3604 10.7075 81.6435 10.5047C81.2072 10.3655 80.7451 10.2665 80.2946 10.1746C79.2547 10.0496 78.2407 9.84672 77.196 9.65571C76.2669 9.46706 75.3119 9.4435 74.3639 9.37983L72.7297 9.31615L72.7321 9.22657Z" fill="white"/>
<path d="M34.6764 21.8095C34.3675 22.0548 34.068 22.3141 33.7402 22.5381C33.6058 22.6278 33.4219 22.6608 33.2309 22.6774C33.1719 22.6821 33.0139 22.5641 32.9149 22.4674C32.8724 22.4274 32.8654 22.3024 32.8465 22.2175C32.8441 22.1986 32.8559 22.1892 32.8654 22.1774C33.0776 21.8402 33.2403 21.444 33.5186 21.1822C34.1246 20.6233 34.6859 20.0079 35.4145 19.5882C35.8319 19.3571 36.1762 19.0317 36.5441 18.7369C36.8601 18.4869 37.1501 18.204 37.4732 17.9658C37.617 17.8597 37.7939 17.7936 37.992 17.77C38.3009 17.73 38.5225 17.5743 38.7419 17.4022C39.0767 17.1404 39.4375 16.9069 39.7936 16.6758C39.8289 16.6546 39.9445 16.7065 39.9987 16.7726C40.0553 16.8409 40.1214 17.0083 40.1143 17.0649C40.0954 17.23 40.0742 17.4069 39.994 17.4965C39.6781 17.8478 39.3432 18.1709 39.0107 18.4964C38.8055 18.6992 38.5815 18.8713 38.3858 19.0859C37.9495 19.5599 37.4496 19.9419 36.8907 20.265C36.3931 20.5456 35.9616 20.9205 35.5159 21.2789L34.733 21.8779L34.6764 21.8095Z" fill="white"/>
<path d="M33.3777 82.2018C32.6113 82.6475 31.8237 83.0719 31.0031 83.4209C30.6612 83.553 30.3004 83.6308 29.9301 83.6544C29.8169 83.6638 29.666 83.5152 29.5953 83.3949C29.5646 83.3454 29.6849 83.1898 29.7368 83.0884C29.7486 83.0625 29.7816 83.0507 29.8075 83.0366C30.5173 82.6121 31.1587 82.072 31.8614 81.6547C33.3942 80.7727 34.7808 79.688 36.2358 78.6787C37.0918 78.1458 37.7238 77.3392 38.4642 76.6671C39.1127 76.1036 39.5844 75.3797 40.1385 74.7335C40.3838 74.4435 40.6738 74.1794 40.9898 73.9577C41.5133 73.6205 41.8458 73.1347 42.1477 72.6159C42.6311 71.8307 43.1475 71.0666 43.6663 70.2979C43.7205 70.22 43.895 70.1493 43.9799 70.1752C44.0695 70.2012 44.178 70.3545 44.171 70.4441C44.145 70.7058 44.1191 70.9911 43.9988 71.227C43.5248 72.1513 43.0131 73.0663 42.5061 73.9883C42.1146 74.5095 41.7397 75.0118 41.3412 75.5447C40.912 76.1295 40.4993 76.7403 39.9923 77.2591C39.4688 77.7614 38.9265 78.2495 38.3699 78.7188C37.8912 79.155 37.3913 79.5653 36.8607 79.9426L35.3138 81.117L33.4226 82.2772L33.3777 82.2018Z" fill="white"/>
<path d="M46.484 66.1288C46.3779 66.3245 46.2906 66.5274 46.1586 66.7113C46.1067 66.7868 45.9817 66.8292 45.845 66.8599C45.8049 66.8716 45.6186 66.8104 45.4912 66.7608C45.4394 66.7396 45.3639 66.657 45.3049 66.6052C45.2908 66.5934 45.2955 66.5863 45.2955 66.5768C45.2767 66.3339 45.1847 66.0581 45.2578 65.8576C45.4134 65.4237 45.5219 64.9663 45.8332 64.6032C46.01 64.4004 46.0761 64.1433 46.1798 63.9052C46.2671 63.7 46.3213 63.4806 46.4227 63.2849C46.4675 63.1953 46.5618 63.1292 46.6939 63.0844C46.9038 63.0137 46.9769 62.8817 47.0406 62.7425C47.1396 62.5256 47.2716 62.3252 47.4061 62.1271C47.4178 62.1059 47.5381 62.1199 47.6159 62.1506C47.6985 62.186 47.8494 62.278 47.8753 62.3134C47.9555 62.4172 48.0451 62.5303 48.0381 62.5987C48.005 62.8699 47.939 63.1269 47.8777 63.3863C47.8423 63.5443 47.7716 63.6905 47.7503 63.8579C47.6961 64.2282 47.5405 64.5512 47.3094 64.8413C47.1042 65.1007 46.9934 65.4025 46.8377 65.6855C46.7481 65.8435 46.6538 66.0062 46.5619 66.1642L46.484 66.1288Z" fill="white"/>
<path d="M11.232 63.2869C11.2956 63.8482 11.3617 64.3929 11.4301 64.973C11.456 65.2017 11.397 65.4493 11.3381 65.6875C11.3192 65.7606 11.1447 65.862 11.015 65.9115C10.9608 65.9327 10.8382 65.8454 10.7533 65.8006C10.7297 65.7889 10.7273 65.7653 10.7179 65.7464C10.4962 65.2158 10.1967 64.6924 10.1095 64.1312C9.90196 62.9285 9.69681 61.7094 9.82887 60.4761C9.87367 59.7851 9.84537 59.087 9.90904 58.3914C9.9562 57.7971 9.9114 57.1958 10.0623 56.6086C10.1142 56.3469 10.2203 56.0875 10.3665 55.8541C10.6141 55.4909 10.6471 55.0924 10.7957 54.7056C11.0009 54.1043 11.2414 53.5148 11.4819 52.9323C11.5079 52.8733 11.6423 52.8262 11.7248 52.8497C11.8097 52.8757 11.9512 53.0006 11.9701 53.0667C12.0266 53.2624 12.0903 53.4676 12.0549 53.6327C11.9465 54.2859 11.7059 54.8872 11.647 55.5427C11.6045 55.9436 11.5314 56.3398 11.5031 56.7431C11.4065 57.6321 11.4395 58.5399 11.2556 59.4337C11.199 60.2449 11.1942 61.0609 11.2461 61.8768L11.3192 63.2775L11.232 63.2869Z" fill="white"/>
<path d="M30.6469 115.928C30.9699 116.456 31.2883 116.97 31.6232 117.512C31.7505 117.729 31.8118 117.996 31.8637 118.255C31.8802 118.335 31.7599 118.503 31.6585 118.597C31.6161 118.637 31.4651 118.597 31.3637 118.585C31.3402 118.585 31.3284 118.562 31.3119 118.548C30.8709 118.114 30.3639 117.727 30.0196 117.222C29.2744 116.147 28.5033 115.074 27.9798 113.857C27.685 113.176 27.2676 112.553 26.9446 111.879C26.6616 111.308 26.315 110.77 26.0744 110.176C25.9683 109.912 25.907 109.62 25.8952 109.327C25.8787 108.863 25.716 108.464 25.5556 108.054C25.3505 107.403 25.1807 106.738 25.018 106.078C24.9991 106.012 25.0769 105.884 25.1571 105.851C25.2396 105.818 25.4259 105.835 25.4825 105.88C25.6476 106.016 25.8268 106.158 25.8999 106.325C26.2112 106.981 26.4046 107.66 26.7654 108.297C26.9682 108.693 27.1379 109.106 27.3525 109.492C27.8525 110.355 28.3076 111.237 28.6849 112.169C29.0622 112.982 29.4961 113.77 29.9559 114.541L30.72 115.88L30.6469 115.928Z" fill="white"/>
<path d="M29.2207 39.8283C28.3812 40.7975 27.5465 41.7644 26.7022 42.7407C26.3697 43.1415 25.9571 43.4882 25.575 43.8277C25.4595 43.9291 25.2213 43.9243 25.0869 43.8795C25.0279 43.8583 25.0963 43.5967 25.1176 43.4434C25.1199 43.4056 25.1553 43.3632 25.1789 43.3255C25.8439 42.2596 26.4711 41.1606 27.2823 40.1985C29.0014 38.1186 30.7983 36.0859 32.8523 34.3126C33.9653 33.2727 35.1302 32.2728 36.281 31.2588L37.7478 29.9595L39.316 28.7804C39.7876 28.4361 40.2993 28.1272 40.8086 27.8749C41.6151 27.4764 42.3226 26.9434 43.1102 26.4977C44.3034 25.7737 45.5108 25.0781 46.7181 24.3872C46.8384 24.3165 47.0789 24.3022 47.1403 24.3659C47.2063 24.4296 47.1804 24.649 47.0978 24.7456C46.8479 25.0357 46.5861 25.3446 46.2725 25.5616C45.0392 26.427 43.7587 27.2122 42.5395 28.0871C41.8085 28.6625 41.0892 29.2284 40.3512 29.8085C38.7099 31.0772 37.1912 32.4779 35.55 33.7631C34.1068 34.9281 32.824 36.2911 31.4845 37.5786L29.2844 39.8873L29.2207 39.8283Z" fill="white"/>
<path d="M54.1725 21.8402C53.7975 21.9346 53.4273 22.0478 53.0453 22.1185C52.8897 22.1468 52.7128 22.0997 52.5359 22.0384C52.4817 22.0172 52.3874 21.8426 52.3378 21.7153C52.3166 21.6611 52.3591 21.5432 52.3756 21.4583C52.3803 21.4394 52.3968 21.437 52.4086 21.4276C52.7293 21.2106 53.0288 20.9159 53.3801 20.7932C54.1371 20.5291 54.8799 20.2107 55.6864 20.1117C56.1415 20.0551 56.5636 19.8806 56.9975 19.7462C57.3678 19.633 57.7262 19.4822 58.1011 19.3808C58.2662 19.3383 58.4502 19.343 58.6412 19.3925C58.9383 19.4727 59.1953 19.409 59.4523 19.3336C59.8485 19.2156 60.2565 19.1308 60.6644 19.0529C60.7045 19.0435 60.7989 19.1332 60.8295 19.2133C60.8625 19.2959 60.8767 19.4726 60.8531 19.5222C60.7824 19.666 60.7092 19.8193 60.6055 19.8736C60.1952 20.0811 59.7731 20.2556 59.3533 20.4348C59.0916 20.5456 58.8227 20.6235 58.568 20.7484C57.995 21.0291 57.3937 21.2012 56.7664 21.2932C56.2099 21.3781 55.677 21.5619 55.1322 21.6987L54.1961 21.9228L54.1725 21.8402Z" fill="white"/>
<path d="M38.2827 60.9407C37.7662 61.7543 37.2521 62.5631 36.7286 63.3885C36.514 63.7186 36.2334 64.0134 35.9457 64.2869C35.8585 64.3695 35.6392 64.3624 35.5071 64.32C35.4482 64.3035 35.4552 64.0912 35.4411 63.9662C35.4364 63.9356 35.4576 63.9026 35.4718 63.8719C35.842 63.0089 36.1344 62.0916 36.6202 61.2922C37.6743 59.5707 38.5822 57.7549 39.8673 56.1749C40.5701 55.2718 41.1785 54.2979 41.8175 53.3476C42.3811 52.5482 42.8386 51.678 43.4753 50.9281C43.7512 50.5885 44.0766 50.2725 44.4185 50.006C44.9633 49.5839 45.3854 49.0698 45.8075 48.5416C46.4607 47.7233 47.1398 46.9286 47.819 46.1387C47.8874 46.0608 48.0713 46.0089 48.1491 46.0514C48.227 46.0938 48.2977 46.2849 48.2694 46.3816C48.1916 46.6717 48.1067 46.9782 47.944 47.2187C47.3026 48.1549 46.6352 49.0699 45.9726 49.9825C45.5646 50.5485 45.1284 51.0931 44.7322 51.6661C43.8479 52.9466 43.032 54.2861 42.0581 55.517C41.2233 56.6371 40.405 57.7785 39.6645 58.9694L38.3558 60.9879L38.2827 60.9407Z" fill="white"/>
<path d="M44.8003 75.2641C51.3017 73.3257 57.0886 72.3753 63.8682 71.8424C68.1577 71.524 72.492 71.2977 76.8569 71.3307C81.2171 71.3519 85.6197 71.609 89.9846 72.4532C94.2788 73.3399 98.8442 74.7193 102.167 78.2494C102.577 78.6857 102.971 79.1338 103.275 79.6643C103.608 80.169 103.947 80.6642 104.152 81.2773C104.395 81.8574 104.638 82.4399 104.688 83.0884L104.827 84.0388C104.836 84.3547 104.791 84.6707 104.773 84.9867C104.558 87.5453 103.24 89.6606 101.825 91.408C99.7591 93.8675 97.3138 95.8082 94.8188 97.6027C92.3121 99.3902 89.6923 100.961 87.0629 102.501C77.22 108.158 66.9173 112.782 56.7891 117.678C51.7238 120.118 46.6773 122.592 41.8243 125.346C39.3695 126.733 37.1269 128.211 34.7782 129.85C32.3446 131.508 29.6044 132.69 26.7558 133.383C24.5934 133.932 22.4238 134.152 20.3086 134.119C18.1933 134.116 16.1252 133.826 14.1515 133.279C12.1706 132.765 10.2841 131.963 8.57447 130.879C6.85067 129.824 5.28958 128.476 4.07042 126.837C2.83475 125.224 1.86556 123.358 1.38685 121.352C1.05671 120.368 1.01663 119.328 0.858631 118.305C0.868063 117.277 0.754868 116.227 0.912863 115.202C1.29488 111.049 2.81352 107.007 4.9783 103.133C8.57447 96.7397 14.1869 91.1296 17.7783 88.1678C19.2639 86.9062 19.8228 86.8591 18.8536 88.1277C18.1155 89.0946 17.3468 90.1086 16.3705 91.2193C15.3471 92.4691 14.3213 93.7189 13.2908 94.9758C12.3286 96.2893 11.2368 97.5202 10.3289 98.9044C8.35518 101.562 6.6243 104.486 5.2047 107.653C3.91008 110.632 3.05878 113.584 2.95738 116.56C2.86306 119.519 3.55872 122.519 5.3509 125.101C7.0582 127.447 9.4753 129.261 12.1966 130.381C14.9273 131.492 17.908 131.999 20.8746 131.963C23.8435 131.94 26.8006 131.315 29.5266 130.183C30.2034 129.89 30.8896 129.615 31.5239 129.235C32.1795 128.9 32.8138 128.527 33.4104 128.096C34.6084 127.32 35.962 126.261 37.2778 125.462C41.0202 123.059 44.9158 120.991 48.8327 119.017C58.4752 114.197 68.285 109.849 77.8049 104.963C81.8043 102.899 85.7683 100.763 89.5508 98.3786C91.4255 97.1712 93.3002 95.9521 95.0358 94.582C96.7808 93.2331 98.4645 91.7899 99.8299 90.1463C100.733 89.1017 101.818 87.6467 102.296 85.8262C102.492 85.3781 102.419 84.9018 102.502 84.4184C102.549 83.9326 102.381 83.4492 102.351 82.9398C102.139 82.4635 102.009 81.9518 101.733 81.4636C101.398 80.9991 101.176 80.4449 100.738 80.0252C99.205 78.174 96.8492 76.7544 94.2293 75.7711C91.6 74.7807 88.7113 74.177 85.8273 73.7879C80.0427 73.0309 74.2606 73.0403 69.5042 73.2526C64.7407 73.453 60.9748 73.8422 59.0694 74.0355C53.7376 74.6109 49.9175 74.75 44.8003 75.2641Z" fill="white"/>
<path d="M38.2358 99.1757C35.9814 100.244 33.7718 101.404 31.5434 102.527C30.6473 102.998 29.6804 103.361 28.749 103.703C28.4683 103.807 28.0934 103.687 27.9236 103.55C27.8505 103.491 28.1948 103.118 28.3646 102.887C28.4047 102.833 28.4966 102.784 28.5697 102.734C30.5836 101.395 32.5762 100.003 34.7174 98.8644C39.3465 96.4591 44.0439 94.1316 49.0078 92.4102C50.3802 91.8725 51.8092 91.4503 53.21 90.9551C54.6296 90.5024 55.9926 89.8964 57.4523 89.5615C59.9189 88.9507 62.3714 88.1324 64.8568 87.7764C65.9628 87.5806 67.1042 87.458 68.1983 87.4132C69.9316 87.366 71.6011 87.0029 73.3414 86.793C76.0179 86.444 78.6873 86.0903 81.4346 86.0856C81.727 86.1021 82.1633 86.2884 82.1916 86.4181C82.2246 86.5525 81.9463 86.8025 81.7246 86.8544C81.0596 87.0006 80.3169 87.2859 79.5976 87.3424C78.1733 87.4368 76.723 87.7717 75.2869 87.9745C73.8461 88.2056 72.4076 88.4037 70.9762 88.7385C69.2029 89.104 67.4343 89.4671 65.6586 89.8303C64.6753 90.0614 63.6754 90.243 62.7039 90.4835L59.8128 91.257L56.9099 91.9904L54.033 92.8912C52.3115 93.4029 50.6042 93.9665 48.9394 94.6716C47.2722 95.3625 45.572 95.9733 43.9354 96.7397C42.056 97.5933 40.1411 98.3692 38.2924 99.2936L38.2358 99.1757Z" fill="white"/>
<path d="M70.7141 80.7939C73.2208 80.6666 75.7298 80.6076 78.2365 80.65C79.2553 80.6783 80.281 80.8222 81.2597 81.0155C81.5592 81.0698 81.8139 81.3716 81.8775 81.5768C81.9058 81.6664 81.4271 81.7985 81.1654 81.9093C81.1041 81.9352 81.0003 81.9305 80.9154 81.9352C78.5313 82.072 76.1614 82.388 73.782 82.5012C68.6507 82.7299 63.55 83.2888 58.4447 83.817C56.9991 83.9325 55.5701 84.192 54.1387 84.4443C52.7026 84.6707 51.29 85.0079 49.8752 85.3286C48.6654 85.5833 47.4651 85.878 46.2861 86.2412C45.107 86.602 43.902 86.8755 42.7418 87.2811C41.7042 87.6302 40.6194 87.9107 39.5606 88.1088C37.9052 88.4625 36.3654 89.1676 34.783 89.8232L31.2859 91.6696C30.1399 92.3181 29.0811 93.1034 27.968 93.8108C27.7511 93.9547 27.3054 94.0561 27.1851 93.983C27.0601 93.9099 27.0979 93.5656 27.2535 93.384C27.7204 92.8463 28.2298 92.2639 28.8335 91.8064C29.9913 90.8514 31.293 90.1321 32.5876 89.3893C33.8587 88.5946 35.2193 87.9933 36.5753 87.3802C38.2307 86.5572 39.9898 86.0171 41.7019 85.3498C43.619 84.5952 45.6093 84.1 47.5854 83.5505C49.5875 83.1355 51.5825 82.645 53.6175 82.4021C57.2231 81.8456 60.8453 81.3669 64.4791 81.0414C66.5543 80.8811 68.6318 80.7302 70.7117 80.6618L70.7141 80.7939Z" fill="white"/>
<path d="M15.712 103.015C16.5987 101.989 17.4995 100.977 18.4758 100.041C18.8743 99.6591 19.3624 99.362 19.8529 99.1049C20.0038 99.0271 20.308 99.1356 20.4778 99.2558C20.5509 99.3054 20.4754 99.5907 20.4589 99.77C20.4542 99.81 20.4142 99.8478 20.3882 99.8855C19.6147 100.909 18.971 102.038 18.1527 103.003C16.4006 105.09 14.8088 107.3 13.3798 109.493C12.604 110.705 12.1017 112.237 12.3399 113.218C12.4153 113.593 12.7525 113.907 13.052 114.086C13.3067 114.303 13.6981 114.199 14.1533 114.15C14.3679 114.06 14.5919 114.02 14.8348 113.954C15.0777 113.865 15.3347 113.799 15.5988 113.735C16.4289 113.475 17.1458 112.931 17.799 112.313C18.8153 111.36 19.794 110.337 20.7136 109.269C20.8032 109.162 21.0697 109.094 21.19 109.151C21.3126 109.205 21.4447 109.469 21.4116 109.606C21.322 110.011 21.2159 110.448 20.9777 110.775C20.0439 112.082 18.978 113.301 17.7306 114.409C16.943 115.084 16.0964 115.709 14.9739 116.15C14.3584 116.402 13.592 116.539 12.7667 116.376C12.3705 116.298 11.9909 116.065 11.623 115.874C11.3235 115.626 11.0594 115.341 10.8 115.053C10.3001 114.405 10.0949 113.577 10.0902 112.867C10.076 112.141 10.2435 111.509 10.4416 110.922C11.2032 108.865 12.2833 107.174 13.4647 105.559C14.1462 104.649 14.8702 103.776 15.613 102.93L15.712 103.015Z" fill="white"/>
<path d="M21.171 126.014C22.2463 125.587 23.291 125.068 24.3498 124.575C24.7813 124.375 25.2695 124.266 25.7482 124.179C25.8944 124.153 26.1491 124.342 26.2858 124.497C26.3448 124.563 26.2222 124.813 26.1703 124.974C26.1585 125.011 26.1113 125.035 26.0807 125.061C25.1657 125.787 24.2767 126.589 23.2226 127.115C22.0883 127.674 20.9352 128.221 19.6665 128.612C19.0298 128.806 18.3648 128.964 17.6338 129.018C16.9193 129.058 16.0373 129.041 15.1554 128.452C14.1154 127.759 13.8773 126.292 14.1885 125.431C14.4432 124.526 14.8771 123.853 15.3275 123.236C16.1128 122.2 16.9523 121.281 17.872 120.465C18.2823 120.104 18.7586 119.805 19.2586 119.59C20.0462 119.25 20.6947 118.76 21.3597 118.258C22.3831 117.484 23.4608 116.786 24.5597 116.123C24.6705 116.057 24.9299 116.088 25.0218 116.182C25.1138 116.284 25.1586 116.564 25.0997 116.673C24.9252 117.003 24.7436 117.354 24.4724 117.578C23.4112 118.46 22.343 119.331 21.3172 120.241C20.6852 120.802 20.0344 121.34 19.4613 121.95C18.8176 122.63 18.1856 123.299 17.6031 123.969C17.0301 124.629 16.4783 125.339 16.2283 125.931C16.0303 126.466 16.0963 126.62 16.4524 126.789C16.8863 126.961 17.7069 126.879 18.4521 126.716C19.3316 126.528 20.2348 126.233 21.1215 125.891L21.171 126.014Z" fill="white"/>
<path d="M40.3949 106.974C38.3481 108.144 36.3389 109.387 34.3416 110.634C33.5304 111.146 32.6508 111.568 31.8019 111.969C31.5425 112.089 31.1699 111.997 30.9907 111.877C30.9129 111.825 31.2005 111.431 31.3373 111.198C31.368 111.141 31.4505 111.085 31.5142 111.033C33.2922 109.575 35.0561 108.08 37.0016 106.849C41.2085 104.236 45.5215 101.718 50.1977 99.9399C52.8129 98.9118 55.4705 97.9072 58.1871 97.0771C59.3615 96.7776 60.5311 96.4381 61.722 96.1811C62.9199 95.9735 64.1367 95.6882 65.3181 95.5915C66.377 95.476 67.4664 95.4359 68.5064 95.4689C70.1429 95.5019 71.7747 95.4547 73.4254 95.3085C75.9958 95.2448 78.5473 95.0822 81.1908 95.7589C81.4596 95.832 81.8393 96.1834 81.8205 96.3603C81.7521 96.4617 81.429 96.5678 81.2286 96.5701C80.6013 96.5324 79.9127 96.6314 79.2336 96.5984C76.5477 96.4994 73.7815 96.7328 71.0437 97.0394C69.3506 97.1856 67.648 97.4497 65.9619 97.6973C62.2101 98.2774 58.6328 99.1877 55.0084 100.36C51.7824 101.385 48.6767 102.829 45.63 104.354C43.8826 105.22 42.1612 106.135 40.4586 107.087L40.3949 106.974Z" fill="white"/>
<path d="M40.1394 114.553C38.7433 115.369 37.3497 116.182 35.9489 116.998C35.3736 117.321 34.7345 117.546 34.1072 117.741C33.9186 117.8 33.6215 117.642 33.4705 117.496C33.4069 117.435 33.5932 117.14 33.6757 116.954C33.6946 116.911 33.7535 116.876 33.796 116.843C35.0293 115.871 36.2013 114.808 37.5242 113.975C40.3752 112.188 43.2049 110.356 46.2328 108.851C47.9377 108.009 49.5743 107.009 51.2486 106.087C52.6753 105.3 54.0807 104.47 55.5427 103.739C56.196 103.418 56.894 103.151 57.592 102.975C58.7074 102.717 59.6978 102.225 60.7425 101.774C62.3507 101.074 63.966 100.397 65.7276 100.001C65.9021 99.9561 66.2063 100.041 66.2676 100.159C66.3289 100.279 66.2346 100.579 66.1072 100.678C65.7229 100.975 65.3338 101.288 64.9022 101.446C63.202 102.199 61.5088 103 59.844 103.892C58.8135 104.432 57.7665 104.948 56.7619 105.55C54.5122 106.877 52.2201 108.122 49.862 109.28C47.768 110.325 45.7447 111.523 43.7049 112.681L40.2054 114.666L40.1394 114.553Z" fill="white"/>
<path d="M51.3026 115.423C50.1023 116.029 48.9091 116.633 47.7018 117.241C47.2113 117.479 46.6783 117.652 46.1619 117.802C46.0062 117.85 45.7893 117.743 45.6879 117.642C45.6478 117.6 45.827 117.39 45.9143 117.255C45.9379 117.227 45.9874 117.201 46.0251 117.175C47.1122 116.468 48.1616 115.69 49.3006 115.074C51.7578 113.749 54.2032 112.4 56.757 111.256C58.1979 110.62 59.608 109.881 61.0229 109.176C62.2279 108.568 63.4471 107.974 64.6686 107.403C65.2181 107.153 65.7981 106.943 66.3665 106.788C67.2743 106.564 68.128 106.217 68.9911 105.844C70.2975 105.236 71.71 104.811 73.1037 104.38C73.2428 104.337 73.4857 104.373 73.5329 104.446C73.58 104.524 73.4975 104.736 73.3914 104.814C73.0683 105.047 72.7334 105.297 72.3703 105.446C70.9271 105.974 69.5169 106.691 68.095 107.349C67.213 107.747 66.3311 108.162 65.4727 108.622C63.5438 109.631 61.5865 110.563 59.5939 111.461C57.8111 112.24 56.085 113.157 54.3352 114.018L51.3404 115.501L51.3026 115.423Z" fill="white"/>
<path d="M86.5895 77.0018C85.7901 76.8226 85.0049 76.6434 84.1937 76.4595C83.8706 76.384 83.5569 76.2331 83.2574 76.0727C83.1678 76.0232 83.1113 75.8205 83.1065 75.6813C83.1018 75.6224 83.2787 75.5469 83.3753 75.4856C83.3989 75.4715 83.4343 75.4785 83.4626 75.4785C84.2691 75.495 85.0897 75.4455 85.8797 75.5941C87.5752 75.9077 89.2849 76.2378 90.9144 76.8627C91.827 77.2188 92.7749 77.4947 93.7017 77.839C94.4846 78.1574 95.2911 78.4261 96.0457 78.8341C96.3853 79.0039 96.7083 79.2256 96.9701 79.5156C97.3922 79.9472 97.8756 80.2537 98.3402 80.6334C99.0783 81.171 99.715 81.8903 100.161 82.7251C100.208 82.8076 100.187 82.9821 100.118 83.034C100.047 83.0859 99.847 83.0953 99.7715 83.0528C99.5451 82.9231 99.3164 82.8052 99.1796 82.6307C98.9108 82.2864 98.5099 82.0271 98.1987 81.7158C97.8096 81.4658 97.4441 81.197 97.0479 80.9636C96.5315 80.7042 96.0669 80.3764 95.5128 80.1806C94.2606 79.6642 93.1334 79.2021 91.8977 78.6927C90.8106 78.2494 89.6692 77.9286 88.5279 77.6126C87.8794 77.4264 87.2262 77.2519 86.5683 77.0868L86.5895 77.0018Z" fill="white"/>
<path d="M93.2559 81.7115C92.9658 81.4426 92.6923 81.188 92.381 80.9026C92.2678 80.7871 92.2018 80.6079 92.1452 80.4287C92.1287 80.3744 92.2112 80.1928 92.2843 80.0749C92.3126 80.0254 92.4376 79.9923 92.5177 79.9593C92.5366 79.9523 92.5484 79.9641 92.5626 79.9688C92.9446 80.1244 93.3855 80.214 93.6945 80.4664C94.3712 80.9922 95.0693 81.5157 95.5739 82.235C95.8475 82.65 96.2389 82.9495 96.5408 83.3457C96.8049 83.6734 97.1138 83.9682 97.3567 84.3172C97.4557 84.4847 97.5146 84.6827 97.5264 84.8926C97.5453 85.2227 97.6845 85.468 97.8401 85.7156C98.0264 86.133 98.1631 86.5763 98.2999 87.0055C98.3117 87.0503 98.2316 87.147 98.1514 87.1776C98.0688 87.2106 97.8849 87.2201 97.8354 87.1989C97.6797 87.1305 97.5147 87.0668 97.451 86.9701C97.1916 86.5952 97.036 86.2014 96.7176 85.8618C96.5408 85.6449 96.3946 85.4091 96.2106 85.2063C95.7532 84.77 95.3806 84.2795 95.0221 83.7536C94.6896 83.2891 94.2958 82.8788 93.8831 82.4779C93.652 82.2468 93.4398 81.9968 93.1969 81.7752L93.2559 81.7115Z" fill="white"/>
<path d="M16.4743 94.0747C17.1323 93.5229 17.7454 92.9239 18.4434 92.424C18.7287 92.2212 19.0518 92.0679 19.3914 91.9547C19.4952 91.9193 19.6791 92.0231 19.7781 92.1198C19.8205 92.1599 19.7522 92.3391 19.7286 92.4499C19.7239 92.4782 19.6956 92.4971 19.6744 92.516C19.1202 93.1008 18.6321 93.7563 18.0567 94.3081C16.7998 95.4801 15.6584 96.763 14.4511 97.9869C13.7318 98.6495 13.1942 99.4701 12.6329 100.26C12.1377 100.927 11.685 101.618 11.2959 102.345C11.1096 102.661 10.8738 102.955 10.6073 103.215C10.197 103.632 9.84798 104.097 9.66169 104.646C9.32919 105.469 8.95895 106.278 8.584 107.089C8.54627 107.172 8.38829 107.266 8.29868 107.254C8.20671 107.245 8.0723 107.115 8.06522 107.028C8.04164 106.773 8.01806 106.495 8.09588 106.252C8.41659 105.299 8.6972 104.307 9.12167 103.387C9.40464 102.828 9.71826 102.286 9.99181 101.717C10.546 100.404 11.4798 99.3404 12.35 98.2439C13.1989 97.329 13.9983 96.3691 14.8708 95.4801L16.4177 94.0086L16.4743 94.0747Z" fill="white"/>
</g>
<g opacity="0.5">
<path d="M134.784 7.86073C133.504 8.92039 132.183 9.78313 131.12 10.9247C130.574 11.4737 129.982 11.9582 129.483 12.5316C128.985 13.1085 128.492 13.6801 127.997 14.2518C127.476 14.7973 127.05 15.4248 126.609 16.0417C126.165 16.657 125.721 17.2739 125.269 17.8979C124.877 18.5602 124.481 19.2277 124.081 19.904C123.877 20.2421 123.671 20.5801 123.465 20.9235C123.293 21.2842 123.12 21.6485 122.944 22.0146C122.526 22.9522 122.012 23.855 121.672 24.831L120.658 27.7642C120.177 29.7738 119.633 31.792 119.5 33.8712L119.331 35.4224C119.263 35.9383 119.321 36.4612 119.309 36.9823C119.335 38.021 119.291 39.065 119.371 40.1003L119.767 43.1974L119.87 43.9712L120.062 44.7294L120.445 46.2421C120.842 48.2935 121.764 50.1845 122.468 52.1331C122.909 53.0742 123.43 53.977 123.906 54.9007L124.633 56.2759C124.872 56.736 125.208 57.1403 125.489 57.576L127.251 60.1415C127.523 60.5842 127.866 60.9729 128.209 61.3633L129.225 62.5414C129.907 63.3205 130.561 64.1274 131.256 64.8838C132.009 65.5723 132.68 66.3514 133.489 66.9701C137.82 70.7451 143.336 73.0823 149.07 73.6697C159.781 74.7973 170.864 70.3739 178.277 62.5676C181.98 58.6635 184.8 53.8759 186.101 48.6543C187.463 43.4553 187.314 37.8973 186.163 32.6478C184.29 24.6532 180.232 18.2709 174.932 13.3682C172.281 10.9038 169.244 8.85242 165.857 7.25421C162.479 5.64206 158.704 4.54928 154.603 4.20071C151.245 3.90442 147.695 4.11001 144.519 4.78799C141.331 5.42762 138.55 6.52914 136.5 7.4302C134.797 8.20229 134.257 8.16917 135.543 7.28902C136.033 6.95613 136.535 6.60234 137.081 6.25376C137.644 5.93831 138.243 5.61242 138.902 5.27953C144.7 2.50314 151.63 1.58461 158.656 3.01899C161.948 3.68999 164.914 4.81596 167.691 6.26602C170.465 7.7248 173.06 9.51295 175.577 11.7212C180.222 15.8239 183.882 21.0455 186.149 26.8371C188.41 32.6269 189.311 38.9639 188.579 45.1842C188.04 49.5606 186.562 53.8428 184.305 57.6301C178.688 66.9405 168.86 73.3769 158.213 75.1354C153.732 75.9093 149.086 75.7716 144.646 74.7067C142.433 74.1455 140.281 73.3507 138.234 72.3346C136.223 71.261 134.255 70.0671 132.533 68.5648C132.251 68.326 131.934 68.0837 131.622 67.8031C131.32 67.5103 131.001 67.2001 130.667 66.876C130.341 66.5448 129.966 66.2224 129.637 65.8424C129.311 65.459 128.971 65.0599 128.621 64.6468C127.92 63.8224 127.171 62.9388 126.383 62.0116C125.646 61.046 124.971 59.9515 124.22 58.8605C121.344 54.4266 118.922 48.7257 118.162 42.8244C117.332 36.9352 118.136 31.0565 119.624 26.5146C120.042 25.3922 120.342 24.2907 120.797 23.3339C121.25 22.377 121.668 21.4882 122.05 20.6813C122.902 19.1127 123.695 17.9205 124.178 17.0927C124.987 16.019 125.761 15.0413 126.508 14.1176C127.354 13.2723 128.169 12.4793 128.983 11.7037C129.863 10.9944 130.773 10.3425 131.688 9.65585C132.655 9.04061 133.708 8.48816 134.784 7.86073Z" fill="white"/>
<path d="M164.48 45.3188C164.098 45.0748 163.702 44.8569 163.301 44.6756C163.103 44.585 162.895 44.5118 162.695 44.456C162.526 44.4246 162.352 44.395 162.212 44.4804C161.956 44.7453 162.176 45.0434 162.259 45.507C162.381 45.9427 162.465 46.3802 162.503 46.8176C162.698 48.5675 162.646 50.2859 162.521 51.9869C162.4 53.6897 162.202 55.3821 161.972 57.1023C161.761 58.8155 161.395 60.5846 161.252 62.3396C161.091 64.5653 161.464 66.9042 162.827 68.6488C163.164 69.081 163.551 69.4714 163.983 69.8112C164.199 69.9838 164.426 70.1407 164.664 70.2993C164.786 70.3812 164.898 70.444 165.058 70.5677C165.118 70.6392 165.145 70.5921 165.266 70.8378C165.281 70.8657 165.313 70.9598 165.281 71.1062C165.266 71.1707 165.236 71.23 165.203 71.277C165.168 71.3293 165.058 71.4112 165.102 71.3746L165.058 71.406C164.973 71.4705 164.706 71.5506 164.654 71.5402C163.195 71.5768 162.12 70.8622 161.184 70.0465C160.731 69.6021 160.314 69.196 159.987 68.5877C159.676 68.0109 159.499 67.4183 159.356 66.8257C159.082 65.6423 158.956 64.4554 158.88 63.2703C158.739 60.9017 158.779 58.5384 158.895 56.1821C158.937 54.9899 159.096 53.8361 159.017 52.7225C158.955 51.5896 158.775 50.455 158.517 49.3413C158.249 48.2416 157.918 47.1052 157.444 46.1518C157.388 46.042 157.313 45.9183 157.278 45.8764C157.255 45.8468 157.269 45.8555 157.228 45.8468C157.034 45.8067 156.759 45.7928 156.501 45.8032C155.976 45.8242 155.441 45.9218 154.964 46.0926C154.49 46.2686 154.082 46.5387 153.864 46.8734C153.658 47.3039 153.636 47.2655 154.017 47.7239C154.801 48.5134 155.683 49.4912 156.271 50.5439C156.895 51.5931 157.362 52.7102 157.731 53.8414C158.101 54.9742 158.439 56.1001 158.587 57.3428C158.782 59.0682 158.421 60.947 157.374 62.4041C156.358 63.8768 154.856 64.8877 153.263 65.5256C152.86 65.6842 152.449 65.8201 152.018 65.9212C151.8 65.97 151.586 66.0153 151.338 66.038C151.213 66.0484 151.087 66.0606 150.89 66.0345C150.838 66.0292 150.713 65.9892 150.634 65.9491C150.633 65.9613 150.434 65.8271 150.369 65.6633C150.333 65.5813 150.315 65.4942 150.312 65.4245C150.39 64.9992 150.335 65.3042 150.352 65.2084L150.354 65.2031L150.357 65.1944L150.392 65.1212C150.437 65.0428 150.502 64.9608 150.577 64.8911C150.774 64.7256 150.796 64.75 150.857 64.7099L151.018 64.6367L151.29 64.5147C151.466 64.438 151.622 64.3544 151.781 64.2603C152.095 64.0808 152.374 63.8455 152.639 63.5927C153.686 62.547 154.286 61.0429 154.693 59.5301C155.07 58.0835 155.269 56.6578 154.826 55.342C154.373 54.0435 153.367 52.9856 152.203 52.0654C151.063 51.112 149.69 50.3103 148.747 48.8428C148.308 48.1073 148.09 47.1627 148.21 46.3244C148.32 45.4774 148.618 44.6704 149.052 43.9767C149.92 42.5876 151.108 41.521 152.306 40.5555C152.904 40.071 153.529 39.6126 154.078 39.1472C154.223 39.0305 154.333 38.9172 154.435 38.8091C154.5 38.7586 154.444 38.7325 154.535 38.7273C154.49 38.6819 154.491 38.6767 154.498 38.6523C154.47 38.3839 154.376 38.0127 154.275 37.6676C153.36 34.8389 152.105 32.0398 150.866 29.2809C150.239 27.9005 149.594 26.5254 148.93 25.1625C148.28 23.7996 147.549 22.468 146.91 21.058C145.634 18.2607 144.59 15.338 144.069 12.2688C143.945 11.4984 143.851 10.7246 143.849 9.9159C143.846 9.71547 143.856 9.50806 143.875 9.29543C143.919 9.06363 143.882 8.89455 144.111 8.49718C144.175 8.42049 144.248 8.34556 144.362 8.28979C144.526 8.21659 144.743 8.22878 144.834 8.28281C144.893 8.30721 144.949 8.34033 144.998 8.37693C145.136 8.51114 145.043 8.4222 145.076 8.45531L145.087 8.47105L145.13 8.52679C145.183 8.58431 145.259 8.72371 145.322 8.84048C145.465 9.10888 145.495 9.23091 145.587 9.43482C146.145 10.8762 146.657 12.281 147.257 13.6666C148.442 16.436 149.876 19.092 151.616 21.5338C154.331 25.3228 156.403 29.2147 158.265 32.9915C158.496 33.4655 158.732 33.9308 158.97 34.377C159.061 34.5809 159.272 34.9138 159.251 34.872C159.261 34.9121 159.302 34.9191 159.326 34.8929L159.41 34.8145L159.657 34.5531L160.154 33.9796C160.49 33.5875 160.83 33.1884 161.187 32.8015C162.597 31.2643 164.37 29.8194 166.582 29.3837C167.666 29.1606 168.818 29.2164 169.862 29.497C170.926 29.7253 171.941 30.1819 172.861 30.7519C174.733 31.883 176.141 33.5335 177.678 34.8895C178.449 35.5587 179.273 36.1443 180.186 36.4197C181.082 36.709 182.088 36.5957 183.142 36.4127C184.169 36.2227 185.159 35.8689 185.814 35.1875L186.124 34.8581C186.149 34.8319 186.215 34.7744 186.302 34.7187C186.344 34.6908 186.374 34.6698 186.431 34.6454C186.508 34.6158 186.595 34.5949 186.68 34.5862C187.017 34.56 187.255 34.7605 187.316 34.8215L187.393 34.8929L187.414 34.9121C187.571 35.1212 187.461 34.9766 187.498 35.0254L187.512 35.0498L187.54 35.0969C187.567 35.1561 187.592 35.2205 187.609 35.2885C187.627 35.3565 187.639 35.4245 187.644 35.4925L187.641 35.5953C187.635 35.6598 187.632 35.7417 187.62 35.7887C187.576 36.0101 187.51 36.1861 187.435 36.343C187.135 36.9739 186.738 37.4584 186.295 37.9202C184.862 39.4034 182.7 40.3725 180.542 40.1198C179.477 40.0065 178.471 39.637 177.595 39.1281C176.746 38.6279 175.991 38.1747 175.176 37.7878C173.577 37.0245 171.913 36.5155 170.461 36.7212C169.002 36.9268 168.049 38.0388 167.568 39.1211C167.179 40.0413 167.038 40.6653 166.923 40.8099C166.82 40.9598 166.812 40.6531 166.956 39.8043C167.118 39.1716 167.301 38.5093 167.692 37.8906C168.047 37.258 168.629 36.6671 169.414 36.3151C171.169 35.5378 173.117 35.9979 174.787 36.6149C175.627 36.9547 176.457 37.3346 177.248 37.786C178.064 38.2496 178.761 38.654 179.602 38.8771C181.236 39.3582 183.043 39.0288 184.483 38.0266C185.201 37.5369 185.852 36.8937 186.3 36.1669C186.405 35.9891 186.499 35.7974 186.537 35.6441C186.546 35.6092 186.557 35.5691 186.553 35.5569C186.557 35.5604 186.55 35.5116 186.567 35.5622C186.63 35.5866 186.717 35.5865 186.771 35.5499L186.785 35.489L186.792 35.4594L186.795 35.4454L186.797 35.4367C186.717 35.5343 186.978 35.2084 186.619 35.6528L186.6 35.6389C186.607 35.6214 186.574 35.6615 186.614 35.5988C186.668 35.4977 186.675 35.5238 186.696 35.4872C186.734 35.468 186.745 35.3095 186.74 35.3653C186.74 35.3809 186.745 35.3931 186.752 35.4001C186.755 35.3948 186.762 35.4123 186.799 35.4977C186.891 35.672 186.896 35.6354 186.893 35.6267L186.802 35.7225L186.544 35.9979C186.351 36.1844 186.142 36.3674 185.917 36.5138C185.07 37.0854 184.134 37.3242 183.238 37.495C182.787 37.5839 182.339 37.6187 181.891 37.6693C181.417 37.6588 180.941 37.7042 180.477 37.5839C179.543 37.4253 178.684 36.9931 177.971 36.4667C177.239 35.9491 176.606 35.3513 175.995 34.7604C174.778 33.5701 173.6 32.3936 172.181 31.5361C171.835 31.3131 171.451 31.1545 171.083 30.961C170.691 30.8321 170.315 30.6456 169.905 30.5584C169.093 30.3406 168.262 30.2029 167.42 30.297C165.86 30.4347 164.412 31.2155 163.206 32.2786C162.594 32.805 162.034 33.4011 161.492 34.0215L160.677 34.9748L160.237 35.4611C160.133 35.5796 159.795 35.909 159.483 36.0258C159.326 36.0973 159.15 36.0955 158.986 36.0554C158.819 36.0049 158.725 35.8497 158.608 35.719C158.346 35.4314 158.224 35.231 158.137 35.048L157.548 33.9134L156.419 31.6703C155.664 30.1802 154.869 28.7144 154.04 27.2731C153.193 25.8405 152.318 24.4235 151.361 23.0676C150.427 21.7047 149.411 20.2912 148.593 18.8115C146.885 15.8852 145.627 12.6557 144.452 9.58996C144.388 9.43136 144.365 9.41389 144.346 9.33023C144.346 9.31455 144.308 9.27621 144.289 9.25007C144.28 9.23438 144.264 9.22392 144.259 9.20301L144.499 8.92592C144.632 8.90326 144.578 8.88061 144.607 8.84227C144.607 8.81438 144.611 8.84923 144.616 8.83878C144.641 8.91372 144.714 8.94163 144.857 9.04097C144.909 9.07409 145.019 9.10715 145.033 9.11237L145.027 9.12982C145.024 9.13679 145.019 9.15248 145.015 9.18037C145.005 9.2222 144.994 9.27974 144.987 9.339C144.973 9.45577 144.965 9.58822 144.961 9.72068C144.951 10.2575 144.998 10.8291 145.069 11.3921C145.216 12.5249 145.472 13.656 145.779 14.7732C146.403 17.0058 147.262 19.181 148.267 21.2811C149.555 23.8466 150.857 26.4888 152.041 29.1362C153.226 31.8011 154.408 34.4432 155.33 37.2736C155.431 37.6431 155.542 37.9987 155.601 38.4379C155.629 38.6279 155.636 39.1246 155.431 39.339C155.34 39.4958 155.263 39.5638 155.188 39.6405C155.112 39.7154 155.032 39.8095 154.958 39.867C154.368 40.3846 153.791 40.8012 153.228 41.2491C152.117 42.138 151.033 43.0653 150.261 44.1737C149.472 45.2369 149.06 46.6137 149.447 47.7326C149.85 48.869 151.037 49.7387 152.165 50.6205C153.128 51.37 154.146 52.1595 154.944 53.2262C155.755 54.2754 156.217 55.6539 156.185 56.9785C156.152 58.3188 155.877 59.5388 155.493 60.7483C155.093 61.9492 154.549 63.1535 153.642 64.1522C153.195 64.6472 152.649 65.0811 152.048 65.3914C151.898 65.4733 151.746 65.5361 151.602 65.604L151.399 65.6929L151.323 65.7295C151.319 65.7312 151.281 65.7504 151.302 65.7382C151.331 65.7225 151.361 65.6963 151.384 65.665C151.396 65.6179 151.258 65.4854 151.168 65.4401C151.047 65.3774 151.087 65.4402 151.039 65.4332C150.999 65.4228 151.012 65.5011 150.929 65.414C150.957 65.4 150.934 65.3897 150.999 65.299C151.039 65.2223 151.049 65.1421 151.046 65.0567C151.082 64.8825 151.073 64.9347 151.08 64.9277C151.084 64.9277 151.1 64.9312 151.131 64.9277C151.227 64.9277 151.368 64.9069 151.497 64.8825C152.585 64.6681 153.686 64.1731 154.625 63.5334C155.568 62.8868 156.361 62.0398 156.86 61.0412C157.369 60.0442 157.546 58.9027 157.466 57.7646C157.423 57.0204 157.235 56.189 156.959 55.2357C156.698 54.2928 156.353 53.2767 155.873 52.2484C155.394 51.2201 154.777 50.1901 153.918 49.2611C153.693 49.0224 153.465 48.7783 153.233 48.5326C153.013 48.2677 152.658 47.9418 152.604 47.3335C152.639 46.2094 153.414 45.6307 154.129 45.2491C154.873 44.89 155.657 44.7419 156.462 44.7088C156.665 44.7053 156.87 44.707 157.081 44.7262C157.283 44.7541 157.529 44.7523 157.855 44.9441C158.162 45.1584 158.265 45.4094 158.362 45.5732C158.472 45.7649 158.54 45.9462 158.629 46.1327C159.23 47.6071 159.607 49.1443 159.854 50.7443C159.976 51.5425 160.048 52.3564 160.054 53.1808C160.072 54.0209 159.978 54.8278 159.932 55.6138C159.826 57.2051 159.762 58.8068 159.756 60.3946C159.753 61.9823 159.802 63.5614 159.985 65.0881C160.208 66.6149 160.452 68.091 161.47 69.067C161.947 69.5847 162.503 70.0135 163.104 70.3063C163.404 70.4492 163.715 70.5642 164.021 70.6286C164.171 70.6565 164.328 70.6792 164.457 70.674C164.492 70.6775 164.516 70.6722 164.541 70.6687C164.579 70.667 164.591 70.6583 164.548 70.6775L164.534 70.6914C164.549 70.7263 164.569 70.7873 164.596 70.7942L164.75 70.8919C164.779 70.9337 164.741 70.8343 164.823 70.9912C164.821 70.9912 164.819 70.993 164.821 70.9964C164.844 70.9999 164.786 70.9999 164.752 71.0226C164.699 71.0505 164.732 71.0626 164.635 71.1324C164.562 71.1916 164.48 71.277 164.508 71.2509C164.351 71.1306 163.953 70.8884 163.687 70.6845C163.392 70.4684 163.113 70.2313 162.854 69.9803C162.338 69.4767 161.904 68.9085 161.562 68.3141C160.196 65.8811 160.267 63.3278 160.471 61.3967C160.759 59.4796 160.99 57.9475 161.146 56.9175C161.566 54.0435 161.895 51.5879 162.057 49.16C162.115 47.9505 162.172 46.7305 161.926 45.5175C161.891 45.2264 161.768 44.8551 161.865 44.5205C161.975 44.1423 162.456 44.1702 162.752 44.294C163.371 44.5293 163.929 44.9074 164.48 45.3188Z" fill="white"/>
<path d="M169.308 47.105C170.296 47.4763 171.068 47.7882 171.938 48.264C172.507 48.5133 173.079 48.7938 173.701 48.9298L174.62 49.1669L175.563 49.2853C176.185 49.3969 176.818 49.3725 177.445 49.369C178.066 49.3916 178.703 49.3481 179.336 49.3097C180.225 49.2592 181.112 49.1721 181.978 48.9995C182.383 48.9211 182.782 48.8217 183.172 48.7102C183.367 48.6527 183.568 48.597 183.752 48.5272L183.845 48.4958C183.908 48.4714 183.976 48.4418 184.042 48.4C184.071 48.3774 184.108 48.3547 184.125 48.3181C184.12 48.2849 184.068 48.3024 184.038 48.2989L183.01 48.3861C182.154 48.4558 181.295 48.508 180.431 48.5289C177.816 48.5516 175.76 48.4348 173.158 47.5477C172.089 47.1678 171.077 46.3765 170.641 45.7683C170.451 45.519 170.521 45.3482 170.773 45.4144C170.969 45.4615 171.162 45.5173 171.369 45.6027C172.253 45.9843 173.098 46.3974 174.09 46.7164C175.019 47.0005 175.847 47.2393 176.83 47.3473C178.649 47.5373 180.497 47.4937 182.336 47.3281C183.216 47.2392 184.094 47.1503 184.972 47.0632C185.345 47.0405 185.792 46.983 186.018 47.0353C186.083 47.044 186.165 47.0457 186.215 47.0597L186.292 47.1295C186.351 47.1765 186.381 47.2218 186.407 47.2654L186.489 47.3874C186.536 47.417 186.501 47.4937 186.67 47.5704C186.693 47.7691 186.609 47.9154 186.564 48.0688C186.416 48.379 185.936 48.7346 185.333 49.0588C184.993 49.2139 184.683 49.3812 184.305 49.5085L183.922 49.6461L183.618 49.7368C182.252 50.1481 180.859 50.345 179.472 50.4531C179.015 50.4775 178.323 50.5419 177.489 50.4792C177.074 50.4583 176.629 50.4356 176.175 50.413C175.727 50.3311 175.265 50.2457 174.81 50.162C173.001 49.7594 171.389 49.0082 170.89 48.6736C170.162 48.2658 169.766 47.7464 169.308 47.105Z" fill="white"/>
<path d="M160.619 38.8473C161.497 38.6834 162.217 38.7845 163.008 39.0424C165 39.7082 167.173 40.1248 169.035 41.3744C169.68 41.8101 170.298 42.3609 170.745 43.1208C171.149 43.8214 171.33 44.6405 171.147 45.4788C170.959 46.3067 170.41 46.9847 169.777 47.4309C169.122 47.8579 168.427 48.182 167.553 48.189C167.445 48.189 167.332 48.1837 167.201 48.1489C167.078 48.1332 166.95 48.0845 166.813 47.9903C166.651 47.9067 166.593 47.8404 166.534 47.7847L166.337 47.6069L165.577 46.9167C164.031 45.5642 162.811 44.5568 161.044 43.5477C160.676 43.363 160.319 43.1085 159.986 42.8907C159.65 42.6955 159.346 42.4846 159.121 42.2964C158.937 42.1395 158.935 41.9478 159.148 41.9181C159.31 41.8972 159.486 41.8729 159.674 41.8973C160.519 41.9827 161.248 42.4184 162.023 42.8559C162.734 43.2985 163.296 43.7586 163.961 44.2519C164.585 44.6998 165.187 45.1773 165.77 45.6706L166.64 46.4165L167.064 46.7895L167.271 46.9707L167.369 47.0544C167.384 47.0666 167.384 47.0492 167.388 47.0544C167.411 47.0631 167.606 47.0945 167.806 47.0474C168.003 47.0213 168.217 46.9516 168.425 46.8731C169.472 46.4914 170.265 45.5625 170.082 44.5359C169.993 43.6052 169.281 42.9534 168.425 42.3487C167.888 41.9513 166.598 41.2611 165.272 40.7487C163.956 40.2223 162.642 39.8302 162.199 39.6943C161.579 39.5008 161.183 39.1941 160.619 38.8473Z" fill="white"/>
<path d="M122.864 29.4775C123.253 27.9385 123.706 26.41 124.317 24.9426C124.554 24.3413 124.87 23.7679 125.196 23.2328C125.292 23.0707 125.473 22.9749 125.565 22.9697C125.604 22.9697 125.52 23.2607 125.496 23.428C125.489 23.4664 125.459 23.5256 125.438 23.5744C124.863 24.9582 124.483 26.4135 124.056 27.8444C123.169 30.9485 122.705 34.1571 122.555 37.3814L122.505 38.7478L122.578 40.1178L122.658 41.4876L122.852 42.8453C123.012 44.4 123.455 45.9005 123.796 47.4186C123.991 48.0826 124.204 48.7571 124.357 49.4159C124.492 49.9335 124.608 50.4581 124.807 50.9549C125.025 51.4481 125.241 51.9379 125.461 52.4346C126.085 53.9945 126.982 55.4167 127.791 56.8894C127.871 57.0358 127.948 57.2989 127.92 57.3547C127.894 57.4122 127.73 57.3337 127.634 57.2187C127.357 56.8754 127.057 56.5076 126.81 56.1068C126.348 55.3016 125.787 54.5452 125.414 53.6894L124.216 51.1571C123.795 50.0852 123.448 48.9767 123.043 47.8962C122.716 46.6465 122.353 45.3986 122.146 44.1229C121.972 42.8401 121.757 41.5608 121.757 40.2606C121.618 37.9548 121.78 35.6351 122.048 33.3432L122.379 31.393C122.503 30.7446 122.67 30.105 122.815 29.4618L122.864 29.4775Z" fill="white"/>
<path d="M134.032 64.2602C133.186 63.5021 132.369 62.7056 131.642 61.8324C131.341 61.4821 131.088 61.0829 130.87 60.689C130.802 60.5705 130.827 60.4049 130.874 60.3335C130.893 60.3039 131.065 60.4398 131.172 60.5026C131.198 60.5183 131.224 60.5549 131.248 60.5828C131.952 61.3845 132.773 62.0781 133.538 62.8136C135.206 64.3909 137.071 65.7399 139.016 66.9564C139.555 67.3189 140.132 67.6204 140.723 67.8975C141.299 68.199 141.897 68.457 142.509 68.6836C143.525 69.1333 144.606 69.3964 145.658 69.7398C146.136 69.8583 146.622 69.9907 147.077 70.1563C147.792 70.4369 148.546 70.5467 149.315 70.6339C150.495 70.8343 151.694 70.8447 152.888 70.9214C153.006 70.9284 153.193 71.0016 153.217 71.0521C153.24 71.1062 153.132 71.2055 153.025 71.2247C152.713 71.284 152.375 71.345 152.037 71.345C150.706 71.3955 149.379 71.2299 148.05 71.0852C147.234 70.9493 146.427 70.7541 145.615 70.6094C143.818 70.1633 142.052 69.5585 140.419 68.6696C138.938 67.9376 137.538 67.0418 136.184 66.0936C135.436 65.5167 134.694 64.9347 133.997 64.2968L134.032 64.2602Z" fill="white"/>
<path d="M126.418 46.7353C125.964 45.4473 125.512 44.1559 125.186 42.8313C125.047 42.2928 124.965 41.7368 124.914 41.2C124.895 41.0379 124.982 40.8724 125.052 40.8183C125.082 40.7957 125.191 41.0362 125.268 41.1616C125.286 41.193 125.296 41.2471 125.308 41.2907C125.662 42.5368 126.152 43.7358 126.558 44.9611C127.476 47.5928 128.641 50.1252 129.922 52.5984C130.648 53.9909 131.53 55.3102 132.445 56.5895L133.69 58.172C134.11 58.6967 134.589 59.1672 135.028 59.6726C135.227 59.8957 135.422 60.1258 135.61 60.3593C135.806 60.5719 136.004 60.7881 136.208 61.0129C136.818 61.6961 137.456 62.3654 138.221 62.9057C138.8 63.3327 139.342 63.8137 139.945 64.2076L141.768 65.3701C141.888 65.4485 142.048 65.6246 142.047 65.6838C142.045 65.7448 141.885 65.7657 141.764 65.7186C141.409 65.5809 141.025 65.4328 140.672 65.2289C139.976 64.8298 139.269 64.4394 138.639 63.9357C138.007 63.4425 137.315 63.0138 136.726 62.463C136.004 61.7815 135.211 61.161 134.549 60.4168C133.772 59.6169 133.006 58.8047 132.351 57.9036C131.644 57.0392 131.054 56.0946 130.457 55.1534C129.932 54.3099 129.465 53.4315 128.968 52.5722C128.531 51.6816 128.038 50.8154 127.656 49.8986C127.18 48.8686 126.772 47.8107 126.37 46.7528L126.418 46.7353Z" fill="white"/>
<path d="M128.154 34.0982C128.251 33.2511 128.35 32.4041 128.527 31.571C128.596 31.2311 128.718 30.8982 128.856 30.588C128.896 30.4921 129.028 30.4311 129.112 30.4277C129.149 30.4259 129.17 30.5932 129.194 30.6891C129.201 30.7117 129.192 30.7449 129.189 30.7727C129.086 31.571 129.084 32.3797 128.988 33.1727C128.798 34.8911 128.767 36.6183 128.734 38.3455C128.713 39.3215 128.816 40.301 128.933 41.27C129.039 42.0979 129.194 42.9153 129.37 43.7275C129.431 44.0935 129.494 44.4647 129.532 44.8255C129.591 45.3989 129.717 45.9584 129.926 46.4986C130.196 47.3544 130.536 48.1805 130.885 49.0067C130.918 49.0886 130.914 49.2471 130.876 49.2837C130.836 49.3238 130.71 49.2941 130.658 49.2314C130.499 49.0467 130.329 48.8463 130.215 48.618C129.741 47.7326 129.407 46.7827 129.07 45.8346C128.899 45.2403 128.706 44.6442 128.561 44.0412C128.209 42.6939 128.002 41.3136 127.96 39.9228C127.91 38.6854 127.878 37.4427 127.936 36.2053C127.967 35.4994 128.03 34.7953 128.103 34.0912L128.154 34.0982Z" fill="white"/>
<path d="M133.571 11.7876C132.912 12.246 132.356 12.8194 131.769 13.3562C131.555 13.5932 131.286 13.7954 131.047 13.9993C130.976 14.0621 130.831 14.0656 130.748 14.0429C130.713 14.0324 130.758 13.8686 130.776 13.771C130.781 13.7466 130.802 13.7187 130.817 13.6943C131.264 13.0268 131.762 12.3959 132.342 11.8382C133.006 11.2979 133.657 10.7245 134.373 10.2505C135.107 9.80777 135.821 9.32149 136.6 8.96594C137.493 8.59646 138.357 8.15726 139.235 7.74943L141.567 6.93552C141.916 6.82049 142.28 6.73331 142.631 6.67928C143.192 6.61305 143.744 6.52768 144.297 6.3987C145.151 6.22616 146.005 6.05362 146.866 5.87933C146.951 5.86365 147.096 5.89853 147.12 5.94733C147.145 5.99438 147.085 6.11285 147.016 6.15293C146.806 6.2697 146.587 6.39519 146.355 6.45793C145.426 6.69845 144.522 6.93379 143.61 7.17082C143.037 7.2876 142.491 7.49667 141.949 7.70756C140.74 8.1973 139.488 8.5389 138.315 9.10185C137.78 9.34062 137.254 9.57418 136.726 9.80947L135.239 10.7088C134.652 11.026 134.129 11.4286 133.602 11.8295L133.571 11.7876Z" fill="white"/>
<path d="M174.095 16.8349C173.501 16.2423 172.893 15.662 172.281 15.0903C172.032 14.8568 171.81 14.5883 171.6 14.3287C171.535 14.2485 171.54 14.1055 171.57 14.0254C171.582 13.9922 171.748 14.0498 171.844 14.0724C171.866 14.0776 171.894 14.1003 171.918 14.1178C172.588 14.5901 173.267 15.0537 173.872 15.6079C175.167 16.8052 176.426 18.0531 177.513 19.4527C178.12 20.2457 178.763 21.016 179.359 21.823C179.849 22.5236 180.375 23.2034 180.805 23.9458C180.997 24.2752 181.191 24.6133 181.307 24.9723C181.492 25.5353 181.79 26.0338 182.031 26.5758L182.585 27.8289L183.028 29.1274C183.057 29.2145 183.041 29.3679 183 29.3993C182.956 29.4324 182.829 29.3853 182.78 29.3208C182.634 29.1221 182.477 28.9147 182.381 28.6864C182.201 28.2315 182.001 27.7871 181.769 27.3549C181.551 26.9174 181.344 26.4764 181.086 26.0581C180.786 25.5353 180.502 25.0003 180.15 24.5088C179.406 23.3794 178.604 22.2953 177.825 21.1816C177.102 20.2108 176.311 19.2854 175.486 18.3913C175.024 17.8719 174.542 17.3717 174.059 16.8715L174.095 16.8349Z" fill="white"/>
<path d="M132.708 46.7686C132.497 46.2196 132.363 45.6392 132.25 45.0606C132.22 44.8201 132.22 44.5779 132.26 44.3373C132.272 44.2624 132.38 44.1926 132.459 44.1717C132.492 44.163 132.563 44.2658 132.614 44.3146C132.626 44.3268 132.628 44.3495 132.633 44.3687C132.776 44.8915 133.016 45.383 133.18 45.892C133.335 46.4479 133.612 46.9655 133.813 47.5058C134.069 48.0235 134.351 48.5289 134.585 49.0639C134.887 49.6461 135.326 50.1533 135.7 50.6918C136.018 51.1589 136.48 51.504 136.846 51.9293C137.016 52.1123 137.17 52.3214 137.295 52.541C137.476 52.9105 137.813 53.1214 138.116 53.3723C138.597 53.7453 139.064 54.1375 139.535 54.5296C139.582 54.5697 139.62 54.683 139.601 54.7335C139.582 54.7841 139.479 54.8346 139.423 54.8224C139.258 54.7805 139.078 54.737 138.933 54.6394C138.353 54.2351 137.799 53.8499 137.238 53.4595C136.886 53.2155 136.622 52.8687 136.297 52.5915C135.944 52.2674 135.601 51.9275 135.272 51.5807C134.974 51.2042 134.717 50.7947 134.456 50.3903C133.958 49.6932 133.586 48.9158 133.189 48.1542C132.969 47.7167 132.837 47.2392 132.657 46.7843L132.708 46.7686Z" fill="white"/>
<path d="M168.843 32.132C169.255 32.0675 169.67 32.0274 170.086 32.0222C170.255 32.0257 170.428 32.071 170.59 32.1373C170.64 32.1547 170.684 32.2715 170.693 32.3516C170.696 32.3865 170.623 32.444 170.581 32.4893C170.572 32.5015 170.555 32.5015 170.541 32.5032C170.165 32.5816 169.797 32.7229 169.424 32.7804C168.619 32.9024 167.845 33.1289 167.073 33.338C166.633 33.4548 166.231 33.6744 165.854 33.9114C165.539 34.1206 165.232 34.3489 164.978 34.6156C164.864 34.7358 164.699 34.8125 164.563 34.9101C164.35 35.0652 164.141 35.25 164.038 35.4975C163.949 35.684 163.834 35.8565 163.753 36.0482L163.536 36.6338C163.521 36.6722 163.437 36.7192 163.385 36.7175C163.331 36.714 163.242 36.653 163.231 36.6094C163.197 36.4839 163.163 36.3427 163.19 36.2173C163.271 35.7205 163.495 35.2465 163.754 34.8073C163.927 34.5389 164.115 34.281 164.335 34.0509C164.788 33.488 165.415 33.1081 166.058 32.8449C166.637 32.6166 167.214 32.4021 167.81 32.2627C168.15 32.1878 168.491 32.1215 168.836 32.0814L168.843 32.132Z" fill="white"/>
<path d="M165.671 36.4509C165.786 36.2871 165.884 36.1145 166.022 35.9664C166.079 35.9054 166.166 35.874 166.269 35.8496C166.299 35.8426 166.402 35.8984 166.466 35.9454C166.496 35.9646 166.52 36.0308 166.545 36.0727C166.55 36.0831 166.545 36.0866 166.545 36.0936C166.494 36.2766 166.492 36.4857 166.41 36.6391C166.227 36.9702 166.098 37.3241 165.874 37.6344C165.736 37.8069 165.694 38.0212 165.626 38.2216C165.562 38.3924 165.53 38.5702 165.49 38.7445C165.469 38.8194 165.417 38.8909 165.339 38.9537C165.218 39.0548 165.173 39.1767 165.166 39.304C165.147 39.4992 165.105 39.6909 165.061 39.8878C165.056 39.907 164.986 39.9349 164.936 39.9384C164.882 39.9401 164.783 39.9175 164.76 39.8983C164.695 39.8425 164.627 39.7798 164.62 39.7188C164.6 39.4818 164.586 39.2395 164.598 38.999C164.612 38.8526 164.648 38.7097 164.657 38.558C164.661 38.2164 164.797 37.9097 164.953 37.6169C165.103 37.3659 165.218 37.0975 165.359 36.8431L165.628 36.423L165.671 36.4509Z" fill="white"/>
<path d="M154.216 42.4587C154.513 42.3471 154.814 42.2426 155.125 42.1694C155.25 42.1433 155.391 42.1589 155.529 42.1921C155.571 42.2008 155.632 42.3036 155.658 42.3803C155.668 42.4134 155.628 42.4831 155.609 42.5354C155.604 42.5476 155.592 42.5511 155.583 42.5546C155.321 42.701 155.083 42.8962 154.818 43.006C154.243 43.2412 153.706 43.5428 153.143 43.7833C152.822 43.9175 152.543 44.1318 152.287 44.3532C152.055 44.531 151.876 44.754 151.684 44.9562C151.604 45.0538 151.499 45.1287 151.372 45.1897C151.191 45.2978 151.079 45.4687 150.987 45.6447C150.933 45.7876 150.872 45.9288 150.807 46.0699C150.769 46.2181 150.729 46.368 150.689 46.5196C150.678 46.5492 150.604 46.591 150.553 46.591C150.497 46.5928 150.401 46.5527 150.384 46.5196C150.332 46.4255 150.276 46.3157 150.283 46.2146C150.285 46.0124 150.33 45.8189 150.393 45.6289C150.44 45.4303 150.518 45.2455 150.614 45.0695C150.713 44.8377 150.87 44.6477 151.004 44.4403C151.315 43.9785 151.74 43.6177 152.21 43.365C152.624 43.128 153.031 42.8996 153.455 42.701C153.701 42.5981 153.946 42.4953 154.197 42.4116L154.216 42.4587Z" fill="white"/>
<path d="M163.046 41.8032C162.812 41.6324 162.594 41.4721 162.345 41.2909C162.251 41.2177 162.183 41.1043 162.122 40.991C162.101 40.9562 162.136 40.8412 162.169 40.768C162.183 40.7366 162.263 40.7157 162.312 40.693C162.326 40.6878 162.336 40.6965 162.345 40.6982C162.622 40.7958 162.929 40.8481 163.17 41.0067C163.692 41.3361 164.226 41.6603 164.658 42.1169C164.897 42.3801 165.196 42.5666 165.449 42.8176C165.669 43.0267 165.911 43.2115 166.118 43.4328C166.207 43.5392 166.274 43.6681 166.314 43.8075C166.376 44.0254 166.504 44.184 166.64 44.3426C166.823 44.6145 166.976 44.9073 167.129 45.1914C167.145 45.221 167.112 45.2924 167.07 45.3203C167.027 45.3482 166.918 45.3709 166.884 45.3587C166.779 45.3238 166.667 45.289 166.612 45.2245C166.389 44.977 166.223 44.7068 165.962 44.4872C165.813 44.3443 165.681 44.191 165.529 44.055C165.16 43.7744 164.839 43.452 164.52 43.1104C164.231 42.8124 163.907 42.5475 163.576 42.293C163.387 42.1466 163.21 41.9862 163.016 41.845L163.046 41.8032Z" fill="white"/>
<path d="M167.008 43.8545C166.956 43.7604 166.897 43.6715 166.86 43.5687C166.845 43.5268 166.869 43.4589 166.902 43.3892C166.911 43.3683 167 43.2968 167.068 43.2497C167.096 43.2305 167.157 43.2149 167.2 43.2009C167.211 43.1975 167.212 43.2009 167.216 43.2026C167.331 43.2514 167.484 43.2758 167.551 43.356C167.688 43.5303 167.856 43.6871 167.91 43.9155C167.941 44.0444 168.032 44.1351 168.103 44.2397C168.164 44.3286 168.242 44.4053 168.296 44.4976C168.319 44.5395 168.317 44.5987 168.291 44.6701C168.251 44.7817 168.284 44.848 168.324 44.9107C168.387 45.0066 168.431 45.1145 168.474 45.2226C168.478 45.2331 168.432 45.2853 168.389 45.3132C168.347 45.3446 168.255 45.3917 168.228 45.3952C168.154 45.4074 168.075 45.4213 168.047 45.4022C167.937 45.3237 167.845 45.2331 167.751 45.1424C167.693 45.0884 167.652 45.0222 167.585 44.9734C167.439 44.8619 167.348 44.7137 167.298 44.5394C167.252 44.3843 167.157 44.2606 167.083 44.1229C167.045 44.0462 167.005 43.9625 166.965 43.8823L167.008 43.8545Z" fill="white"/>
<path d="M153.71 31.1264C153.518 30.7744 153.333 30.4345 153.135 30.0703C153.06 29.9239 153.025 29.7531 152.995 29.5858C152.987 29.5352 153.062 29.4394 153.123 29.3854C153.149 29.361 153.241 29.3958 153.302 29.408C153.316 29.4115 153.323 29.4255 153.333 29.4359C153.595 29.7357 153.902 30.0075 154.102 30.3456C154.543 31.0672 154.991 31.7922 155.294 32.5904C155.453 33.0453 155.697 33.4637 155.883 33.9098C156.037 34.2933 156.211 34.668 156.356 35.0549C156.424 35.2274 156.432 35.4279 156.427 35.6161C156.415 35.9159 156.485 36.1861 156.563 36.4614C156.669 36.8902 156.666 37.3537 156.706 37.7929C156.709 37.8382 156.65 37.9079 156.601 37.9167C156.549 37.9236 156.441 37.8853 156.413 37.8487C156.329 37.7389 156.241 37.6291 156.214 37.5158C156.119 37.0714 156.044 36.634 155.855 36.2C155.758 35.9333 155.686 35.6597 155.575 35.3983C155.266 34.8266 155.08 34.2218 154.834 33.6188C154.635 33.0768 154.376 32.5574 154.111 32.0397C153.964 31.7435 153.823 31.4437 153.665 31.1509L153.71 31.1264Z" fill="white"/>
<path d="M160.24 47.8996C160.242 47.6068 160.231 47.3157 160.249 47.0229C160.254 46.9043 160.308 46.7824 160.371 46.6656C160.39 46.629 160.503 46.5941 160.584 46.5819C160.618 46.575 160.679 46.6307 160.723 46.6586C160.735 46.6656 160.733 46.6778 160.737 46.6882C160.814 46.9671 160.939 47.2442 160.958 47.5266C160.997 48.1366 161.075 48.7466 160.981 49.3584C160.934 49.7017 160.956 50.0485 160.955 50.3936C160.955 50.6899 160.977 50.9844 160.969 51.2789C160.965 51.4096 160.929 51.5439 160.866 51.6694C160.77 51.8681 160.761 52.0668 160.758 52.2707C160.754 52.5862 160.73 52.8998 160.704 53.2135C160.7 53.2449 160.634 53.2902 160.584 53.2937C160.53 53.2972 160.428 53.2641 160.404 53.2362C160.336 53.1526 160.261 53.062 160.251 52.9748C160.205 52.6315 160.181 52.2881 160.153 51.9448C160.137 51.7339 160.139 51.5212 160.115 51.3103C160.057 50.8363 160.066 50.3657 160.123 49.8934C160.172 49.4716 160.167 49.0481 160.179 48.6245L160.19 47.8996H160.24Z" fill="white"/>
</g>
</svg>
